<svg width="22" height="22" viewBox="0 0 22 22" fill="none" xmlns="http://www.w3.org/2000/svg">
<g id="cuida:calendar-outline" clip-path="url(#clip0_1_2840)">
<g id="Group">
<g id="Group_2">
<path id="Vector" fill-rule="evenodd" clip-rule="evenodd" d="M4.4 2.20117H17.6C18.767 2.20117 19.8861 2.66473 20.7113 3.48988C21.5364 4.31503 22 5.43417 22 6.60111V17.6009C22 18.7679 21.5364 19.887 20.7113 20.7122C19.8861 21.5373 18.767 22.0009 17.6 22.0009H4.4C3.23305 22.0009 2.11389 21.5373 1.28873 20.7122C0.46357 19.887 0 18.7679 0 17.6009V6.60111C0 5.43417 0.46357 4.31503 1.28873 3.48988C2.11389 2.66473 3.23305 2.20117 4.4 2.20117ZM4.4 4.40114C3.81652 4.40114 3.25695 4.63292 2.84437 5.04549C2.43179 5.45807 2.2 6.01764 2.2 6.60111V17.6009C2.2 18.1844 2.43179 18.744 2.84437 19.1566C3.25695 19.5691 3.81652 19.8009 4.4 19.8009H17.6C18.1835 19.8009 18.7431 19.5691 19.1556 19.1566C19.5682 18.744 19.8 18.1844 19.8 17.6009V6.60111C19.8 6.01764 19.5682 5.45807 19.1556 5.04549C18.7431 4.63292 18.1835 4.40114 17.6 4.40114H4.4Z" fill="#0A612B"/>
<path id="Vector_2" fill-rule="evenodd" clip-rule="evenodd" d="M1.09961 8.79987C1.09961 8.50813 1.2155 8.22835 1.42179 8.02206C1.62808 7.81578 1.90787 7.69988 2.19961 7.69988H19.7996C20.0913 7.69988 20.3711 7.81578 20.5774 8.02206C20.7837 8.22835 20.8996 8.50813 20.8996 8.79987C20.8996 9.0916 20.7837 9.37139 20.5774 9.57767C20.3711 9.78396 20.0913 9.89985 19.7996 9.89985H2.19961C1.90787 9.89985 1.62808 9.78396 1.42179 9.57767C1.2155 9.37139 1.09961 9.0916 1.09961 8.79987ZM6.59961 0C6.89135 0 7.17114 0.115891 7.37743 0.322178C7.58372 0.528465 7.69961 0.80825 7.69961 1.09998V5.49992C7.69961 5.79165 7.58372 6.07144 7.37743 6.27772C7.17114 6.48401 6.89135 6.5999 6.59961 6.5999C6.30787 6.5999 6.02808 6.48401 5.82179 6.27772C5.6155 6.07144 5.49961 5.79165 5.49961 5.49992V1.09998C5.49961 0.80825 5.6155 0.528465 5.82179 0.322178C6.02808 0.115891 6.30787 0 6.59961 0ZM15.3996 0C15.6913 0 15.9711 0.115891 16.1774 0.322178C16.3837 0.528465 16.4996 0.80825 16.4996 1.09998V5.49992C16.4996 5.79165 16.3837 6.07144 16.1774 6.27772C15.9711 6.48401 15.6913 6.5999 15.3996 6.5999C15.1079 6.5999 14.8281 6.48401 14.6218 6.27772C14.4155 6.07144 14.2996 5.79165 14.2996 5.49992V1.09998C14.2996 0.80825 14.4155 0.528465 14.6218 0.322178C14.8281 0.115891 15.1079 0 15.3996 0Z" fill="#0A612B"/>
<path id="Vector_3" d="M6.60039 12.1C6.60039 12.3917 6.4845 12.6715 6.27821 12.8778C6.07192 13.0841 5.79213 13.2 5.50039 13.2C5.20865 13.2 4.92886 13.0841 4.72257 12.8778C4.51628 12.6715 4.40039 12.3917 4.40039 12.1C4.40039 11.8082 4.51628 11.5285 4.72257 11.3222C4.92886 11.1159 5.20865 11 5.50039 11C5.79213 11 6.07192 11.1159 6.27821 11.3222C6.4845 11.5285 6.60039 11.8082 6.60039 12.1ZM6.60039 16.4999C6.60039 16.7917 6.4845 17.0714 6.27821 17.2777C6.07192 17.484 5.79213 17.5999 5.50039 17.5999C5.20865 17.5999 4.92886 17.484 4.72257 17.2777C4.51628 17.0714 4.40039 16.7917 4.40039 16.4999C4.40039 16.2082 4.51628 15.9284 4.72257 15.7221C4.92886 15.5158 5.20865 15.3999 5.50039 15.3999C5.79213 15.3999 6.07192 15.5158 6.27821 15.7221C6.4845 15.9284 6.60039 16.2082 6.60039 16.4999ZM12.1004 12.1C12.1004 12.3917 11.9845 12.6715 11.7782 12.8778C11.5719 13.0841 11.2921 13.2 11.0004 13.2C10.7087 13.2 10.4289 13.0841 10.2226 12.8778C10.0163 12.6715 9.90039 12.3917 9.90039 12.1C9.90039 11.8082 10.0163 11.5285 10.2226 11.3222C10.4289 11.1159 10.7087 11 11.0004 11C11.2921 11 11.5719 11.1159 11.7782 11.3222C11.9845 11.5285 12.1004 11.8082 12.1004 12.1ZM12.1004 16.4999C12.1004 16.7917 11.9845 17.0714 11.7782 17.2777C11.5719 17.484 11.2921 17.5999 11.0004 17.5999C10.7087 17.5999 10.4289 17.484 10.2226 17.2777C10.0163 17.0714 9.90039 16.7917 9.90039 16.4999C9.90039 16.2082 10.0163 15.9284 10.2226 15.7221C10.4289 15.5158 10.7087 15.3999 11.0004 15.3999C11.2921 15.3999 11.5719 15.5158 11.7782 15.7221C11.9845 15.9284 12.1004 16.2082 12.1004 16.4999ZM17.6004 12.1C17.6004 12.3917 17.4845 12.6715 17.2782 12.8778C17.0719 13.0841 16.7921 13.2 16.5004 13.2C16.2087 13.2 15.9289 13.0841 15.7226 12.8778C15.5163 12.6715 15.4004 12.3917 15.4004 12.1C15.4004 11.8082 15.5163 11.5285 15.7226 11.3222C15.9289 11.1159 16.2087 11 16.5004 11C16.7921 11 17.0719 11.1159 17.2782 11.3222C17.4845 11.5285 17.6004 11.8082 17.6004 12.1ZM17.6004 16.4999C17.6004 16.7917 17.4845 17.0714 17.2782 17.2777C17.0719 17.484 16.7921 17.5999 16.5004 17.5999C16.2087 17.5999 15.9289 17.484 15.7226 17.2777C15.5163 17.0714 15.4004 16.7917 15.4004 16.4999C15.4004 16.2082 15.5163 15.9284 15.7226 15.7221C15.9289 15.5158 16.2087 15.3999 16.5004 15.3999C16.7921 15.3999 17.0719 15.5158 17.2782 15.7221C17.4845 15.9284 17.6004 16.2082 17.6004 16.4999Z" fill="#0A612B"/>
</g>
</g>
</g>
<defs>
<clipPath id="clip0_1_2840">
<rect width="22" height="22" fill="white"/>
</clipPath>
</defs>
</svg>
