<svg width="16" height="14" viewBox="0 0 16 14" fill="none" xmlns="http://www.w3.org/2000/svg">
<path d="M11.8889 10.25C11.6127 10.25 11.3889 10.4739 11.3889 10.75C11.3889 11.0261 11.6127 11.25 11.8889 11.25V10.25ZM11.8967 11.25C12.1728 11.25 12.3967 11.0261 12.3967 10.75C12.3967 10.4739 12.1728 10.25 11.8967 10.25V11.25ZM12.2 8H11.7V9H12.2V8ZM3.8 9H4.3V8H3.8V9ZM1.96027 12.8858L1.77481 13.3502L1.77481 13.3502L1.96027 12.8858ZM1.11841 12.074L0.659001 12.2714H0.659001L1.11841 12.074ZM14.8816 12.074L15.341 12.2714L14.8816 12.074ZM14.0397 12.8858L14.2252 13.3502L14.0397 12.8858ZM14.8816 9.42597L15.341 9.22863L14.8816 9.42597ZM14.0397 8.61418L13.8543 9.07851V9.07851L14.0397 8.61418ZM1.11841 9.42597L0.659001 9.22863H0.659001L1.11841 9.42597ZM1.96027 8.61418L1.77481 8.14985H1.77481L1.96027 8.61418ZM8 9.25L7.65293 9.60992H8.34707L8 9.25ZM8.5 1V0.5H7.5V1H8.5ZM6.01373 6.64008L5.65381 6.29301L4.95968 7.01285L5.3196 7.35992L6.01373 6.64008ZM10.6804 7.35992L11.0403 7.01285L10.3462 6.29301L9.98627 6.64008L10.6804 7.35992ZM11.8889 11.25H11.8967V10.25H11.8889V11.25ZM12.6667 12.5H3.33333V13.5H12.6667V12.5ZM12.2 9H12.6667V8H12.2V9ZM3.33333 9H3.8V8H3.33333V9ZM3.33333 12.5C2.96434 12.5 2.71174 12.4997 2.51503 12.4868C2.32247 12.4741 2.21933 12.4509 2.14573 12.4215L1.77481 13.3502C1.98707 13.4349 2.20807 13.4688 2.44938 13.4846C2.68653 13.5003 2.97753 13.5 3.33333 13.5V12.5ZM0.5 10.75C0.5 11.0924 0.499709 11.3751 0.516048 11.606C0.532731 11.8418 0.568519 12.0607 0.659001 12.2714L1.57782 11.8767C1.54989 11.8117 1.52647 11.718 1.51355 11.5354C1.50029 11.348 1.5 11.1065 1.5 10.75H0.5ZM2.14573 12.4215C1.88408 12.317 1.68188 12.1189 1.57782 11.8767L0.659001 12.2714C0.870702 12.7642 1.27415 13.1502 1.77481 13.3502L2.14573 12.4215ZM14.5 10.75C14.5 11.1065 14.4997 11.348 14.4864 11.5354C14.4735 11.718 14.4501 11.8117 14.4222 11.8767L15.341 12.2714C15.4315 12.0607 15.4673 11.8418 15.484 11.606C15.5003 11.3751 15.5 11.0924 15.5 10.75H14.5ZM12.6667 13.5C13.0225 13.5 13.3135 13.5003 13.5506 13.4846C13.7919 13.4688 14.0129 13.4349 14.2252 13.3502L13.8543 12.4215C13.7807 12.4509 13.6775 12.4741 13.485 12.4868C13.2883 12.4997 13.0357 12.5 12.6667 12.5V13.5ZM14.4222 11.8767C14.3181 12.1189 14.1159 12.317 13.8543 12.4215L14.2252 13.3502C14.7259 13.1502 15.1293 12.7642 15.341 12.2714L14.4222 11.8767ZM15.5 10.75C15.5 10.4076 15.5003 10.1249 15.484 9.89398C15.4673 9.6582 15.4315 9.43927 15.341 9.22863L14.4222 9.62332C14.4501 9.68833 14.4735 9.78197 14.4864 9.96456C14.4997 10.152 14.5 10.3935 14.5 10.75H15.5ZM12.6667 9C13.0357 9 13.2883 9.00025 13.485 9.01319C13.6775 9.02586 13.7807 9.04911 13.8543 9.07851L14.2252 8.14985C14.0129 8.06507 13.7919 8.03123 13.5506 8.01535C13.3135 7.99975 13.0225 8 12.6667 8V9ZM15.341 9.22863C15.1293 8.7358 14.7259 8.34982 14.2252 8.14985L13.8543 9.07851C14.1159 9.18302 14.3181 9.38107 14.4222 9.62332L15.341 9.22863ZM1.5 10.75C1.5 10.3935 1.50029 10.152 1.51355 9.96456C1.52647 9.78197 1.54989 9.68833 1.57782 9.62332L0.659001 9.22863C0.568519 9.43927 0.532731 9.65819 0.516048 9.89398C0.499709 10.1249 0.5 10.4076 0.5 10.75H1.5ZM3.33333 8C2.97753 8 2.68653 7.99975 2.44938 8.01535C2.20807 8.03123 1.98707 8.06507 1.77481 8.14985L2.14573 9.07851C2.21933 9.04911 2.32247 9.02586 2.51503 9.01319C2.71174 9.00025 2.96434 9 3.33333 9V8ZM1.57782 9.62332C1.68188 9.38107 1.88409 9.18302 2.14573 9.07851L1.77481 8.14985C1.27415 8.34982 0.870702 8.7358 0.659001 9.22863L1.57782 9.62332ZM8.5 9.25V1H7.5V9.25H8.5ZM5.3196 7.35992L7.65293 9.60992L8.34707 8.89008L6.01373 6.64008L5.3196 7.35992ZM8.34707 9.60992L10.6804 7.35992L9.98627 6.64008L7.65293 8.89008L8.34707 9.60992Z" fill="#FBFDFF"/>
</svg>
