<svg width="990" height="221" viewBox="0 0 990 221" fill="none" xmlns="http://www.w3.org/2000/svg">
<path d="M15.7 15.5V204.6H299.3V15.5H15.7ZM85.7 107.3H93.2L95.5 100.1L97.8 107.3H105.3L99.2 111.7L101.5 118.8L95.5 114.4L89.5 118.8L91.8 111.7L85.7 107.3ZM109.8 149.7L103.8 145.3L97.8 149.7L100.1 142.6L94 138.2H101.5L103.8 131L106.1 138.2H113.6L107.5 142.6L109.8 149.7ZM107.5 80.7L109.8 87.8L103.8 83.4L97.8 87.8L100.1 80.7L94 76.3H101.5L103.8 69.1L106.1 76.3H113.6L107.5 80.7ZM124.2 53.6L126.5 46.4L128.8 53.6H136.3L130.2 58L132.5 65.1L126.5 60.7L120.5 65.1L122.8 58L116.7 53.6H124.2ZM132.5 172.4L126.5 168L120.5 172.4L122.8 165.3L116.7 160.9H124.2L126.5 153.8L128.8 160.9H136.3L130.2 165.3L132.5 172.4ZM155.2 45.3L157.5 38.1L159.8 45.2H167.3L161.2 49.6L163.5 56.7L157.5 52.3L151.5 56.7L153.8 49.6L147.7 45.2H155.2V45.3ZM163.4 180.6L157.4 176.2L151.4 180.6L153.7 173.5L147.6 169.1H155.1L157.4 161.9L159.7 169.1H167.2L161.1 173.5L163.4 180.6ZM194.4 172.4L188.4 168L182.4 172.4L184.7 165.3L178.6 160.9H186.1L188.4 153.8L190.7 160.9H198.2L192.1 165.3L194.4 172.4ZM192.2 58L194.5 65.1L188.5 60.7L182.5 65.1L184.8 58L178.7 53.6H186.2L188.5 46.5L190.8 53.6H198.3L192.2 58ZM208.8 76.3L211.1 69.1L213.4 76.3H220.9L214.8 80.7L217.1 87.8L211.1 83.4L205.1 87.8L207.4 80.7L201.3 76.3H208.8ZM217.1 149.7L211.1 145.3L205.1 149.7L207.4 142.6L201.3 138.2H208.8L211.1 131L213.4 138.2H220.9L214.8 142.6L217.1 149.7ZM225.3 118.6L219.3 114.2L213.3 118.6L215.6 111.5L209.5 107.1H217L219.3 99.9L221.6 107.1H229.1L223 111.5L225.3 118.6Z" fill="#051F20"/>
<path d="M340.3 86.7002V40.2002H372.2V48.1002H349.7V59.1002H369.1V67.0002H349.7V86.8002H340.3V86.7002Z" fill="#051F20"/>
<path d="M402.1 86.7V81.7C400.9 83.5 399.3 84.9 397.3 86C395.3 87 393.2 87.6 391 87.6C388.8 87.6 386.7 87.1 384.9 86.1C383.1 85.1 381.8 83.7 381 81.9C380.2 80.1 379.8 77.6 379.8 74.4V53.1H388.7V68.6C388.7 73.3 388.9 76.2 389.2 77.3C389.5 78.4 390.1 79.2 391 79.8C391.9 80.4 393 80.7 394.3 80.7C395.6 80.7 397.2 80.3 398.4 79.4C399.6 78.6 400.4 77.5 400.9 76.3C401.3 75.1 401.6 72 401.6 67.2V53H410.5V86.7H402.2H402.1Z" fill="#051F20"/>
<path d="M450.3 86.6998H441.4V69.4998C441.4 65.8998 441.2 63.4998 440.8 62.3998C440.4 61.2998 439.8 60.4998 438.9 59.8998C438 59.2998 437 58.9998 435.8 58.9998C434.6 58.9998 432.9 59.3998 431.6 60.2998C430.4 61.0998 429.5 62.2998 429.1 63.6998C428.6 65.0998 428.4 67.6998 428.4 71.3998V86.6998H419.5V52.9998H427.8V57.9998C430.7 54.1998 434.4 52.2998 438.9 52.2998C443.4 52.2998 442.7 52.6998 444.3 53.3998C445.9 54.0998 447.2 54.9998 448 56.0998C448.8 57.1998 449.4 58.3998 449.7 59.7998C450 61.1998 450.2 63.1998 450.2 65.7998V86.6998H450.3Z" fill="#051F20"/>
<path d="M490.2 86.7H481.9V81.7C480.5 83.6 478.9 85.1 477 86C475.1 86.9 473.2 87.4 471.3 87.4C467.4 87.4 464.1 85.8 461.3 82.7C458.5 79.6 457.2 75.2 457.2 69.6C457.2 64 458.5 59.5 461.2 56.6C463.9 53.6 467.3 52.1 471.4 52.1C475.5 52.1 478.4 53.7 481.2 56.8V40H490.1V86.5L490.2 86.7ZM466.4 69.1C466.4 72.7 466.9 75.3 467.9 76.9C469.3 79.2 471.3 80.4 473.9 80.4C476.5 80.4 477.7 79.5 479.1 77.8C480.5 76.1 481.3 73.4 481.3 70C481.3 66.6 480.6 63.3 479.2 61.6C477.8 59.9 476 59 473.8 59C471.6 59 469.9 59.8 468.5 61.5C467.1 63.2 466.4 65.7 466.4 69V69.1Z" fill="#051F20"/>
<path d="M518.5 75.9999L527.4 77.4999C526.3 80.7999 524.5 83.1999 522 84.8999C519.5 86.5999 516.5 87.4999 512.7 87.4999C506.8 87.4999 502.5 85.5999 499.7 81.7999C497.5 78.6999 496.4 74.8999 496.4 70.1999C496.4 65.4999 497.9 60.1999 500.8 57.0999C503.7 53.9999 507.4 52.3999 511.9 52.3999C516.4 52.3999 520.9 54.0999 523.8 57.3999C526.7 60.6999 528.1 65.7999 528 72.5999H505.7C505.7 75.1999 506.5 77.2999 507.9 78.7999C509.3 80.2999 511 80.9999 513 80.9999C515 80.9999 515.6 80.5999 516.5 79.8999C517.4 79.1999 518.2 77.8999 518.7 76.1999L518.5 75.9999ZM519 66.9999C519 64.3999 518.3 62.4999 517 61.0999C515.7 59.7999 514.2 59.0999 512.4 59.0999C510.6 59.0999 508.8 59.7999 507.6 61.1999C506.3 62.5999 505.7 64.4999 505.7 66.9999H519Z" fill="#051F20"/>
<path d="M566.1 86.7H557.8V81.7C556.4 83.6 554.8 85.1 552.9 86C551 86.9 549.1 87.4 547.2 87.4C543.3 87.4 540 85.8 537.2 82.7C534.4 79.6 533.1 75.2 533.1 69.6C533.1 64 534.4 59.5 537.1 56.6C539.8 53.6 543.2 52.1 547.3 52.1C551.4 52.1 554.3 53.7 557.1 56.8V40H566V86.5L566.1 86.7ZM542.3 69.1C542.3 72.7 542.8 75.3 543.8 76.9C545.2 79.2 547.2 80.4 549.8 80.4C552.4 80.4 553.6 79.5 555 77.8C556.4 76.1 557.2 73.4 557.2 70C557.2 66.6 556.5 63.3 555.1 61.6C553.7 59.9 551.9 59 549.7 59C547.5 59 545.8 59.8 544.4 61.5C543 63.2 542.3 65.7 542.3 69V69.1Z" fill="#051F20"/>
<path d="M592.6 86.7002V40.2002H601.5V57.0002C604.3 53.9002 607.5 52.3002 611.3 52.3002C615.1 52.3002 618.8 53.8002 621.5 56.8002C624.2 59.8002 625.5 64.0002 625.5 69.6002C625.5 75.2002 624.1 79.8002 621.4 82.9002C618.7 86.0002 615.3 87.6002 611.4 87.6002C607.5 87.6002 607.6 87.1002 605.7 86.2002C603.8 85.2002 602.2 83.8002 600.9 81.9002V86.9002H592.6V86.7002ZM601.4 69.1002C601.4 72.6002 601.9 75.2002 603.1 76.8002C604.6 79.2002 606.7 80.4002 609.3 80.4002C611.9 80.4002 612.9 79.6002 614.3 77.9002C615.7 76.2002 616.4 73.6002 616.4 69.9002C616.4 66.2002 615.7 63.3002 614.3 61.6002C612.9 59.9002 611.1 59.0002 608.9 59.0002C606.7 59.0002 605 59.8002 603.6 61.5002C602.2 63.2002 601.5 65.7002 601.5 69.1002H601.4Z" fill="#051F20"/>
<path d="M628.4 53H637.9L646 76.9L653.9 53H663.1L651.2 85.4L649.1 91.3C648.3 93.3 647.6 94.8 646.9 95.8C646.2 96.8 645.4 97.7 644.5 98.3C643.6 98.9 642.4 99.4 641.1 99.8C639.8 100.2 638.2 100.3 636.5 100.3C634.8 100.3 633.1 100.1 631.5 99.8L630.7 92.8C632.1 93.1 633.4 93.2 634.5 93.2C636.6 93.2 638.1 92.6 639.1 91.4C640.1 90.2 640.9 88.6 641.4 86.8L628.6 53H628.4Z" fill="#051F20"/>
<path d="M355.7 131V138.1H349.6V151.7C349.6 154.5 349.6 156.1 349.8 156.5C349.9 157 350.2 157.3 350.6 157.6C351 157.9 351.5 158 352.1 158C352.7 158 354.1 157.7 355.7 157.1L356.5 164C354.4 164.9 352.1 165.3 349.5 165.3C346.9 165.3 346.4 165 345.2 164.5C343.9 164 343 163.3 342.4 162.4C341.8 161.5 341.4 160.4 341.1 158.9C340.9 157.9 340.8 155.8 340.8 152.6V137.9H336.7V130.8H340.8V124.1L349.8 118.9V130.8H355.9L355.7 131Z" fill="#051F20"/>
<path d="M370.7 118.2V135.3C373.6 131.9 377 130.3 381 130.3C385 130.3 384.9 130.7 386.6 131.4C388.3 132.1 389.5 133.1 390.3 134.3C391.1 135.5 391.7 136.8 392 138.2C392.3 139.6 392.5 141.9 392.5 144.9V164.7H383.6V146.9C383.6 143.4 383.4 141.1 383.1 140.2C382.8 139.2 382.2 138.5 381.3 137.9C380.4 137.3 379.4 137.1 378.1 137.1C376.8 137.1 375.3 137.5 374.1 138.2C372.9 138.9 372.1 140 371.5 141.5C371 142.9 370.7 145.1 370.7 147.9V164.8H361.8V118.3H370.7V118.2Z" fill="#051F20"/>
<path d="M421.1 154L430 155.5C428.9 158.8 427.1 161.2 424.6 162.9C422.1 164.6 419.1 165.5 415.3 165.5C409.4 165.5 405.1 163.6 402.3 159.8C400.1 156.7 399 152.9 399 148.2C399 143.5 400.5 138.2 403.4 135.1C406.3 132 410 130.4 414.5 130.4C419 130.4 423.5 132.1 426.4 135.4C429.3 138.7 430.7 143.8 430.6 150.6H408.3C408.3 153.2 409.1 155.3 410.5 156.8C411.9 158.3 413.6 159 415.6 159C417.6 159 418.2 158.6 419.1 157.9C420 157.2 420.8 155.9 421.3 154.2L421.1 154ZM421.6 145C421.6 142.4 420.9 140.5 419.6 139.1C418.3 137.8 416.8 137.1 415 137.1C413.2 137.1 411.4 137.8 410.2 139.2C408.9 140.6 408.3 142.5 408.3 145H421.6Z" fill="#051F20"/>
<path d="M455.8 164.7V118.2H490.3V126.1H465.2V136.4H488.6V144.2H465.2V156.9H491.2V164.7H455.8Z" fill="#051F20"/>
<path d="M521.3 164.7V159.7C520.1 161.5 518.5 162.9 516.5 164C514.5 165 512.4 165.6 510.2 165.6C508 165.6 505.9 165.1 504.1 164.1C502.3 163.1 501 161.7 500.2 159.9C499.4 158.1 499 155.6 499 152.4V131.1H507.9V146.6C507.9 151.3 508.1 154.2 508.4 155.3C508.7 156.4 509.3 157.2 510.2 157.8C511.1 158.4 512.2 158.7 513.5 158.7C514.8 158.7 516.4 158.3 517.6 157.4C518.8 156.6 519.6 155.5 520.1 154.3C520.5 153.1 520.8 150 520.8 145.2V131H529.7V164.7H521.4H521.3Z" fill="#051F20"/>
<path d="M547.4 164.7H538.5V131H546.8V135.8C548.2 133.5 549.5 132 550.6 131.3C551.7 130.6 553 130.2 554.5 130.2C556 130.2 558.5 130.8 560.4 131.9L557.6 139.7C556.1 138.7 554.7 138.2 553.4 138.2C552.1 138.2 551.1 138.5 550.2 139.2C549.3 139.9 548.7 141.1 548.2 142.9C547.7 144.7 547.5 148.5 547.5 154.2V164.6L547.4 164.7Z" fill="#051F20"/>
<path d="M562.1 147.4C562.1 144.4 562.8 141.6 564.3 138.8C565.8 136 567.8 133.9 570.5 132.5C573.2 131 576.2 130.3 579.5 130.3C584.6 130.3 588.8 132 592 135.3C595.3 138.6 596.9 142.8 596.9 147.9C596.9 153 595.3 157.2 592 160.6C588.7 164 584.6 165.6 579.6 165.6C574.6 165.6 573.6 164.9 570.8 163.5C568 162.1 565.9 160.1 564.4 157.4C562.9 154.7 562.2 151.4 562.2 147.5L562.1 147.4ZM571.2 147.9C571.2 151.2 572 153.8 573.6 155.6C575.2 157.4 577.1 158.3 579.5 158.3C581.9 158.3 583.8 157.4 585.4 155.6C587 153.8 587.8 151.2 587.8 147.9C587.8 144.6 587 142.1 585.4 140.3C583.8 138.5 581.9 137.6 579.5 137.6C577.1 137.6 575.2 138.5 573.6 140.3C572 142.1 571.2 144.6 571.2 148V147.9Z" fill="#051F20"/>
<path d="M603.6 131H611.9V136C613 134.3 614.4 132.9 616.3 131.9C618.1 130.8 620.2 130.3 622.4 130.3C626.3 130.3 629.6 131.8 632.4 134.9C635.1 138 636.5 142.2 636.5 147.7C636.5 153.2 635.1 157.7 632.4 160.8C629.6 163.9 626.3 165.5 622.4 165.5C618.5 165.5 618.9 165.1 617.3 164.4C615.8 163.7 614.2 162.4 612.5 160.6V177.6H603.6V131.1V131ZM612.4 147.3C612.4 151.1 613.2 153.9 614.7 155.7C616.2 157.5 618 158.4 620.2 158.4C622.4 158.4 624 157.6 625.4 155.9C626.8 154.2 627.5 151.5 627.5 147.7C627.5 143.9 626.8 141.5 625.4 139.8C624 138.1 622.2 137.2 620.1 137.2C618 137.2 616.1 138 614.7 139.7C613.3 141.4 612.5 143.9 612.5 147.2L612.4 147.3Z" fill="#051F20"/>
<path d="M663 154L671.9 155.5C670.8 158.8 669 161.2 666.5 162.9C664 164.6 661 165.5 657.2 165.5C651.3 165.5 647 163.6 644.2 159.8C642 156.7 640.9 152.9 640.9 148.2C640.9 143.5 642.4 138.2 645.3 135.1C648.2 132 651.9 130.4 656.4 130.4C660.9 130.4 665.4 132.1 668.3 135.4C671.2 138.7 672.6 143.8 672.5 150.6H650.2C650.2 153.2 651 155.3 652.4 156.8C653.8 158.3 655.5 159 657.5 159C659.5 159 660.1 158.6 661 157.9C661.9 157.2 662.7 155.9 663.2 154.2L663 154ZM663.6 145C663.6 142.4 662.9 140.5 661.6 139.1C660.3 137.8 658.8 137.1 657 137.1C655.2 137.1 653.4 137.8 652.2 139.2C650.9 140.6 650.3 142.5 650.3 145H663.6Z" fill="#051F20"/>
<path d="M686.3 141.3L678.2 139.8C679.1 136.5 680.7 134.1 682.9 132.6C685.1 131 688.4 130.3 692.8 130.3C697.2 130.3 699.7 130.8 701.7 131.7C703.6 132.6 705 133.8 705.8 135.3C706.6 136.7 707 139.4 707 143.3V153.7C707 156.7 707 158.8 707.3 160.3C707.6 161.7 708.1 163.2 708.9 164.8H700.1C699.9 164.2 699.6 163.3 699.2 162.2C699.1 161.7 698.9 161.3 698.9 161.2C697.4 162.7 695.7 163.8 694 164.5C692.3 165.2 690.4 165.6 688.4 165.6C684.9 165.6 682.2 164.7 680.2 162.8C678.2 160.9 677.2 158.5 677.2 155.7C677.2 152.9 677.7 152.1 678.6 150.6C679.5 149.1 680.8 148 682.4 147.2C684 146.4 686.4 145.7 689.5 145.1C693.7 144.3 696.6 143.6 698.2 142.9V142C698.2 140.3 697.8 139.1 696.9 138.3C696.1 137.6 694.5 137.2 692.1 137.2C689.7 137.2 689.3 137.5 688.4 138.1C687.5 138.7 686.8 139.8 686.2 141.4L686.3 141.3ZM698.3 148.5C697.2 148.9 695.3 149.3 692.9 149.9C690.4 150.4 688.8 150.9 688 151.5C686.8 152.3 686.3 153.4 686.3 154.6C686.3 155.8 686.8 156.9 687.7 157.8C688.6 158.7 689.8 159.2 691.3 159.2C692.8 159.2 694.4 158.7 695.9 157.6C697 156.8 697.7 155.8 698 154.6C698.2 153.8 698.3 152.4 698.3 150.3V148.5Z" fill="#051F20"/>
<path d="M746.5 164.7H737.6V147.5C737.6 143.9 737.4 141.5 737 140.4C736.6 139.3 736 138.5 735.1 137.9C734.2 137.3 733.2 137 732 137C730.8 137 729.1 137.4 727.8 138.3C726.6 139.1 725.7 140.3 725.3 141.7C724.8 143.1 724.6 145.7 724.6 149.4V164.7H715.7V131H724V136C726.9 132.2 730.6 130.3 735.1 130.3C739.6 130.3 738.9 130.7 740.5 131.4C742.1 132.1 743.4 133 744.2 134.1C745 135.2 745.6 136.4 745.9 137.8C746.2 139.2 746.4 141.2 746.4 143.8V164.7H746.5Z" fill="#051F20"/>
<path d="M773.6 118.2H783V143.4C783 147.4 783.1 150 783.3 151.2C783.7 153.1 784.7 154.6 786.2 155.8C787.7 157 789.8 157.5 792.4 157.5C795 157.5 797.1 157 798.4 155.9C799.8 154.8 800.6 153.5 800.8 151.9C801.1 150.3 801.2 147.7 801.2 144V118.3H810.6V142.7C810.6 148.3 810.3 152.2 809.8 154.5C809.3 156.8 808.4 158.8 807 160.3C805.6 161.9 803.8 163.2 801.5 164.1C799.2 165 796.2 165.5 792.5 165.5C788.8 165.5 784.7 165 782.4 164C780.1 163 778.3 161.6 777 160C775.7 158.4 774.8 156.6 774.4 154.8C773.8 152.1 773.5 148.2 773.5 143V118.2H773.6Z" fill="#051F20"/>
<path d="M851.2 164.7H842.3V147.5C842.3 143.9 842.1 141.5 841.7 140.4C841.3 139.3 840.7 138.5 839.8 137.9C838.9 137.3 837.9 137 836.7 137C835.5 137 833.8 137.4 832.5 138.3C831.3 139.1 830.4 140.3 830 141.7C829.5 143.1 829.3 145.7 829.3 149.4V164.7H820.4V131H828.7V136C831.6 132.2 835.3 130.3 839.8 130.3C844.3 130.3 843.6 130.7 845.2 131.4C846.8 132.1 848.1 133 848.9 134.1C849.7 135.2 850.3 136.4 850.6 137.8C850.9 139.2 851.1 141.2 851.1 143.8V164.7H851.2Z" fill="#051F20"/>
<path d="M860.2 126.4V118.1H869.1V126.4H860.2ZM860.2 164.7V131H869.1V164.7H860.2Z" fill="#051F20"/>
<path d="M876.2 147.4C876.2 144.4 876.9 141.6 878.4 138.8C879.9 136 881.9 133.9 884.6 132.5C887.3 131 890.3 130.3 893.6 130.3C898.7 130.3 902.9 132 906.1 135.3C909.4 138.6 911 142.8 911 147.9C911 153 909.4 157.2 906.1 160.6C902.8 164 898.7 165.6 893.7 165.6C888.7 165.6 887.7 164.9 884.9 163.5C882.1 162.1 880 160.1 878.5 157.4C877 154.7 876.3 151.4 876.3 147.5L876.2 147.4ZM885.4 147.9C885.4 151.2 886.2 153.8 887.8 155.6C889.4 157.4 891.3 158.3 893.7 158.3C896.1 158.3 898 157.4 899.6 155.6C901.2 153.8 902 151.2 902 147.9C902 144.6 901.2 142.1 899.6 140.3C898 138.5 896.1 137.6 893.7 137.6C891.3 137.6 889.4 138.5 887.8 140.3C886.2 142.1 885.4 144.6 885.4 148V147.9Z" fill="#051F20"/>
<path d="M948.7 164.7H939.8V147.5C939.8 143.9 939.6 141.5 939.2 140.4C938.8 139.3 938.2 138.5 937.3 137.9C936.4 137.3 935.4 137 934.2 137C933 137 931.3 137.4 930 138.3C928.8 139.1 927.9 140.3 927.5 141.7C927 143.1 926.8 145.7 926.8 149.4V164.7H917.9V131H926.2V136C929.1 132.2 932.8 130.3 937.3 130.3C941.8 130.3 941.1 130.7 942.7 131.4C944.3 132.1 945.6 133 946.4 134.1C947.2 135.2 947.8 136.4 948.1 137.8C948.4 139.2 948.6 141.2 948.6 143.8V164.7H948.7Z" fill="#051F20"/>
</svg>
