<svg width="680" height="87" viewBox="0 0 680 87" fill="none" xmlns="http://www.w3.org/2000/svg">
<g opacity="0.13">
<path d="M0.1836 86.2719L0 84.5826C108.875 72.735 188.367 68.413 236.269 71.7382C236.267 71.7377 236.269 71.7382 236.27 71.7382C253.828 72.9541 280.954 74.4556 289.513 74.0738C288.784 73.8203 287.949 73.4952 287.043 73.0632C279.167 69.3075 275.473 62.094 274.082 59.3779C267.213 45.9654 272.855 31.1263 274.056 28.2878C274.189 27.9731 274.497 27.7689 274.838 27.7689C274.841 27.7689 274.844 27.7689 274.847 27.7689C277.54 27.7966 284.66 28.2451 291.575 31.8332C295.115 18.7448 304.432 8.08209 309.37 3.14163C309.669 2.84295 310.14 2.80818 310.479 3.06135C313.734 5.48712 329.94 18.4715 329.333 35.8797C329.052 43.9241 324.809 59.0489 314.272 67.7456L313.795 68.1339C311.975 69.6088 311.11 70.5299 311.223 70.8712C311.226 70.8806 311.588 71.7725 317.178 71.3786C320.843 71.1197 325.558 70.3989 329.717 69.7628C331.165 69.5415 332.564 69.3279 333.859 69.1422C356.258 65.9255 376.873 67.024 390.513 67.7503C397.033 68.0981 403.212 68.4263 404.627 67.8222C404.235 67.5478 403.336 67.1644 402.587 66.8453C400.571 65.9857 397.808 64.809 395.221 62.52C386.853 55.1167 385.28 40.1415 390.547 18.0096C390.604 17.7695 390.762 17.566 390.981 17.4525C391.199 17.3379 391.458 17.3259 391.686 17.4159C395.489 18.9229 402.215 22.0655 408.289 27.3295C411.372 16.154 418.338 6.83404 424.601 0.263668C424.888 -0.038409 425.354 -0.0875801 425.699 0.150681C430.882 3.72879 437.866 10.0638 441.7 19.9222C447.715 35.3898 444.305 54.3608 433.936 63.1116C431.356 65.2884 428.729 66.5182 426.992 67.3318C426.354 67.6305 425.594 67.9857 425.212 68.2407C426.939 68.9798 434.973 68.4455 442.756 67.9287C449.299 67.4937 456.714 67.001 464.608 66.8189C489.193 66.2524 510.837 68.9792 522.461 70.4439C524.401 70.6884 526.232 70.9191 527.764 71.0922C527.458 70.9567 527.143 70.8079 526.82 70.6442C516.058 65.1903 511.019 50.8816 511.602 39.5666C512.349 25.0936 522.207 15.7386 525.21 13.2161C525.553 12.9284 526.061 12.9551 526.371 13.2791C531.523 18.6639 535.937 24.598 539.492 30.9175C541.596 34.6599 543.907 38.7689 545.651 43.067C545.885 42.7124 546.125 42.3612 546.372 42.012C551.826 34.306 559.019 30.1539 564.093 28.0275C564.423 27.8897 564.806 27.9729 565.048 28.2378C565.501 28.7324 576.091 40.522 571.697 55.4695C569.33 63.5217 562.997 70.5516 555.563 73.3799C554.628 73.735 553.731 74.0016 552.904 74.2053C560.168 74.67 574.564 74.9227 583.28 75.0765C586.006 75.1241 588.418 75.1667 590.281 75.207C619.119 75.835 649.305 78.9925 680 84.5913L679.695 86.263C649.089 80.6802 618.993 77.5321 590.244 76.9065C588.383 76.8654 585.973 76.8236 583.25 76.7754C547.211 76.1415 547.203 75.6498 547.181 74.3353C547.165 73.433 548.036 73.3129 549.241 73.1458C550.509 72.9706 552.631 72.6771 554.96 71.791C561.914 69.1451 567.844 62.5506 570.067 54.9901C573.78 42.3565 566.075 32.1007 564.186 29.8361C559.359 31.9425 552.782 35.8962 547.76 42.993C547.283 43.6673 546.832 44.3517 546.406 45.0432C548.495 50.8939 549.348 57.0392 547.09 63.0489C545.855 66.3382 542.389 72.4237 539.985 71.5873C539.42 71.3909 538.993 70.8532 538.716 69.989C537.51 66.2263 538.626 54.8617 544.547 44.834C542.83 40.3206 540.352 35.915 538.011 31.7516C534.654 25.7828 530.515 20.1647 525.699 15.0393C522.3 18.0525 513.967 26.7188 513.3 39.6532C512.758 50.1566 517.582 64.0561 527.588 69.1275C529.106 69.897 530.476 70.3175 531.384 70.5958C532.504 70.94 533.389 71.2115 533.251 72.1331C533.052 73.4468 531.977 73.3556 522.249 72.1292C510.668 70.6693 489.113 67.9504 464.646 68.5174C456.791 68.6984 449.395 69.1895 442.869 69.6231C428.71 70.5641 423.79 70.7755 423.352 68.5344C423.105 67.2737 424.364 66.684 426.271 65.7916C428.026 64.9696 430.431 63.8432 432.839 61.8115C442.688 53.4998 445.884 35.3697 440.116 20.5371C436.583 11.4515 430.244 5.47429 425.329 1.96601C419.196 8.50866 412.499 17.6897 409.708 28.6097C414.128 32.7713 418.033 38.1255 419.958 44.8717C422.232 52.8397 421.646 62.4565 419.603 65.7312C419.126 66.4962 418.559 66.9421 417.917 67.0572C417.276 67.1712 416.585 66.9494 415.865 66.3929C412.324 63.6556 407.59 52.5256 406.796 42.2783C406.441 37.7 406.856 33.3187 407.819 29.1765C402.231 24.1442 395.919 21.0081 391.973 19.3651C387.134 40.306 388.604 54.3951 396.347 61.2458C398.727 63.3517 401.343 64.4664 403.253 65.2803C405.231 66.1227 406.659 66.7318 406.459 68.0816C406.146 70.1894 402.615 70.0952 390.422 69.4458C376.848 68.7234 356.334 67.6292 334.1 70.8221C332.809 71.0075 331.416 71.2209 329.973 71.4411C317.923 73.2836 310.54 74.2009 309.61 71.4063C309.068 69.7749 311.011 68.2012 312.725 66.8121L313.19 66.4332C323.294 58.0945 327.364 43.5561 327.634 35.8188C328.182 20.1205 314.18 8.07216 310.05 4.8691C305.067 9.95079 296.332 20.2455 293.105 32.6811C295.859 34.3147 298.525 36.486 300.803 39.3718C307.952 48.4296 308.627 61.0494 306.833 66.7269C306.258 68.5451 305.449 69.6221 304.429 69.9276C303.731 70.1355 302.93 69.9773 302.052 69.4568C298.346 67.2573 292.796 58.1835 290.916 49.3306C289.754 43.8569 290.013 38.5296 291.152 33.5277C284.902 30.1727 278.371 29.5657 275.403 29.4783C273.93 33.1736 269.417 46.5403 275.594 58.6019C276.913 61.1776 280.417 68.0199 287.774 71.5282C289.346 72.2772 290.718 72.6899 291.625 72.9627C292.735 73.2962 293.537 73.5376 293.462 74.3939C293.359 75.5556 293.27 76.5591 264.424 75.1191C250.539 74.426 236.733 73.4722 236.152 73.4319C188.351 70.1172 108.959 74.436 0.1836 86.2719ZM545.295 46.9642C539.657 57.3491 539.298 68.5817 540.539 69.954C541.391 69.6961 543.991 66.4651 545.499 62.4518C547.431 57.3099 546.936 52.0828 545.295 46.9642ZM292.694 34.4185C291.704 39.0532 291.512 43.9571 292.579 48.9789C294.342 57.2793 299.585 66.0176 302.92 67.9964C303.354 68.2542 303.726 68.3659 303.943 68.3C304.255 68.2072 304.774 67.6051 305.213 66.2156C306.965 60.6738 305.943 48.6282 299.469 40.426C297.46 37.8797 295.123 35.9221 292.694 34.4185ZM409.261 30.5362C408.489 34.2315 408.178 38.1133 408.491 42.1475C409.276 52.2664 414.061 62.8511 416.905 65.0488C417.264 65.3266 417.51 65.4045 417.618 65.3852C417.722 65.3669 417.925 65.211 418.161 64.8326C419.763 62.2648 420.623 53.3944 418.325 45.3388C416.6 39.2965 413.19 34.4125 409.261 30.5362Z" fill="#0B3F26"/>
</g>
</svg>
