<svg width="424" height="406" viewBox="0 0 424 406" fill="none" xmlns="http://www.w3.org/2000/svg">
<g opacity="0.55">
<circle cx="364.972" cy="161.785" r="1.61898" transform="rotate(25.3873 364.972 161.785)" fill="#4FAD42"/>
<path d="M396.172 90.2036L396.06 91.0121C396.028 91.2587 396.052 91.5083 396.132 91.7411C396.211 91.9739 396.343 92.1834 396.518 92.3528L397.094 92.9061L397.105 92.9164C397.149 92.9605 397.178 93.0176 397.188 93.0799C397.198 93.1421 397.189 93.2064 397.162 93.2639C397.134 93.3214 397.09 93.3692 397.036 93.4008C396.981 93.4324 396.919 93.4462 396.857 93.4402L396.065 93.3441C395.823 93.3159 395.577 93.3459 395.346 93.4315C395.115 93.5171 394.907 93.6561 394.736 93.8372L394.181 94.4342C394.136 94.4796 394.079 94.5102 394.018 94.5218C393.957 94.5333 393.894 94.5253 393.838 94.4988C393.782 94.4722 393.736 94.4285 393.706 94.3736C393.676 94.3187 393.664 94.2554 393.671 94.1924L393.782 93.3845C393.815 93.1374 393.792 92.887 393.712 92.6534C393.633 92.4198 393.501 92.2096 393.326 92.0396L392.75 91.4863C392.706 91.4422 392.677 91.3851 392.667 91.3229C392.657 91.2606 392.666 91.1963 392.694 91.1388C392.721 91.0813 392.765 91.0335 392.819 91.0019C392.874 90.9703 392.937 90.9566 392.998 90.9625L393.791 91.0589C394.031 91.0839 394.275 91.0518 394.503 90.9651C394.731 90.8784 394.937 90.7394 395.106 90.5591L395.661 89.9622C395.706 89.9165 395.762 89.8856 395.824 89.8739C395.886 89.8622 395.949 89.8702 396.005 89.8968C396.061 89.9234 396.107 89.9673 396.137 90.0224C396.167 90.0775 396.179 90.1404 396.172 90.2036ZM396.833 96.8968L396.421 96.5022C396.297 96.3808 396.203 96.231 396.146 96.0646C396.089 95.8982 396.071 95.7197 396.094 95.5434L396.174 94.9667C396.179 94.9217 396.17 94.8764 396.149 94.8372C396.128 94.7979 396.095 94.7667 396.055 94.7477C396.015 94.7287 395.97 94.723 395.926 94.7313C395.882 94.7396 395.841 94.7615 395.81 94.794L395.412 95.2198C395.292 95.3484 395.144 95.4475 394.982 95.5096C394.819 95.5717 394.645 95.595 394.473 95.5777L393.908 95.5087C393.864 95.5048 393.819 95.5149 393.78 95.5375C393.742 95.5601 393.71 95.5942 393.691 95.6351C393.672 95.676 393.665 95.7218 393.672 95.7661C393.679 95.8104 393.699 95.8512 393.73 95.8829L394.141 96.2781C394.266 96.3998 394.36 96.55 394.417 96.7168C394.473 96.8836 394.491 97.0623 394.467 97.2389L394.388 97.8156C394.383 97.8606 394.391 97.9059 394.412 97.9451C394.434 97.9844 394.467 98.0156 394.507 98.0346C394.547 98.0536 394.592 98.0593 394.636 98.051C394.679 98.0427 394.72 98.0208 394.752 97.9883L395.149 97.5622C395.271 97.433 395.42 97.3339 395.585 97.2726C395.749 97.2113 395.925 97.1896 396.098 97.2092L396.663 97.2782C396.707 97.282 396.752 97.272 396.791 97.2493C396.829 97.2267 396.861 97.1926 396.88 97.1517C396.899 97.1108 396.906 97.0651 396.899 97.0207C396.892 96.9764 396.872 96.9356 396.841 96.904L396.833 96.8968ZM392.841 90.0048C393.002 90.0813 393.154 90.1692 393.295 90.2684L393.08 90.2422C392.93 90.228 392.778 90.2483 392.634 90.3016C392.491 90.3548 392.361 90.4397 392.253 90.5501C391.838 90.413 391.393 90.391 390.962 90.4863C390.531 90.5815 390.13 90.7906 389.8 91.0923C389.47 91.394 389.223 91.7775 389.083 92.2039C388.943 92.6304 388.916 93.0844 389.004 93.52C389.092 93.9556 389.293 94.3573 389.585 94.684C389.877 95.0108 390.251 95.2512 390.668 95.3806C391.086 95.51 391.532 95.524 391.961 95.421C392.39 95.318 392.787 95.1018 393.112 94.7943C393.164 94.878 393.227 94.9501 393.301 95.0107C393.197 95.0981 393.112 95.2113 393.052 95.336C392.985 95.4785 392.952 95.6325 392.959 95.788C392.91 95.8159 392.86 95.8426 392.809 95.8681L394.064 99.5505C394.095 99.6406 394.089 99.7401 394.047 99.8271C394.006 99.9142 393.933 99.9817 393.844 100.015C393.799 100.031 393.753 100.039 393.706 100.037C393.66 100.035 393.614 100.024 393.572 100.004C393.487 99.9633 393.423 99.8901 393.392 99.8001L392.138 96.1183C391.64 96.2426 391.122 96.2442 390.628 96.123C390.134 96.0018 389.679 95.7613 389.299 95.4217C388.92 95.0821 388.628 94.6531 388.448 94.1708C388.268 93.6886 388.205 93.1669 388.265 92.6496C388.324 92.1323 388.504 91.6343 388.79 91.1975C389.076 90.7606 389.459 90.3974 389.907 90.1385C390.355 89.8795 390.855 89.7322 391.366 89.709C391.876 89.6857 392.382 89.7871 392.841 90.0048Z" fill="#4FAD42"/>
<g opacity="0.76" clip-path="url(#clip0_475_3866)">
<path d="M257.939 132.066L257.861 132.669C257.838 132.852 257.859 133.039 257.921 133.213C257.983 133.388 258.086 133.545 258.219 133.673L258.662 134.091L258.67 134.099C258.704 134.132 258.726 134.175 258.735 134.221C258.743 134.268 258.736 134.316 258.716 134.359C258.696 134.401 258.663 134.437 258.621 134.46C258.58 134.483 258.533 134.493 258.486 134.488L257.883 134.41C257.699 134.387 257.513 134.407 257.338 134.469C257.163 134.531 257.006 134.633 256.878 134.767L256.461 135.208C256.427 135.242 256.384 135.264 256.338 135.272C256.291 135.28 256.243 135.274 256.201 135.254C256.158 135.233 256.123 135.2 256.1 135.159C256.076 135.118 256.067 135.071 256.072 135.024L256.149 134.421C256.173 134.237 256.153 134.05 256.091 133.875C256.028 133.7 255.926 133.542 255.792 133.414L255.35 132.996C255.316 132.963 255.294 132.92 255.286 132.873C255.278 132.827 255.284 132.779 255.304 132.736C255.325 132.693 255.358 132.658 255.399 132.635C255.44 132.612 255.487 132.602 255.534 132.607L256.138 132.685C256.32 132.706 256.505 132.684 256.678 132.621C256.85 132.558 257.006 132.456 257.132 132.323L257.549 131.882C257.583 131.848 257.626 131.825 257.672 131.817C257.719 131.809 257.767 131.815 257.81 131.836C257.853 131.856 257.888 131.889 257.911 131.93C257.934 131.972 257.944 132.019 257.939 132.066ZM258.495 137.068L258.18 136.77C258.084 136.679 258.011 136.566 257.967 136.441C257.922 136.317 257.907 136.183 257.923 136.052L257.979 135.622C257.983 135.588 257.976 135.554 257.959 135.525C257.943 135.496 257.918 135.472 257.887 135.457C257.857 135.443 257.822 135.438 257.789 135.444C257.756 135.45 257.725 135.466 257.701 135.49L257.403 135.805C257.312 135.9 257.201 135.973 257.078 136.018C256.955 136.063 256.823 136.079 256.692 136.064L256.262 136.008C256.228 136.005 256.195 136.012 256.166 136.029C256.136 136.045 256.113 136.07 256.098 136.101C256.084 136.131 256.079 136.165 256.085 136.198C256.091 136.232 256.106 136.262 256.13 136.286L256.445 136.584C256.541 136.676 256.614 136.789 256.658 136.914C256.703 137.039 256.717 137.173 256.701 137.304L256.645 137.734C256.642 137.768 256.649 137.802 256.665 137.831C256.682 137.861 256.707 137.884 256.737 137.899C256.768 137.913 256.802 137.918 256.836 137.912C256.869 137.906 256.899 137.89 256.923 137.866L257.221 137.551C257.313 137.456 257.426 137.383 257.55 137.339C257.675 137.294 257.808 137.279 257.94 137.295L258.37 137.351C258.403 137.355 258.437 137.348 258.466 137.331C258.496 137.314 258.519 137.289 258.533 137.259C258.548 137.228 258.553 137.194 258.547 137.161C258.541 137.128 258.525 137.097 258.502 137.074L258.495 137.068ZM256.272 138.207C256.243 138.174 256.218 138.139 256.197 138.102C256.126 137.973 256.097 137.833 256.106 137.688L256.165 137.237L256.166 137.215L255.89 137.796C255.861 137.807 255.826 137.819 255.785 137.832C255.606 137.887 255.422 137.927 255.237 137.951C254.778 138.011 254.171 137.995 253.547 137.699C252.924 137.403 252.526 136.942 252.283 136.549C252.165 136.359 252.067 136.156 251.99 135.946L252.64 134.577L253.499 136.036C253.636 136.269 253.839 136.454 254.083 136.57C254.326 136.686 254.599 136.726 254.866 136.685L255.665 136.562C255.609 136.482 255.572 136.391 255.554 136.295C255.538 136.208 255.539 136.118 255.557 136.032L254.784 136.151C254.624 136.175 254.46 136.151 254.314 136.082C254.168 136.013 254.046 135.901 253.964 135.762L252.39 133.091L254.745 132.769C254.753 132.677 254.777 132.588 254.817 132.504C254.884 132.363 254.987 132.251 255.118 132.173L251.916 132.611C251.867 132.618 251.82 132.638 251.782 132.669C251.744 132.701 251.715 132.742 251.698 132.789L251.685 132.812L250.759 134.762C250.728 134.827 250.725 134.901 250.749 134.969C250.773 135.036 250.823 135.091 250.887 135.122C250.952 135.152 251.026 135.156 251.093 135.132C251.161 135.108 251.216 135.058 251.247 134.994L251.977 133.454L252.308 134.015L251.457 135.81C251.429 135.868 251.423 135.934 251.44 135.996L251.441 135.998L251.442 136.003L251.446 136.018L251.462 136.07C251.477 136.114 251.498 136.175 251.528 136.25C251.589 136.4 251.684 136.606 251.825 136.833C252.106 137.287 252.574 137.834 253.316 138.186C254.058 138.538 254.778 138.555 255.307 138.485C255.572 138.451 255.791 138.395 255.946 138.347C256.024 138.322 256.102 138.294 256.178 138.263L256.192 138.257L256.197 138.255L256.198 138.254L256.199 138.254C256.226 138.242 256.25 138.226 256.271 138.206" fill="#4FAD42"/>
</g>
<path opacity="0.45" d="M282.319 40.6711C282.382 40.6073 282.463 40.5645 282.55 40.5485C282.637 40.5326 282.727 40.5442 282.806 40.5818C282.885 40.6194 282.951 40.6812 282.993 40.7588C283.036 40.8364 283.054 40.926 283.045 41.0154L282.922 42.227C282.826 43.1769 282.934 44.1323 283.238 45.0266C283.543 45.9209 284.037 46.7326 284.687 47.4052L285.514 48.2626C285.575 48.3258 285.616 48.4071 285.629 48.4954C285.643 48.5837 285.63 48.6748 285.591 48.7563C285.553 48.8378 285.49 48.9058 285.413 48.9509C285.336 48.996 285.248 49.0162 285.16 49.0086L283.972 48.9099C283.041 48.8324 282.1 48.9628 281.214 49.2922C280.329 49.6217 279.52 50.1421 278.845 50.8173L277.985 51.6779C277.921 51.7417 277.84 51.7844 277.753 51.8004C277.666 51.8164 277.577 51.8048 277.498 51.7671C277.418 51.7295 277.353 51.6677 277.31 51.5901C277.268 51.5126 277.25 51.423 277.259 51.3335L277.381 50.1227C277.478 49.1728 277.37 48.2175 277.065 47.3232C276.76 46.4289 276.266 45.6172 275.617 44.9446L274.788 44.0867C274.727 44.0236 274.687 43.9423 274.673 43.854C274.659 43.7657 274.673 43.6746 274.711 43.5931C274.75 43.5116 274.812 43.4436 274.889 43.3985C274.966 43.3533 275.055 43.3332 275.143 43.3407L276.331 43.4398C277.262 43.5174 278.204 43.3869 279.089 43.0575C279.975 42.7281 280.783 42.2076 281.458 41.5324L282.319 40.6711Z" fill="#4FAD42"/>
</g>
<g filter="url(#filter0_d_475_3866)">
<rect x="287.639" y="62.1406" width="90" height="90" rx="45" transform="rotate(11.3873 287.639 62.1406)" fill="#E9FFE6"/>
<g clip-path="url(#clip1_475_3866)">
<path d="M320.769 123.919C321.078 123.981 321.378 123.782 321.44 123.473L323.436 113.567C325.46 103.514 318.952 93.7226 308.899 91.6978C308.397 91.5968 307.908 91.9217 307.807 92.4236L305.953 101.629C303.889 111.876 310.523 121.855 320.769 123.919Z" fill="#0B3F26"/>
<path d="M321.887 124.144C321.578 124.082 321.378 123.782 321.44 123.473L323.479 113.35C325.48 103.416 335.295 97.0142 345.228 99.0148C345.768 99.1235 346.125 99.6509 346.017 100.191L344.176 109.328C342.113 119.574 332.133 126.208 321.887 124.144Z" fill="#7BCB70"/>
<path d="M318.665 134.371C318.974 134.434 319.274 134.234 319.336 133.925L321.332 124.019C323.356 113.966 316.848 104.175 306.795 102.15C306.293 102.049 305.804 102.374 305.703 102.876L303.849 112.082C301.785 122.328 308.419 132.308 318.665 134.371Z" fill="#7BCB70"/>
<path d="M319.783 134.596C319.474 134.534 319.274 134.234 319.336 133.925L321.375 123.802C323.376 113.869 333.191 107.466 343.124 109.467C343.664 109.576 344.021 110.103 343.913 110.643L342.072 119.78C340.009 130.027 330.029 136.66 319.783 134.596Z" fill="#4FAD42"/>
</g>
</g>
<g opacity="0.55">
<circle cx="401.97" cy="352.23" r="1.97029" fill="#FF8C42"/>
<path d="M373.714 257.206L373.96 257.984C374.036 258.221 374.165 258.436 374.337 258.612C374.509 258.788 374.718 258.921 374.948 258.999L375.706 259.252L375.721 259.256C375.779 259.277 375.83 259.316 375.865 259.368C375.901 259.42 375.92 259.482 375.92 259.546C375.92 259.61 375.901 259.672 375.865 259.724C375.83 259.776 375.779 259.815 375.721 259.836L374.964 260.089C374.733 260.167 374.524 260.299 374.352 260.476C374.18 260.652 374.051 260.867 373.975 261.104L373.729 261.881C373.708 261.941 373.67 261.993 373.62 262.03C373.569 262.067 373.509 262.087 373.447 262.087C373.385 262.087 373.325 262.067 373.274 262.03C373.224 261.993 373.186 261.941 373.165 261.881L372.919 261.104C372.843 260.866 372.714 260.65 372.543 260.473C372.371 260.296 372.161 260.163 371.93 260.084L371.173 259.832C371.114 259.81 371.064 259.771 371.028 259.719C370.992 259.667 370.973 259.605 370.973 259.542C370.973 259.478 370.992 259.416 371.028 259.364C371.064 259.312 371.114 259.273 371.173 259.252L371.93 258.999C372.158 258.919 372.364 258.785 372.533 258.609C372.702 258.433 372.829 258.219 372.903 257.984L373.149 257.206C373.17 257.146 373.208 257.094 373.259 257.057C373.309 257.02 373.37 257 373.432 257C373.494 257 373.554 257.02 373.605 257.057C373.656 257.094 373.694 257.145 373.714 257.206ZM377.181 262.969L376.64 262.789C376.476 262.733 376.326 262.638 376.203 262.512C376.081 262.386 375.988 262.232 375.933 262.063L375.758 261.508C375.743 261.465 375.716 261.428 375.68 261.401C375.644 261.375 375.601 261.361 375.557 261.361C375.512 261.361 375.469 261.375 375.433 261.401C375.397 261.428 375.37 261.465 375.355 261.508L375.179 262.063C375.125 262.231 375.034 262.384 374.914 262.509C374.793 262.635 374.646 262.731 374.484 262.789L373.943 262.969C373.902 262.984 373.866 263.013 373.841 263.05C373.815 263.087 373.802 263.131 373.802 263.176C373.802 263.221 373.815 263.266 373.841 263.303C373.866 263.34 373.902 263.368 373.943 263.383L374.484 263.564C374.649 263.621 374.798 263.716 374.921 263.842C375.044 263.969 375.136 264.123 375.191 264.292L375.366 264.847C375.38 264.89 375.408 264.927 375.444 264.954C375.48 264.98 375.523 264.994 375.567 264.994C375.612 264.994 375.655 264.98 375.691 264.954C375.727 264.927 375.754 264.89 375.769 264.847L375.945 264.292C376 264.123 376.092 263.97 376.214 263.844C376.337 263.718 376.486 263.623 376.651 263.566L377.191 263.386C377.233 263.371 377.269 263.343 377.294 263.306C377.319 263.269 377.333 263.224 377.333 263.179C377.333 263.134 377.319 263.09 377.294 263.053C377.269 263.015 377.233 262.987 377.191 262.972L377.181 262.969ZM370.62 258.454C370.798 258.454 370.973 258.468 371.143 258.498L370.938 258.566C370.796 258.617 370.667 258.701 370.56 258.811C370.454 258.92 370.373 259.053 370.322 259.199C369.889 259.253 369.477 259.424 369.129 259.695C368.78 259.965 368.508 260.326 368.339 260.74C368.17 261.154 368.111 261.607 368.167 262.052C368.224 262.497 368.394 262.919 368.66 263.275C368.927 263.631 369.28 263.907 369.684 264.077C370.089 264.247 370.529 264.304 370.962 264.242C371.394 264.18 371.803 264.001 372.147 263.724C372.49 263.447 372.757 263.082 372.918 262.665C373.001 262.718 373.089 262.756 373.181 262.779C373.125 262.903 373.096 263.042 373.096 263.18C373.096 263.337 373.132 263.491 373.206 263.628C373.173 263.674 373.14 263.72 373.105 263.765L375.817 266.553C375.884 266.622 375.921 266.714 375.921 266.811C375.921 266.907 375.883 266.999 375.817 267.067C375.784 267.101 375.745 267.128 375.702 267.146C375.659 267.164 375.613 267.174 375.567 267.174C375.473 267.174 375.383 267.135 375.317 267.067L372.606 264.278C372.209 264.604 371.742 264.828 371.244 264.93C370.746 265.032 370.231 265.01 369.743 264.866C369.254 264.722 368.807 264.46 368.437 264.101C368.068 263.742 367.788 263.298 367.62 262.805C367.451 262.312 367.401 261.785 367.471 261.268C367.542 260.751 367.732 260.259 368.026 259.833C368.32 259.407 368.709 259.059 369.16 258.819C369.611 258.579 370.112 258.454 370.62 258.454Z" fill="#FF8C42"/>
<g opacity="0.76" clip-path="url(#clip2_475_3866)">
<path d="M271.722 375.403L271.951 376.106C272.022 376.32 272.142 376.514 272.301 376.674C272.461 376.833 272.655 376.953 272.869 377.024L273.573 377.252L273.587 377.256C273.641 377.275 273.688 377.311 273.721 377.358C273.755 377.404 273.772 377.461 273.772 377.518C273.772 377.576 273.755 377.632 273.721 377.679C273.688 377.726 273.641 377.761 273.587 377.78L272.884 378.009C272.669 378.079 272.475 378.199 272.315 378.358C272.156 378.518 272.036 378.712 271.965 378.926L271.736 379.629C271.717 379.683 271.682 379.73 271.635 379.763C271.588 379.797 271.532 379.814 271.474 379.814C271.417 379.814 271.361 379.797 271.314 379.763C271.267 379.73 271.231 379.683 271.212 379.629L270.984 378.926C270.913 378.711 270.793 378.516 270.634 378.356C270.474 378.196 270.279 378.076 270.065 378.005L269.361 377.776C269.306 377.757 269.259 377.722 269.226 377.675C269.193 377.628 269.175 377.572 269.175 377.514C269.175 377.457 269.193 377.401 269.226 377.354C269.259 377.307 269.306 377.271 269.361 377.252L270.065 377.024C270.276 376.951 270.468 376.83 270.625 376.671C270.782 376.512 270.9 376.319 270.969 376.106L271.198 375.403C271.217 375.349 271.252 375.302 271.299 375.268C271.346 375.235 271.402 375.217 271.46 375.217C271.518 375.217 271.574 375.235 271.621 375.268C271.668 375.302 271.703 375.348 271.722 375.403ZM274.944 380.612L274.441 380.449C274.288 380.398 274.15 380.313 274.036 380.199C273.922 380.085 273.836 379.946 273.785 379.793L273.622 379.291C273.608 379.253 273.583 379.219 273.549 379.195C273.516 379.171 273.476 379.159 273.435 379.159C273.393 379.159 273.353 379.171 273.32 379.195C273.286 379.219 273.261 379.253 273.247 379.291L273.083 379.793C273.033 379.945 272.949 380.083 272.837 380.197C272.725 380.31 272.588 380.397 272.438 380.449L271.935 380.612C271.897 380.626 271.863 380.651 271.84 380.685C271.816 380.718 271.804 380.758 271.804 380.799C271.804 380.84 271.816 380.88 271.84 380.914C271.863 380.947 271.897 380.973 271.935 380.986L272.438 381.15C272.591 381.201 272.73 381.287 272.844 381.401C272.958 381.516 273.044 381.655 273.094 381.808L273.257 382.31C273.271 382.349 273.296 382.382 273.33 382.406C273.363 382.43 273.403 382.443 273.444 382.443C273.486 382.443 273.526 382.43 273.559 382.406C273.593 382.382 273.618 382.349 273.632 382.31L273.795 381.808C273.846 381.655 273.932 381.516 274.046 381.403C274.16 381.289 274.298 381.203 274.451 381.152L274.954 380.989C274.992 380.975 275.025 380.95 275.049 380.916C275.072 380.883 275.085 380.843 275.085 380.802C275.085 380.761 275.072 380.721 275.049 380.688C275.025 380.654 274.992 380.629 274.954 380.615L274.944 380.612ZM273.093 383.024C273.045 383.003 272.999 382.978 272.956 382.948C272.811 382.843 272.706 382.705 272.641 382.54L272.47 382.014L272.459 381.989V382.772C272.433 382.799 272.401 382.83 272.362 382.866C272.194 383.02 272.013 383.16 271.822 383.283C271.349 383.588 270.672 383.887 269.832 383.887C268.994 383.887 268.315 383.588 267.843 383.283C267.613 383.135 267.4 382.964 267.206 382.772V380.929L268.912 382.085C269.184 382.269 269.504 382.367 269.833 382.367C270.161 382.367 270.481 382.269 270.753 382.085L271.567 381.533C271.465 381.473 271.376 381.393 271.306 381.296C271.243 381.209 271.198 381.11 271.172 381.006L270.385 381.54C270.222 381.65 270.029 381.71 269.832 381.71C269.635 381.71 269.443 381.65 269.28 381.54L266.156 379.425L268.578 377.843C268.538 377.737 268.518 377.626 268.519 377.513C268.519 377.324 268.573 377.146 268.676 376.993L265.384 379.145C265.334 379.178 265.293 379.224 265.267 379.279C265.242 379.333 265.231 379.394 265.237 379.454L265.235 379.486V382.113C265.235 382.201 265.269 382.284 265.331 382.346C265.393 382.407 265.476 382.442 265.563 382.442C265.65 382.442 265.734 382.407 265.795 382.346C265.857 382.284 265.892 382.201 265.892 382.113V380.039L266.548 380.484V382.901C266.548 382.979 266.576 383.055 266.627 383.114L266.629 383.117L266.632 383.121L266.646 383.135L266.69 383.184C266.73 383.225 266.785 383.281 266.857 383.348C267.002 383.481 267.214 383.658 267.488 383.834C268.033 384.186 268.833 384.543 269.832 384.543C270.832 384.543 271.632 384.186 272.178 383.834C272.451 383.658 272.663 383.481 272.807 383.348C272.881 383.28 272.952 383.209 273.019 383.135L273.032 383.121L273.036 383.117L273.037 383.115L273.038 383.114C273.061 383.087 273.079 383.057 273.092 383.024" fill="#FF8C42"/>
</g>
<path opacity="0.45" d="M249.62 261.268C249.65 261.183 249.705 261.11 249.777 261.058C249.849 261.006 249.934 260.979 250.022 260.979C250.11 260.979 250.195 261.006 250.267 261.058C250.339 261.11 250.394 261.183 250.424 261.268L250.832 262.415C251.152 263.315 251.66 264.131 252.318 264.809C252.977 265.486 253.772 266.007 254.646 266.337L255.762 266.757C255.844 266.787 255.915 266.843 255.966 266.917C256.016 266.991 256.043 267.079 256.043 267.169C256.043 267.26 256.016 267.348 255.966 267.422C255.915 267.495 255.844 267.552 255.762 267.582L254.646 268.002C253.772 268.332 252.977 268.853 252.318 269.53C251.66 270.208 251.152 271.024 250.832 271.924L250.424 273.07C250.394 273.155 250.339 273.228 250.267 273.28C250.195 273.332 250.11 273.359 250.022 273.359C249.934 273.359 249.849 273.332 249.777 273.28C249.705 273.228 249.65 273.155 249.62 273.07L249.212 271.924C248.892 271.024 248.384 270.208 247.726 269.53C247.067 268.853 246.272 268.332 245.397 268.002L244.281 267.582C244.199 267.552 244.128 267.495 244.077 267.422C244.027 267.348 244 267.26 244 267.169C244 267.079 244.027 266.991 244.077 266.917C244.128 266.843 244.199 266.787 244.281 266.757L245.397 266.337C246.272 266.007 247.067 265.486 247.726 264.809C248.384 264.131 248.892 263.315 249.212 262.415L249.62 261.268Z" fill="#FF8C42"/>
</g>
<g filter="url(#filter1_d_475_3866)">
<rect x="267.898" y="283.022" width="90" height="90" rx="45" transform="rotate(-14 267.898 283.022)" fill="#FFC097" fill-opacity="0.07" shape-rendering="crispEdges"/>
<g clip-path="url(#clip3_475_3866)">
<path d="M328.899 340.735L347.494 309.788L316.546 291.193L297.951 322.14L328.899 340.735Z" fill="#537A5A"/>
<path d="M344.659 329.336L335.925 294.304L300.893 303.038L309.627 338.07L344.659 329.336Z" fill="#FF8C42"/>
<path d="M333.474 322.634L329.195 305.472L312.032 309.751L316.311 326.913L333.474 322.634Z" fill="#0B3F26"/>
</g>
</g>
<g opacity="0.55">
<circle cx="238.015" cy="201.302" r="2.39753" transform="rotate(-31.5259 238.015 201.302)" fill="#A1C4DC"/>
<path d="M147.619 121.098L148.369 121.738C148.598 121.932 148.87 122.069 149.162 122.139C149.454 122.209 149.759 122.209 150.051 122.14L151.011 121.909L151.029 121.904C151.104 121.888 151.182 121.896 151.253 121.926C151.323 121.956 151.383 122.007 151.423 122.073C151.463 122.138 151.482 122.214 151.477 122.291C151.471 122.367 151.443 122.44 151.394 122.5L150.755 123.25C150.56 123.479 150.423 123.751 150.353 124.043C150.282 124.335 150.281 124.64 150.35 124.933L150.58 125.891C150.596 125.965 150.589 126.044 150.559 126.114C150.528 126.185 150.477 126.244 150.412 126.284C150.346 126.324 150.27 126.343 150.194 126.338C150.117 126.333 150.044 126.304 149.985 126.256L149.235 125.617C149.005 125.422 148.733 125.283 148.44 125.213C148.147 125.142 147.842 125.141 147.549 125.21L146.589 125.441C146.514 125.457 146.436 125.45 146.366 125.419C146.295 125.389 146.236 125.338 146.196 125.273C146.156 125.207 146.137 125.131 146.142 125.055C146.147 124.978 146.176 124.905 146.224 124.846L146.865 124.095C147.055 123.865 147.188 123.595 147.256 123.304C147.323 123.014 147.322 122.712 147.253 122.422L147.023 121.464C147.006 121.389 147.014 121.311 147.044 121.24C147.074 121.169 147.125 121.11 147.191 121.07C147.257 121.029 147.333 121.011 147.41 121.016C147.486 121.021 147.559 121.049 147.619 121.098ZM154.91 124.772L154.226 124.937C154.017 124.986 153.799 124.985 153.59 124.935C153.381 124.885 153.187 124.787 153.022 124.649L152.487 124.193C152.445 124.158 152.393 124.138 152.338 124.134C152.283 124.13 152.229 124.144 152.182 124.172C152.135 124.201 152.099 124.243 152.077 124.294C152.056 124.344 152.05 124.4 152.062 124.454L152.225 125.138C152.274 125.345 152.275 125.561 152.227 125.768C152.179 125.976 152.084 126.169 151.949 126.334L151.492 126.869C151.458 126.912 151.437 126.964 151.434 127.018C151.431 127.073 151.444 127.127 151.473 127.173C151.501 127.22 151.543 127.256 151.593 127.278C151.644 127.3 151.699 127.305 151.752 127.294L152.437 127.13C152.647 127.081 152.865 127.082 153.074 127.132C153.283 127.183 153.478 127.281 153.642 127.42L154.177 127.877C154.22 127.911 154.272 127.932 154.327 127.935C154.381 127.939 154.436 127.926 154.482 127.897C154.529 127.868 154.566 127.826 154.587 127.775C154.609 127.725 154.614 127.669 154.603 127.616L154.439 126.932C154.39 126.722 154.391 126.505 154.441 126.296C154.491 126.087 154.589 125.893 154.727 125.729L155.184 125.193C155.218 125.151 155.238 125.099 155.242 125.044C155.245 124.99 155.232 124.936 155.203 124.889C155.175 124.843 155.132 124.806 155.082 124.784C155.032 124.763 154.977 124.757 154.923 124.768L154.91 124.772ZM145.138 124.384C145.326 124.268 145.52 124.17 145.718 124.09L145.544 124.293C145.427 124.438 145.343 124.608 145.3 124.789C145.256 124.97 145.254 125.159 145.293 125.342C144.869 125.678 144.542 126.121 144.345 126.624C144.148 127.128 144.087 127.675 144.17 128.21C144.252 128.744 144.475 129.248 144.815 129.668C145.155 130.089 145.601 130.412 146.106 130.605C146.612 130.798 147.159 130.853 147.693 130.766C148.227 130.678 148.728 130.451 149.146 130.107C149.563 129.764 149.883 129.315 150.071 128.808C150.259 128.301 150.31 127.753 150.218 127.22C150.339 127.221 150.455 127.204 150.568 127.168C150.586 127.331 150.643 127.492 150.73 127.634C150.83 127.796 150.964 127.93 151.128 128.023C151.123 128.092 151.116 128.161 151.108 128.229L155.729 129.336C155.842 129.364 155.939 129.434 156 129.533C156.061 129.633 156.08 129.752 156.052 129.865C156.039 129.92 156.015 129.973 155.981 130.02C155.947 130.066 155.904 130.106 155.855 130.136C155.756 130.196 155.637 130.215 155.524 130.188L150.905 129.08C150.691 129.672 150.338 130.204 149.877 130.632C149.415 131.059 148.858 131.37 148.251 131.538C147.645 131.706 147.007 131.727 146.391 131.598C145.775 131.469 145.199 131.194 144.711 130.797C144.223 130.399 143.838 129.891 143.587 129.314C143.335 128.737 143.226 128.108 143.268 127.48C143.31 126.852 143.501 126.244 143.827 125.705C144.152 125.166 144.602 124.713 145.138 124.384Z" fill="#A1C4DC"/>
<g opacity="0.76" clip-path="url(#clip4_475_3866)">
<path d="M114.614 310.078L115.299 310.662C115.508 310.839 115.757 310.964 116.023 311.028C116.29 311.092 116.568 311.092 116.835 311.029L117.711 310.818L117.727 310.814C117.796 310.799 117.867 310.806 117.931 310.833C117.996 310.861 118.05 310.908 118.087 310.967C118.123 311.027 118.14 311.097 118.136 311.167C118.131 311.236 118.105 311.303 118.061 311.357L117.477 312.042C117.3 312.251 117.174 312.5 117.11 312.766C117.046 313.033 117.045 313.311 117.107 313.578L117.318 314.453C117.332 314.521 117.325 314.592 117.298 314.657C117.27 314.721 117.223 314.775 117.164 314.812C117.104 314.848 117.035 314.866 116.965 314.861C116.895 314.856 116.828 314.83 116.774 314.786L116.09 314.203C115.88 314.025 115.632 313.898 115.364 313.834C115.097 313.769 114.818 313.769 114.55 313.831L113.675 314.042C113.606 314.057 113.535 314.05 113.471 314.023C113.406 313.995 113.352 313.948 113.316 313.889C113.279 313.829 113.262 313.759 113.266 313.69C113.271 313.62 113.297 313.553 113.341 313.499L113.926 312.814C114.099 312.604 114.221 312.357 114.283 312.092C114.344 311.827 114.343 311.551 114.28 311.287L114.07 310.412C114.055 310.344 114.062 310.272 114.09 310.208C114.117 310.143 114.164 310.089 114.224 310.052C114.284 310.015 114.353 309.998 114.423 310.003C114.493 310.007 114.56 310.033 114.614 310.078ZM121.27 313.431L120.645 313.582C120.454 313.627 120.256 313.626 120.065 313.581C119.874 313.535 119.697 313.446 119.547 313.32L119.059 312.903C119.02 312.871 118.972 312.852 118.922 312.849C118.872 312.846 118.823 312.858 118.78 312.884C118.737 312.91 118.704 312.949 118.684 312.995C118.665 313.041 118.66 313.092 118.67 313.141L118.819 313.766C118.864 313.955 118.864 314.152 118.821 314.341C118.777 314.53 118.69 314.707 118.567 314.857L118.149 315.346C118.118 315.385 118.1 315.432 118.097 315.482C118.094 315.532 118.106 315.581 118.132 315.624C118.158 315.666 118.197 315.699 118.243 315.719C118.288 315.739 118.339 315.744 118.388 315.734L119.013 315.584C119.204 315.54 119.403 315.54 119.594 315.586C119.785 315.632 119.963 315.722 120.113 315.849L120.601 316.266C120.64 316.297 120.687 316.316 120.737 316.319C120.787 316.323 120.837 316.31 120.88 316.284C120.922 316.258 120.956 316.219 120.975 316.173C120.995 316.127 121 316.076 120.989 316.027L120.84 315.403C120.795 315.212 120.796 315.013 120.842 314.823C120.887 314.632 120.977 314.455 121.103 314.305L121.52 313.816C121.551 313.777 121.57 313.73 121.573 313.68C121.576 313.63 121.564 313.581 121.537 313.538C121.511 313.496 121.473 313.463 121.427 313.443C121.382 313.423 121.331 313.418 121.282 313.428L121.27 313.431ZM120.885 317.111C120.822 317.12 120.758 317.123 120.694 317.119C120.478 317.102 120.281 317.026 120.108 316.897L119.596 316.459L119.569 316.44L120.067 317.253C120.057 317.297 120.044 317.35 120.026 317.412C119.951 317.679 119.852 317.939 119.731 318.189C119.435 318.806 118.923 319.547 118.052 320.081C117.182 320.615 116.288 320.736 115.604 320.72C115.272 320.713 114.942 320.671 114.618 320.595L113.445 318.683L115.951 318.797C116.35 318.814 116.745 318.712 117.085 318.504C117.425 318.295 117.695 317.989 117.86 317.625L118.354 316.535C118.209 316.538 118.066 316.511 117.932 316.456C117.812 316.405 117.702 316.332 117.609 316.24L117.132 317.295C117.033 317.513 116.871 317.697 116.666 317.822C116.462 317.947 116.225 318.009 115.986 317.998L111.4 317.792L112.905 314.609C112.797 314.525 112.705 314.422 112.634 314.306C112.513 314.109 112.457 313.889 112.466 313.665L110.421 317.992C110.39 318.059 110.377 318.132 110.385 318.205C110.393 318.278 110.421 318.347 110.465 318.406L110.483 318.441L112.155 321.166C112.21 321.257 112.299 321.321 112.402 321.346C112.506 321.371 112.614 321.353 112.704 321.298C112.795 321.242 112.859 321.153 112.884 321.05C112.909 320.947 112.892 320.839 112.836 320.748L111.517 318.597L112.481 318.64L114.018 321.147C114.068 321.228 114.145 321.289 114.236 321.318L114.24 321.32L114.246 321.322L114.268 321.329L114.346 321.351C114.412 321.368 114.506 321.391 114.623 321.415C114.858 321.461 115.19 321.509 115.586 321.518C116.376 321.536 117.433 321.398 118.47 320.762C119.507 320.125 120.109 319.246 120.451 318.534C120.622 318.177 120.73 317.859 120.795 317.629C120.828 317.511 120.856 317.393 120.88 317.273L120.883 317.25L120.885 317.244L120.885 317.241L120.885 317.24C120.892 317.197 120.892 317.153 120.884 317.111" fill="#A1C4DC"/>
</g>
<path opacity="0.45" d="M19.1475 205.648C19.1257 205.542 19.1372 205.431 19.1805 205.331C19.2237 205.232 19.2966 205.148 19.3893 205.091C19.4819 205.034 19.5898 205.007 19.6983 205.014C19.8068 205.02 19.9106 205.06 19.9956 205.128L21.1497 206.042C22.0546 206.758 23.1048 207.268 24.2271 207.537C25.3494 207.806 26.5168 207.827 27.648 207.599L29.09 207.308C29.1965 207.286 29.3071 207.297 29.4068 207.341C29.5065 207.384 29.5905 207.457 29.6473 207.549C29.7042 207.642 29.7311 207.75 29.7245 207.858C29.7178 207.967 29.6779 208.071 29.6102 208.156L28.6974 209.309C27.9811 210.214 27.4707 211.264 27.2018 212.387C26.9329 213.509 26.912 214.676 27.1404 215.808L27.4314 217.25C27.4532 217.356 27.4417 217.467 27.3984 217.566C27.3552 217.666 27.2823 217.75 27.1896 217.807C27.097 217.864 26.9891 217.891 26.8806 217.884C26.7721 217.877 26.6683 217.837 26.5832 217.77L25.4297 216.857C24.5248 216.141 23.4747 215.63 22.3524 215.361C21.2301 215.092 20.0627 215.072 18.9314 215.3L17.4885 215.591C17.3821 215.613 17.2715 215.602 17.1717 215.559C17.072 215.515 16.988 215.442 16.9312 215.35C16.8744 215.257 16.8474 215.149 16.8541 215.041C16.8607 214.932 16.9006 214.828 16.9683 214.743L17.8821 213.589C18.5983 212.684 19.1087 211.634 19.3776 210.512C19.6465 209.39 19.6675 208.222 19.4391 207.091L19.1475 205.648Z" fill="#A1C4DC"/>
</g>
<g filter="url(#filter2_d_475_3866)">
<rect x="60.1309" y="180.979" width="107.752" height="107.752" rx="52.0543" transform="rotate(-17.5259 60.1309 180.979)" fill="#19547C" fill-opacity="0.07" shape-rendering="crispEdges"/>
<g clip-path="url(#clip5_475_3866)">
<path d="M99.4481 222.251C98.8761 220.44 99.8805 218.508 101.692 217.936L116.805 213.163C118.616 212.591 120.549 213.596 121.121 215.407L128.943 240.178L107.27 247.022L99.4481 222.251Z" fill="#19547C"/>
<path d="M130.745 211.161C136.15 209.454 139.149 203.688 137.442 198.282C135.734 192.876 129.968 189.878 124.562 191.585C119.157 193.292 116.159 199.058 117.866 204.464C119.573 209.87 125.339 212.868 130.745 211.161Z" fill="#19547C"/>
<path d="M146.604 234.6C142.824 222.631 130.056 215.991 118.087 219.771C106.118 223.551 99.4786 236.319 103.258 248.289" fill="#19547C"/>
<path d="M149.061 183.85L163.412 229.294" stroke="#19547C" stroke-width="2.52994" stroke-miterlimit="10"/>
<path d="M154.995 231.952C151.215 219.983 138.447 213.343 126.478 217.123C114.509 220.902 107.87 233.671 111.65 245.64" fill="#A1C4DC"/>
</g>
</g>
<defs>
<filter id="filter0_d_475_3866" x="258.356" y="55.6647" width="129.023" height="129.024" filterUnits="userSpaceOnUse" color-interpolation-filters="sRGB">
<feFlood flood-opacity="0" result="BackgroundImageFix"/>
<feColorMatrix in="SourceAlpha" type="matrix" values="0 0 0 0 0 0 0 0 0 0 0 0 0 0 0 0 0 0 127 0" result="hardAlpha"/>
<feOffset dy="5.03683"/>
<feGaussianBlur stdDeviation="5.75638"/>
<feComposite in2="hardAlpha" operator="out"/>
<feColorMatrix type="matrix" values="0 0 0 0 0.482353 0 0 0 0 0.796078 0 0 0 0 0.439216 0 0 0 0.6 0"/>
<feBlend mode="normal" in2="BackgroundImageFix" result="effect1_dropShadow_475_3866"/>
<feBlend mode="normal" in="SourceGraphic" in2="effect1_dropShadow_475_3866" result="shape"/>
</filter>
<filter id="filter1_d_475_3866" x="253.887" y="253.368" width="137.122" height="137.122" filterUnits="userSpaceOnUse" color-interpolation-filters="sRGB">
<feFlood flood-opacity="0" result="BackgroundImageFix"/>
<feColorMatrix in="SourceAlpha" type="matrix" values="0 0 0 0 0 0 0 0 0 0 0 0 0 0 0 0 0 0 127 0" result="hardAlpha"/>
<feOffset dy="6.1298"/>
<feGaussianBlur stdDeviation="7.00548"/>
<feComposite in2="hardAlpha" operator="out"/>
<feColorMatrix type="matrix" values="0 0 0 0 1 0 0 0 0 0.54902 0 0 0 0 0.258824 0 0 0 0.3 0"/>
<feBlend mode="normal" in2="BackgroundImageFix" result="effect1_dropShadow_475_3866"/>
<feBlend mode="normal" in="SourceGraphic" in2="effect1_dropShadow_475_3866" result="shape"/>
</filter>
<filter id="filter2_d_475_3866" x="43.0818" y="138.941" width="169.297" height="169.297" filterUnits="userSpaceOnUse" color-interpolation-filters="sRGB">
<feFlood flood-opacity="0" result="BackgroundImageFix"/>
<feColorMatrix in="SourceAlpha" type="matrix" values="0 0 0 0 0 0 0 0 0 0 0 0 0 0 0 0 0 0 127 0" result="hardAlpha"/>
<feOffset dy="7.45897"/>
<feGaussianBlur stdDeviation="8.52454"/>
<feComposite in2="hardAlpha" operator="out"/>
<feColorMatrix type="matrix" values="0 0 0 0 0.0980392 0 0 0 0 0.329412 0 0 0 0 0.486275 0 0 0 0.3 0"/>
<feBlend mode="normal" in2="BackgroundImageFix" result="effect1_dropShadow_475_3866"/>
<feBlend mode="normal" in="SourceGraphic" in2="effect1_dropShadow_475_3866" result="shape"/>
</filter>
<clipPath id="clip0_475_3866">
<rect width="8.63457" height="8.63457" fill="white" transform="translate(252.702 129.412) rotate(25.3873)"/>
</clipPath>
<clipPath id="clip1_475_3866">
<rect width="40.5755" height="40.5755" fill="white" transform="translate(307.171 91.3496) rotate(11.3873)"/>
</clipPath>
<clipPath id="clip2_475_3866">
<rect width="10.5082" height="10.5082" fill="white" transform="translate(264.579 375.217)"/>
</clipPath>
<clipPath id="clip3_475_3866">
<rect width="51.384" height="51.384" fill="white" transform="translate(291.382 297.133) rotate(-14)"/>
</clipPath>
<clipPath id="clip4_475_3866">
<rect width="12.7868" height="12.7868" fill="white" transform="translate(107.086 314.431) rotate(-31.5259)"/>
</clipPath>
<clipPath id="clip5_475_3866">
<rect width="65.5543" height="65.5543" fill="white" transform="translate(86.2998 194.587) rotate(-17.5259)"/>
</clipPath>
</defs>
</svg>
