<svg width="435" height="406" viewBox="0 0 435 406" fill="none" xmlns="http://www.w3.org/2000/svg">
<g opacity="0.55">
<circle cx="405.116" cy="97.2119" r="1.71386" transform="rotate(-30.856 405.116 97.2119)" fill="#A1C4DC"/>
<path d="M355.823 30.8016L356.433 31.3435C356.62 31.5076 356.841 31.626 357.079 31.6893C357.316 31.7526 357.564 31.7591 357.802 31.7081L358.582 31.5366L358.597 31.5328C358.658 31.5209 358.722 31.5287 358.779 31.5549C358.836 31.5812 358.885 31.6246 358.917 31.6792C358.95 31.7338 358.965 31.797 358.961 31.8599C358.957 31.9228 358.934 31.9824 358.894 32.0305L358.374 32.6358C358.217 32.8211 358.105 33.0422 358.048 33.2816C357.991 33.521 357.99 33.7719 358.046 34.0143L358.234 34.8079C358.247 34.87 358.241 34.9342 358.216 34.9917C358.192 35.0491 358.15 35.097 358.097 35.1288C358.044 35.1605 357.982 35.1745 357.92 35.1689C357.857 35.1632 357.798 35.1382 357.749 35.0972L357.14 34.5559C356.953 34.3908 356.731 34.2715 356.493 34.2076C356.255 34.1437 356.006 34.1369 355.768 34.1879L354.988 34.3594C354.927 34.3712 354.863 34.3635 354.806 34.3372C354.749 34.311 354.7 34.2676 354.668 34.213C354.635 34.1583 354.62 34.0952 354.624 34.0323C354.628 33.9693 354.651 33.9097 354.69 33.8617L355.211 33.256C355.365 33.0704 355.474 32.85 355.529 32.6122C355.583 32.3744 355.582 32.1256 355.526 31.8854L355.338 31.0919C355.325 31.0297 355.331 30.9652 355.355 30.9075C355.38 30.8499 355.422 30.8018 355.475 30.7699C355.528 30.7381 355.59 30.7241 355.653 30.7299C355.715 30.7357 355.774 30.7603 355.823 30.8016ZM361.755 33.9713L361.198 34.0939C361.028 34.13 360.851 34.1252 360.681 34.08C360.511 34.0347 360.353 33.9502 360.219 33.8332L359.784 33.4466C359.749 33.4172 359.707 33.3993 359.663 33.3952C359.618 33.3911 359.574 33.4011 359.536 33.4238C359.498 33.4465 359.468 33.4808 359.451 33.5219C359.433 33.563 359.429 33.6089 359.438 33.6532L359.571 34.2204C359.611 34.392 359.612 34.5696 359.573 34.7395C359.534 34.9094 359.457 35.0669 359.347 35.1999L358.975 35.6318C358.948 35.6663 358.931 35.7088 358.929 35.7536C358.926 35.7984 358.937 35.8433 358.96 35.8822C358.983 35.921 359.018 35.952 359.058 35.9708C359.099 35.9897 359.144 35.9954 359.188 35.9874L359.745 35.8654C359.915 35.8294 360.093 35.8344 360.263 35.8799C360.433 35.9255 360.591 36.0104 360.725 36.1279L361.16 36.5146C361.195 36.5439 361.237 36.5619 361.282 36.5659C361.326 36.57 361.37 36.56 361.408 36.5373C361.446 36.5146 361.476 36.4804 361.494 36.4393C361.511 36.3982 361.515 36.3523 361.506 36.308L361.372 35.7411C361.333 35.5679 361.333 35.3887 361.374 35.2177C361.414 35.0467 361.494 34.8886 361.606 34.7559L361.978 34.3239C362.006 34.2894 362.022 34.2469 362.025 34.2021C362.027 34.1573 362.016 34.1124 361.993 34.0736C361.97 34.0347 361.936 34.0037 361.895 33.9849C361.854 33.9661 361.809 33.9603 361.765 33.9683L361.755 33.9713ZM353.807 33.4602C353.96 33.3686 354.117 33.2917 354.278 33.2294L354.137 33.3932C354.042 33.5103 353.974 33.6483 353.939 33.7969C353.903 33.9455 353.902 34.1011 353.933 34.2522C353.589 34.521 353.323 34.8791 353.163 35.2902C353.003 35.7013 352.954 36.1507 353.021 36.5927C353.089 37.0348 353.27 37.4537 353.547 37.8069C353.824 38.1602 354.186 38.4351 354.597 38.6038C355.008 38.7726 355.454 38.8291 355.888 38.7676C356.322 38.7061 356.729 38.5288 357.069 38.2537C357.408 37.9787 357.668 37.6157 357.821 37.2016C357.974 36.7875 358.015 36.3371 357.939 35.8961C358.038 35.8993 358.133 35.8872 358.224 35.8598C358.239 35.9949 358.286 36.1285 358.357 36.247C358.437 36.3824 358.547 36.4955 358.681 36.5757C358.676 36.6322 358.671 36.6886 358.664 36.7448L362.423 37.7475C362.515 37.7721 362.594 37.8324 362.643 37.9152C362.693 37.998 362.708 38.0965 362.686 38.189C362.675 38.2348 362.656 38.2778 362.628 38.3155C362.601 38.3531 362.566 38.3848 362.526 38.4085C362.445 38.4566 362.349 38.4698 362.257 38.4452L358.499 37.4417C358.325 37.9251 358.039 38.3565 357.664 38.6998C357.289 39.0431 356.835 39.2883 356.342 39.4149C355.849 39.5415 355.33 39.5458 354.83 39.4274C354.329 39.309 353.86 39.0715 353.463 38.7346C353.066 38.3977 352.752 37.9712 352.547 37.491C352.343 37.0107 352.254 36.4906 352.287 35.9741C352.321 35.4577 352.477 34.96 352.741 34.5226C353.005 34.0852 353.371 33.7209 353.807 33.4602Z" fill="#A1C4DC"/>
<g opacity="0.76" clip-path="url(#clip0_475_3812)">
<path d="M317.183 171.501L317.667 171.925C317.816 172.053 317.992 172.144 318.182 172.192C318.372 172.24 318.571 172.243 318.762 172.2L319.39 172.057L319.402 172.053C319.451 172.044 319.502 172.049 319.548 172.069C319.594 172.089 319.632 172.123 319.658 172.166C319.683 172.209 319.695 172.259 319.691 172.309C319.687 172.359 319.668 172.406 319.636 172.445L319.213 172.929C319.084 173.078 318.992 173.254 318.944 173.444C318.896 173.634 318.893 173.833 318.936 174.024L319.079 174.651C319.089 174.7 319.083 174.751 319.063 174.797C319.043 174.843 319.009 174.881 318.966 174.907C318.923 174.932 318.873 174.944 318.823 174.94C318.773 174.936 318.726 174.917 318.687 174.885L318.203 174.462C318.055 174.333 317.878 174.241 317.688 174.193C317.497 174.144 317.298 174.141 317.106 174.184L316.478 174.327C316.429 174.337 316.378 174.332 316.333 174.312C316.287 174.291 316.248 174.257 316.223 174.214C316.197 174.172 316.185 174.122 316.189 174.072C316.193 174.022 316.212 173.974 316.244 173.936L316.668 173.451C316.794 173.303 316.883 173.127 316.929 172.938C316.975 172.749 316.977 172.552 316.934 172.363L316.791 171.736C316.781 171.687 316.787 171.636 316.807 171.59C316.827 171.544 316.861 171.505 316.904 171.48C316.947 171.454 316.997 171.442 317.047 171.446C317.097 171.45 317.144 171.469 317.183 171.501ZM321.913 173.954L321.465 174.057C321.328 174.087 321.186 174.085 321.05 174.051C320.914 174.017 320.788 173.951 320.682 173.86L320.336 173.558C320.309 173.535 320.275 173.521 320.239 173.518C320.203 173.515 320.168 173.524 320.137 173.542C320.106 173.561 320.082 173.588 320.068 173.621C320.053 173.653 320.049 173.69 320.057 173.725L320.158 174.173C320.188 174.308 320.187 174.449 320.154 174.584C320.121 174.719 320.058 174.844 319.968 174.951L319.666 175.296C319.643 175.324 319.63 175.358 319.627 175.393C319.625 175.429 319.633 175.464 319.651 175.495C319.67 175.525 319.697 175.55 319.729 175.564C319.762 175.579 319.798 175.583 319.833 175.576L320.281 175.474C320.418 175.444 320.56 175.446 320.697 175.48C320.833 175.515 320.959 175.581 321.065 175.672L321.411 175.974C321.438 175.997 321.472 176.011 321.508 176.014C321.543 176.017 321.579 176.008 321.61 175.99C321.64 175.972 321.664 175.944 321.679 175.912C321.693 175.879 321.697 175.842 321.69 175.807L321.588 175.36C321.558 175.223 321.56 175.081 321.595 174.945C321.629 174.809 321.694 174.683 321.786 174.577L322.088 174.231C322.111 174.204 322.124 174.17 322.127 174.134C322.129 174.099 322.121 174.063 322.103 174.033C322.084 174.002 322.057 173.978 322.025 173.964C321.992 173.949 321.956 173.945 321.921 173.952L321.913 173.954ZM321.607 176.581C321.561 176.587 321.516 176.588 321.47 176.586C321.315 176.572 321.175 176.515 321.053 176.422L320.69 176.105L320.671 176.091L321.021 176.676C321.013 176.707 321.003 176.745 320.99 176.789C320.934 176.979 320.861 177.164 320.773 177.342C320.556 177.78 320.184 178.306 319.557 178.68C318.93 179.055 318.29 179.134 317.802 179.117C317.564 179.109 317.329 179.076 317.098 179.019L316.276 177.643L318.065 177.745C318.35 177.761 318.634 177.691 318.879 177.545C319.124 177.398 319.319 177.182 319.44 176.923L319.802 176.148C319.699 176.149 319.596 176.129 319.501 176.088C319.416 176.051 319.338 175.997 319.272 175.931L318.922 176.681C318.85 176.836 318.732 176.966 318.585 177.054C318.438 177.142 318.268 177.184 318.097 177.174L314.821 176.988L315.923 174.726C315.847 174.665 315.782 174.591 315.732 174.507C315.648 174.365 315.609 174.208 315.618 174.048L314.119 177.124C314.096 177.171 314.087 177.223 314.092 177.275C314.097 177.328 314.116 177.377 314.148 177.419L314.16 177.445L315.332 179.407C315.371 179.472 315.434 179.519 315.508 179.537C315.581 179.556 315.659 179.544 315.724 179.505C315.789 179.467 315.836 179.404 315.855 179.33C315.873 179.257 315.862 179.179 315.823 179.114L314.897 177.565L315.586 177.604L316.665 179.409C316.699 179.467 316.754 179.511 316.819 179.533L316.821 179.534L316.825 179.536L316.842 179.541L316.897 179.557C316.944 179.57 317.011 179.587 317.095 179.605C317.262 179.64 317.499 179.677 317.782 179.687C318.346 179.706 319.103 179.616 319.849 179.17C320.596 178.724 321.034 178.101 321.284 177.594C321.41 177.341 321.489 177.114 321.538 176.95C321.562 176.867 321.583 176.782 321.601 176.697L321.604 176.681L321.605 176.676L321.605 176.674L321.606 176.673C321.611 176.643 321.611 176.612 321.606 176.581" fill="#A1C4DC"/>
</g>
<path opacity="0.45" d="M251.377 97.9362C251.359 97.848 251.368 97.7571 251.403 97.6758C251.438 97.5945 251.498 97.5268 251.573 97.4818C251.648 97.4368 251.736 97.4167 251.824 97.4243C251.912 97.4319 251.997 97.4668 252.066 97.5242L253.005 98.2996C253.741 98.9074 254.596 99.3484 255.509 99.592C256.422 99.8355 257.371 99.8757 258.291 99.7097L259.464 99.4982C259.55 99.4824 259.64 99.494 259.721 99.5316C259.802 99.5692 259.871 99.6309 259.917 99.7083C259.963 99.7857 259.985 99.8752 259.98 99.9644C259.974 100.054 259.942 100.138 259.887 100.207L259.145 101.14C258.563 101.871 258.148 102.726 257.93 103.645C257.712 104.565 257.696 105.526 257.882 106.462L258.119 107.656C258.137 107.744 258.128 107.835 258.093 107.916C258.057 107.998 257.998 108.065 257.923 108.11C257.848 108.155 257.76 108.175 257.672 108.168C257.583 108.16 257.499 108.125 257.43 108.068L256.491 107.293C255.755 106.685 254.9 106.244 253.988 106.001C253.075 105.757 252.125 105.717 251.205 105.883L250.032 106.095C249.945 106.111 249.855 106.099 249.774 106.062C249.693 106.024 249.625 105.962 249.579 105.885C249.532 105.808 249.51 105.718 249.516 105.629C249.521 105.54 249.553 105.455 249.608 105.386L250.351 104.453C250.933 103.722 251.348 102.867 251.566 101.948C251.784 101.028 251.801 100.067 251.614 99.1305L251.377 97.9362Z" fill="#A1C4DC"/>
</g>
<g filter="url(#filter0_d_475_3812)">
<rect x="280.021" y="80.4673" width="90" height="90" rx="45" transform="rotate(-16.856 280.021 80.4673)" fill="#19547C" fill-opacity="0.07" shape-rendering="crispEdges"/>
<g clip-path="url(#clip1_475_3812)">
<path d="M315.261 114.299C314.868 113 315.602 111.627 316.901 111.233L327.744 107.948C329.043 107.554 330.416 108.289 330.81 109.588L336.194 127.359L320.646 132.07L315.261 114.299Z" fill="#19547C"/>
<path d="M337.724 106.634C341.602 105.459 343.793 101.362 342.618 97.4841C341.443 93.6057 337.346 91.4142 333.468 92.5893C329.59 93.7643 327.399 97.8608 328.574 101.739C329.749 105.617 333.845 107.809 337.724 106.634Z" fill="#19547C"/>
<path d="M348.865 123.521C346.263 114.933 337.191 110.081 328.605 112.683C320.018 115.284 315.165 124.356 317.767 132.943" fill="#19547C"/>
<path d="M351.045 87.2646L360.924 119.868" stroke="#19547C" stroke-width="1.80851" stroke-miterlimit="10"/>
<path d="M354.884 121.697C352.283 113.11 343.211 108.257 334.625 110.859C326.038 113.461 321.185 122.532 323.787 131.12" fill="#A1C4DC"/>
</g>
</g>
<g opacity="0.55">
<path d="M404.889 268.746L404.906 269.562C404.913 269.81 404.977 270.053 405.092 270.27C405.207 270.487 405.371 270.673 405.57 270.813L406.227 271.268L406.24 271.276C406.29 271.313 406.327 271.365 406.347 271.425C406.367 271.485 406.368 271.55 406.35 271.611C406.332 271.672 406.296 271.726 406.247 271.766C406.199 271.806 406.139 271.829 406.077 271.833L405.28 271.864C405.036 271.874 404.798 271.942 404.584 272.063C404.37 272.184 404.185 272.355 404.046 272.561L403.592 273.238C403.555 273.29 403.504 273.329 403.445 273.35C403.386 273.371 403.323 273.373 403.263 273.356C403.204 273.339 403.152 273.303 403.113 273.253C403.075 273.204 403.053 273.143 403.05 273.08L403.032 272.265C403.026 272.015 402.963 271.772 402.848 271.554C402.733 271.336 402.569 271.149 402.369 271.009L401.713 270.554C401.662 270.517 401.625 270.465 401.605 270.405C401.585 270.345 401.584 270.28 401.602 270.219C401.62 270.158 401.656 270.104 401.705 270.064C401.754 270.024 401.813 270.001 401.875 269.997L402.673 269.967C402.914 269.953 403.15 269.883 403.361 269.762C403.573 269.64 403.754 269.47 403.892 269.265L404.346 268.588C404.383 268.536 404.434 268.496 404.493 268.475C404.552 268.454 404.616 268.452 404.675 268.469C404.735 268.486 404.787 268.523 404.825 268.572C404.864 268.622 404.886 268.682 404.889 268.746ZM406.6 275.25L406.132 274.925C405.989 274.825 405.873 274.692 405.79 274.537C405.708 274.382 405.662 274.208 405.657 274.03L405.644 273.448C405.642 273.403 405.626 273.36 405.599 273.324C405.572 273.289 405.534 273.263 405.492 273.251C405.45 273.239 405.404 273.24 405.362 273.255C405.32 273.27 405.284 273.298 405.257 273.335L404.932 273.819C404.834 273.965 404.704 274.086 404.553 274.173C404.402 274.26 404.234 274.311 404.062 274.321L403.492 274.342C403.448 274.345 403.406 274.362 403.371 274.391C403.337 274.419 403.311 274.458 403.298 274.501C403.286 274.545 403.286 274.591 403.3 274.634C403.314 274.676 403.341 274.713 403.376 274.74L403.844 275.065C403.987 275.165 404.104 275.299 404.186 275.454C404.268 275.61 404.314 275.784 404.319 275.962L404.331 276.544C404.333 276.589 404.349 276.633 404.376 276.668C404.403 276.703 404.441 276.729 404.483 276.741C404.526 276.754 404.571 276.752 404.613 276.737C404.655 276.722 404.692 276.694 404.718 276.657L405.042 276.173C405.143 276.027 405.274 275.905 405.427 275.818C405.58 275.732 405.75 275.683 405.924 275.675L406.493 275.653C406.537 275.65 406.58 275.633 406.614 275.605C406.649 275.576 406.674 275.538 406.687 275.494C406.7 275.451 406.699 275.404 406.685 275.362C406.671 275.319 406.645 275.282 406.609 275.256L406.6 275.25ZM401.568 269.076C401.74 269.126 401.903 269.189 402.058 269.265L401.842 269.273C401.692 269.283 401.544 269.327 401.411 269.402C401.278 269.477 401.163 269.582 401.074 269.708C400.643 269.638 400.199 269.687 399.789 269.849C399.379 270.011 399.016 270.281 398.738 270.631C398.46 270.981 398.276 271.399 398.205 271.842C398.135 272.285 398.18 272.738 398.336 273.154C398.492 273.57 398.753 273.935 399.093 274.212C399.434 274.488 399.841 274.666 400.274 274.728C400.706 274.79 401.149 274.733 401.556 274.563C401.964 274.394 402.322 274.117 402.594 273.762C402.659 273.837 402.732 273.898 402.814 273.946C402.725 274.049 402.659 274.174 402.62 274.307C402.576 274.458 402.568 274.616 402.6 274.768C402.556 274.803 402.51 274.838 402.465 274.871L404.286 278.308C404.331 278.392 404.341 278.491 404.313 278.584C404.286 278.677 404.225 278.755 404.142 278.802C404.101 278.825 404.056 278.839 404.01 278.845C403.963 278.85 403.917 278.847 403.872 278.833C403.782 278.807 403.706 278.745 403.662 278.661L401.842 275.224C401.369 275.425 400.858 275.509 400.351 275.467C399.844 275.426 399.356 275.261 398.928 274.985C398.5 274.71 398.144 274.333 397.89 273.885C397.636 273.437 397.491 272.932 397.468 272.412C397.445 271.891 397.544 271.371 397.757 270.895C397.97 270.418 398.291 269.999 398.692 269.672C399.094 269.346 399.564 269.121 400.065 269.018C400.565 268.914 401.081 268.934 401.568 269.076Z" fill="#FF8C42"/>
<g opacity="0.76" clip-path="url(#clip2_475_3812)">
<path d="M273.845 353.602L273.867 354.341C273.875 354.566 273.936 354.786 274.044 354.984C274.153 355.182 274.306 355.351 274.491 355.479L275.103 355.896L275.115 355.903C275.162 355.937 275.197 355.984 275.216 356.039C275.235 356.093 275.236 356.152 275.22 356.207C275.204 356.262 275.171 356.311 275.126 356.347C275.081 356.382 275.026 356.403 274.968 356.406L274.229 356.429C274.004 356.436 273.783 356.497 273.586 356.605C273.388 356.713 273.218 356.866 273.09 357.052L272.673 357.662C272.64 357.709 272.593 357.744 272.538 357.763C272.484 357.781 272.425 357.783 272.37 357.767C272.315 357.751 272.266 357.718 272.23 357.673C272.194 357.628 272.173 357.573 272.17 357.515L272.148 356.777C272.141 356.551 272.08 356.33 271.972 356.131C271.864 355.933 271.71 355.763 271.524 355.634L270.913 355.218C270.866 355.184 270.831 355.137 270.812 355.082C270.793 355.028 270.792 354.969 270.808 354.914C270.824 354.859 270.857 354.81 270.902 354.774C270.947 354.739 271.002 354.718 271.06 354.715L271.8 354.693C272.023 354.682 272.241 354.62 272.436 354.511C272.631 354.403 272.799 354.25 272.925 354.065L273.341 353.455C273.375 353.408 273.422 353.373 273.477 353.354C273.531 353.335 273.59 353.333 273.645 353.35C273.701 353.366 273.75 353.399 273.786 353.444C273.821 353.489 273.842 353.544 273.845 353.602ZM275.477 359.505L275.04 359.208C274.908 359.116 274.798 358.995 274.721 358.854C274.643 358.713 274.6 358.555 274.594 358.394L274.578 357.867C274.576 357.826 274.561 357.786 274.535 357.754C274.51 357.722 274.475 357.698 274.436 357.687C274.396 357.675 274.354 357.676 274.315 357.69C274.276 357.703 274.243 357.728 274.219 357.762L273.92 358.197C273.83 358.329 273.71 358.438 273.571 358.516C273.432 358.594 273.276 358.638 273.117 358.646L272.589 358.662C272.548 358.664 272.509 358.679 272.477 358.705C272.445 358.73 272.422 358.765 272.41 358.804C272.399 358.844 272.4 358.886 272.413 358.924C272.426 358.963 272.451 358.997 272.484 359.021L272.92 359.319C273.053 359.411 273.162 359.532 273.24 359.674C273.317 359.816 273.36 359.973 273.366 360.135L273.382 360.662C273.384 360.703 273.399 360.742 273.424 360.775C273.45 360.807 273.485 360.83 273.524 360.842C273.564 360.853 273.606 360.852 273.645 360.839C273.683 360.826 273.717 360.8 273.741 360.767L274.039 360.331C274.13 360.199 274.252 360.09 274.393 360.012C274.534 359.935 274.692 359.891 274.852 359.885L275.38 359.87C275.421 359.867 275.46 359.852 275.492 359.827C275.524 359.801 275.548 359.766 275.559 359.727C275.571 359.688 275.57 359.646 275.556 359.607C275.543 359.568 275.518 359.535 275.485 359.511L275.477 359.505ZM273.024 361.302C272.984 361.268 272.947 361.231 272.913 361.19C272.804 361.049 272.742 360.886 272.725 360.71L272.709 360.157L272.706 360.13L272.486 360.882C272.453 360.9 272.413 360.921 272.366 360.945C272.162 361.046 271.949 361.129 271.731 361.194C271.191 361.354 270.458 361.451 269.652 361.216C268.847 360.981 268.279 360.503 267.912 360.078C267.733 359.872 267.576 359.648 267.443 359.409L267.96 357.639L269.274 359.227C269.483 359.48 269.763 359.664 270.078 359.756C270.393 359.848 270.729 359.844 271.041 359.744L271.977 359.442C271.896 359.356 271.833 359.254 271.793 359.142C271.757 359.041 271.741 358.933 271.746 358.826L270.84 359.118C270.653 359.178 270.451 359.181 270.262 359.125C270.073 359.07 269.905 358.96 269.78 358.808L267.374 355.902L270.143 355.062C270.134 354.95 270.146 354.837 270.178 354.729C270.231 354.547 270.334 354.392 270.476 354.274L266.712 355.416C266.654 355.434 266.602 355.467 266.562 355.512C266.522 355.557 266.495 355.612 266.485 355.672L266.473 355.702L265.736 358.224C265.712 358.308 265.722 358.397 265.763 358.474C265.805 358.55 265.876 358.607 265.959 358.631C266.043 358.656 266.133 358.646 266.209 358.604C266.286 358.562 266.342 358.492 266.367 358.408L266.948 356.417L267.454 357.028L266.776 359.348C266.754 359.423 266.76 359.504 266.792 359.575L266.793 359.578L266.795 359.583L266.804 359.6L266.833 359.66C266.859 359.71 266.897 359.779 266.947 359.864C267.048 360.033 267.203 360.262 267.416 360.507C267.841 360.998 268.508 361.565 269.468 361.846C270.428 362.126 271.295 362.007 271.918 361.822C272.229 361.73 272.483 361.62 272.659 361.533C272.748 361.488 272.836 361.439 272.922 361.388L272.938 361.377L272.943 361.375L272.945 361.373L272.946 361.373C272.975 361.353 273.001 361.329 273.023 361.301" fill="#FF8C42"/>
</g>
<path opacity="0.45" d="M284.634 237.848C284.687 237.775 284.76 237.72 284.843 237.69C284.927 237.661 285.017 237.658 285.101 237.683C285.185 237.707 285.259 237.758 285.314 237.828C285.368 237.898 285.4 237.983 285.405 238.073L285.475 239.289C285.531 240.242 285.789 241.168 286.231 242.003C286.673 242.838 287.29 243.561 288.037 244.123L288.99 244.838C289.06 244.891 289.113 244.965 289.141 245.05C289.168 245.135 289.17 245.227 289.144 245.314C289.119 245.4 289.068 245.477 288.999 245.534C288.93 245.591 288.846 245.625 288.758 245.631L287.57 245.721C286.638 245.792 285.729 246.07 284.907 246.535C284.085 247.001 283.369 247.642 282.809 248.416L282.096 249.402C282.043 249.475 281.97 249.53 281.887 249.559C281.803 249.589 281.713 249.592 281.629 249.567C281.545 249.542 281.47 249.492 281.416 249.422C281.362 249.352 281.33 249.266 281.325 249.177L281.254 247.962C281.199 247.009 280.941 246.082 280.499 245.247C280.056 244.413 279.44 243.689 278.692 243.128L277.739 242.412C277.668 242.359 277.616 242.285 277.588 242.2C277.56 242.115 277.559 242.023 277.584 241.937C277.61 241.85 277.66 241.773 277.729 241.716C277.798 241.66 277.883 241.626 277.97 241.619L279.159 241.529C280.091 241.458 281 241.181 281.823 240.715C282.645 240.25 283.361 239.608 283.92 238.835L284.634 237.848Z" fill="#FF8C42"/>
<circle cx="405.365" cy="367.881" r="1.97029" transform="rotate(16.2846 405.365 367.881)" fill="#FF8C42"/>
</g>
<g filter="url(#filter1_d_475_3812)">
<rect x="296.079" y="263.855" width="90" height="90" rx="42.7267" transform="rotate(2.28455 296.079 263.855)" fill="#FFC097" fill-opacity="0.07" shape-rendering="crispEdges"/>
<g clip-path="url(#clip3_475_3812)">
<path d="M338.449 336.357L364.976 311.865L340.484 285.338L313.957 309.83L338.449 336.357Z" fill="#537A5A"/>
<path d="M356.773 329.834L358.213 293.758L322.137 292.319L320.698 328.395L356.773 329.834Z" fill="#FF8C42"/>
<path d="M347.916 320.265L348.621 302.591L330.947 301.886L330.242 319.56L347.916 320.265Z" fill="#0B3F26"/>
</g>
</g>
<g opacity="0.55">
<circle cx="229.676" cy="267.676" r="2.49895" transform="rotate(4.22638 229.676 267.676)" fill="#4FAD42"/>
<path d="M202.351 144.323L202.596 145.321C202.672 145.625 202.819 145.907 203.023 146.144C203.228 146.381 203.485 146.567 203.774 146.687L204.726 147.075L204.745 147.082C204.818 147.114 204.88 147.168 204.921 147.237C204.962 147.305 204.981 147.385 204.975 147.464C204.97 147.544 204.939 147.62 204.888 147.682C204.837 147.743 204.769 147.788 204.691 147.809L203.693 148.053C203.389 148.129 203.108 148.275 202.87 148.48C202.633 148.684 202.446 148.941 202.326 149.23L201.938 150.181C201.906 150.254 201.852 150.316 201.783 150.357C201.715 150.398 201.635 150.417 201.555 150.411C201.476 150.405 201.4 150.375 201.338 150.324C201.277 150.273 201.232 150.204 201.211 150.127L200.967 149.13C200.891 148.825 200.745 148.542 200.54 148.304C200.336 148.066 200.078 147.88 199.788 147.759L198.836 147.37C198.762 147.338 198.701 147.284 198.66 147.216C198.618 147.147 198.599 147.068 198.605 146.988C198.611 146.909 198.642 146.833 198.693 146.771C198.743 146.709 198.812 146.665 198.889 146.644L199.888 146.4C200.189 146.321 200.467 146.173 200.7 145.969C200.934 145.764 201.117 145.508 201.235 145.221L201.624 144.27C201.656 144.197 201.71 144.135 201.778 144.094C201.847 144.052 201.927 144.033 202.007 144.039C202.087 144.045 202.163 144.075 202.224 144.127C202.286 144.178 202.331 144.246 202.351 144.323ZM206.282 151.872L205.602 151.595C205.395 151.508 205.212 151.375 205.065 151.206C204.919 151.036 204.814 150.835 204.759 150.618L204.585 149.906C204.57 149.851 204.538 149.802 204.494 149.765C204.45 149.729 204.396 149.707 204.339 149.703C204.282 149.699 204.225 149.712 204.176 149.742C204.128 149.771 204.089 149.815 204.066 149.868L203.787 150.546C203.703 150.751 203.572 150.934 203.405 151.08C203.238 151.227 203.04 151.332 202.826 151.389L202.113 151.564C202.058 151.579 202.009 151.611 201.973 151.655C201.937 151.699 201.916 151.753 201.911 151.809C201.907 151.866 201.921 151.923 201.95 151.972C201.979 152.02 202.022 152.059 202.074 152.082L202.754 152.36C202.961 152.447 203.145 152.58 203.291 152.75C203.437 152.92 203.542 153.122 203.596 153.339L203.771 154.051C203.786 154.107 203.817 154.156 203.861 154.192C203.905 154.229 203.96 154.25 204.017 154.255C204.074 154.259 204.13 154.245 204.179 154.216C204.228 154.186 204.267 154.142 204.29 154.09L204.567 153.411C204.654 153.205 204.787 153.021 204.956 152.875C205.126 152.729 205.327 152.624 205.544 152.569L206.257 152.395C206.311 152.38 206.36 152.348 206.396 152.304C206.432 152.26 206.454 152.206 206.458 152.149C206.462 152.092 206.449 152.036 206.42 151.987C206.39 151.938 206.347 151.899 206.295 151.876L206.282 151.872ZM198.251 145.592C198.481 145.609 198.705 145.644 198.921 145.697L198.651 145.763C198.463 145.814 198.289 145.906 198.142 146.033C197.995 146.16 197.878 146.319 197.799 146.497C197.236 146.523 196.69 146.698 196.216 147.004C195.743 147.31 195.359 147.736 195.103 148.239C194.847 148.741 194.729 149.302 194.761 149.865C194.792 150.428 194.972 150.973 195.282 151.444C195.592 151.915 196.022 152.295 196.526 152.546C197.031 152.798 197.593 152.911 198.156 152.874C198.719 152.838 199.262 152.653 199.73 152.339C200.198 152.024 200.575 151.592 200.821 151.085C200.923 151.159 201.032 151.216 201.149 151.254C201.065 151.403 201.016 151.574 201.003 151.747C200.988 151.944 201.021 152.14 201.102 152.319C201.056 152.374 201.009 152.428 200.96 152.48L204.194 156.231C204.273 156.323 204.313 156.442 204.304 156.563C204.295 156.684 204.238 156.796 204.146 156.875C204.101 156.914 204.048 156.944 203.991 156.963C203.934 156.981 203.874 156.989 203.814 156.984C203.694 156.975 203.582 156.919 203.503 156.827L200.27 153.076C199.728 153.447 199.106 153.682 198.455 153.763C197.804 153.844 197.144 153.767 196.528 153.54C195.913 153.313 195.361 152.942 194.919 152.457C194.476 151.973 194.156 151.39 193.985 150.757C193.815 150.124 193.798 149.459 193.937 148.818C194.076 148.177 194.367 147.578 194.784 147.072C195.202 146.567 195.735 146.168 196.338 145.911C196.941 145.653 197.597 145.544 198.251 145.592Z" fill="#4FAD42"/>
<g opacity="0.76" clip-path="url(#clip4_475_3812)">
<path d="M59.3459 284.079L59.5693 284.99C59.6389 285.267 59.7725 285.524 59.9593 285.741C60.146 285.957 60.3808 286.127 60.6449 286.236L61.514 286.591L61.5311 286.597C61.598 286.627 61.6541 286.676 61.6917 286.738C61.7294 286.801 61.7467 286.873 61.7413 286.946C61.736 287.019 61.7081 287.088 61.6617 287.144C61.6153 287.201 61.5525 287.241 61.4821 287.26L60.5711 287.484C60.2936 287.553 60.0363 287.686 59.8196 287.873C59.6029 288.059 59.4329 288.294 59.3231 288.558L58.9684 289.426C58.9391 289.493 58.8899 289.549 58.8274 289.586C58.7649 289.624 58.6923 289.641 58.6196 289.636C58.5468 289.631 58.4775 289.603 58.4213 289.556C58.365 289.51 58.3245 289.447 58.3054 289.377L58.082 288.467C58.013 288.188 57.8797 287.93 57.6929 287.713C57.506 287.496 57.2707 287.325 57.006 287.215L56.1368 286.86C56.07 286.831 56.0139 286.782 55.9762 286.719C55.9386 286.657 55.9212 286.584 55.9266 286.511C55.932 286.439 55.9598 286.369 56.0062 286.313C56.0527 286.257 56.1154 286.216 56.1858 286.197L57.0977 285.974C57.3719 285.902 57.6257 285.767 57.8391 285.581C58.0525 285.394 58.2196 285.16 58.3274 284.898L58.6821 284.031C58.7112 283.963 58.7605 283.907 58.8231 283.869C58.8857 283.831 58.9585 283.814 59.0314 283.819C59.1044 283.825 59.1739 283.853 59.2302 283.899C59.2866 283.946 59.3271 284.008 59.3459 284.079ZM62.9337 290.969L62.3134 290.716C62.1248 290.638 61.957 290.516 61.8235 290.361C61.6899 290.207 61.5943 290.023 61.544 289.825L61.3849 289.175C61.3713 289.125 61.3425 289.08 61.3023 289.047C61.2621 289.013 61.2126 288.993 61.1606 288.99C61.1086 288.986 61.0567 288.998 61.012 289.025C60.9674 289.052 60.9322 289.092 60.9114 289.14L60.6568 289.759C60.5795 289.946 60.4601 290.113 60.3078 290.247C60.1556 290.38 59.9746 290.477 59.7789 290.529L59.1282 290.688C59.0782 290.702 59.0337 290.731 59.0008 290.771C58.9679 290.811 58.9483 290.861 58.9444 290.912C58.9406 290.964 58.9528 291.016 58.9794 291.06C59.0061 291.105 59.0458 291.14 59.0932 291.161L59.7134 291.415C59.9023 291.494 60.0702 291.616 60.2037 291.771C60.3372 291.926 60.4327 292.11 60.4826 292.309L60.6417 292.959C60.6553 293.009 60.6842 293.054 60.7244 293.087C60.7645 293.121 60.8141 293.14 60.8661 293.144C60.9181 293.148 60.97 293.136 61.0146 293.109C61.0592 293.082 61.0944 293.042 61.1152 292.994L61.369 292.375C61.4477 292.186 61.5692 292.018 61.7239 291.885C61.8786 291.752 62.0622 291.656 62.2602 291.606L62.9109 291.447C62.9609 291.433 63.0054 291.404 63.0383 291.364C63.0711 291.324 63.0908 291.274 63.0947 291.222C63.0985 291.171 63.0863 291.119 63.0596 291.074C63.033 291.03 62.9933 290.995 62.9459 290.973L62.9337 290.969ZM60.3672 293.847C60.3085 293.816 60.2528 293.78 60.2007 293.738C60.0278 293.592 59.9078 293.407 59.8401 293.193L59.6734 292.511L59.6624 292.478L59.5892 293.469C59.5534 293.5 59.5095 293.537 59.4574 293.579C59.2308 293.758 58.989 293.918 58.7348 294.056C58.1082 294.397 57.2245 294.713 56.1621 294.634C55.1012 294.556 54.2711 294.114 53.7023 293.684C53.4258 293.476 53.1718 293.239 52.9442 292.978L53.1166 290.646L55.1667 292.268C55.4932 292.526 55.8896 292.68 56.3046 292.711C56.7196 292.742 57.1344 292.647 57.4952 292.44L58.5769 291.818C58.4527 291.733 58.3476 291.623 58.2684 291.495C58.1974 291.378 58.1491 291.249 58.126 291.115L57.0801 291.717C56.8635 291.841 56.6147 291.898 56.3656 291.879C56.1166 291.861 55.8787 291.768 55.6828 291.614L51.9296 288.647L55.1404 286.871C55.1001 286.734 55.0852 286.591 55.0964 286.449C55.1141 286.209 55.1997 285.989 55.3444 285.805L50.9789 288.22C50.9121 288.257 50.8567 288.312 50.819 288.378C50.7812 288.445 50.7625 288.52 50.7648 288.596L50.7584 288.638L50.5128 291.961C50.5047 292.071 50.5406 292.18 50.6128 292.263C50.6849 292.347 50.7873 292.399 50.8975 292.407C51.0077 292.415 51.1165 292.379 51.2002 292.307C51.2838 292.235 51.3354 292.132 51.3435 292.022L51.5374 289.399L52.3266 290.022L52.1007 293.079C52.0933 293.178 52.1216 293.277 52.1804 293.357L52.1826 293.36L52.1864 293.366L52.2017 293.385L52.2536 293.451C52.2997 293.506 52.3642 293.583 52.4493 293.674C52.6196 293.856 52.8714 294.099 53.2014 294.348C53.858 294.844 54.8364 295.371 56.1007 295.464C57.3659 295.558 58.4103 295.18 59.1335 294.786C59.4956 294.589 59.7804 294.385 59.9756 294.23C60.0748 294.151 60.171 294.068 60.2638 293.981L60.281 293.964L60.2863 293.959L60.2882 293.957L60.2891 293.956C60.3206 293.924 60.3468 293.887 60.3665 293.846" fill="#4FAD42"/>
</g>
<path opacity="0.45" d="M42.189 137.605C42.2354 137.502 42.3125 137.415 42.4098 137.357C42.5071 137.299 42.62 137.273 42.7329 137.281C42.8459 137.289 42.9536 137.332 43.0413 137.404C43.129 137.476 43.1926 137.573 43.2233 137.682L43.643 139.157C43.9722 140.314 44.5497 141.386 45.3353 142.297C46.1209 143.208 47.0956 143.936 48.1916 144.432L49.5885 145.064C49.6919 145.11 49.7785 145.187 49.8365 145.285C49.8945 145.382 49.9211 145.495 49.9128 145.608C49.9044 145.721 49.8615 145.829 49.7898 145.916C49.7181 146.004 49.6212 146.068 49.5121 146.098L48.0374 146.518C46.8805 146.847 45.8092 147.425 44.8983 148.21C43.9874 148.996 43.2586 149.971 42.7629 151.067L42.1309 152.464C42.0845 152.567 42.0074 152.653 41.9101 152.711C41.8128 152.769 41.7 152.796 41.587 152.788C41.474 152.779 41.3664 152.736 41.2786 152.665C41.1909 152.593 41.1274 152.496 41.0967 152.387L40.6769 150.912C40.3476 149.755 39.7701 148.684 38.9846 147.773C38.199 146.862 37.2243 146.134 36.1283 145.638L34.7302 145.006C34.6269 144.959 34.5403 144.882 34.4823 144.785C34.4243 144.688 34.3977 144.575 34.406 144.462C34.4143 144.349 34.4573 144.241 34.529 144.154C34.6006 144.066 34.6976 144.002 34.8067 143.972L36.2824 143.552C37.4394 143.223 38.5107 142.645 39.4216 141.86C40.3325 141.074 41.0612 140.099 41.5569 139.003L42.189 137.605Z" fill="#4FAD42"/>
</g>
<g filter="url(#filter2_d_475_3812)">
<rect x="63.1333" y="166.874" width="112.192" height="112.192" rx="54.1989" transform="rotate(-9.77362 63.1333 166.874)" fill="#E9FFE6"/>
<g clip-path="url(#clip5_475_3812)">
<path d="M129.634 224.794C130.066 224.72 130.355 224.309 130.281 223.877L127.892 210.008C125.468 195.933 112.092 186.489 98.0173 188.913C97.3146 189.034 96.8431 189.702 96.9641 190.405L99.1842 203.293C101.655 217.639 115.288 227.265 129.634 224.794Z" fill="#0B3F26"/>
<path d="M131.198 224.524C130.766 224.599 130.355 224.309 130.281 223.877L127.84 209.704C125.444 195.797 134.973 182.547 148.88 180.152C149.636 180.022 150.365 180.527 150.495 181.283L152.699 194.075C155.17 208.421 145.544 222.053 131.198 224.524Z" fill="#7BCB70"/>
<path d="M132.155 239.427C132.587 239.352 132.877 238.942 132.802 238.51L130.413 224.641C127.989 210.566 114.614 201.122 100.539 203.546C99.836 203.667 99.3644 204.335 99.4855 205.038L101.706 217.926C104.177 232.272 117.809 241.898 132.155 239.427Z" fill="#7BCB70"/>
<path d="M133.719 239.157C133.287 239.232 132.877 238.942 132.802 238.51L130.361 224.337C127.965 210.43 137.494 197.18 151.401 194.785C152.157 194.655 152.886 195.16 153.016 195.916L155.22 208.708C157.691 223.054 148.065 236.686 133.719 239.157Z" fill="#4FAD42"/>
</g>
</g>
<defs>
<filter id="filter0_d_475_3812" x="267.834" y="47.5147" width="136.605" height="136.605" filterUnits="userSpaceOnUse" color-interpolation-filters="sRGB">
<feFlood flood-opacity="0" result="BackgroundImageFix"/>
<feColorMatrix in="SourceAlpha" type="matrix" values="0 0 0 0 0 0 0 0 0 0 0 0 0 0 0 0 0 0 127 0" result="hardAlpha"/>
<feOffset dy="5.33201"/>
<feGaussianBlur stdDeviation="6.09372"/>
<feComposite in2="hardAlpha" operator="out"/>
<feColorMatrix type="matrix" values="0 0 0 0 0.0980392 0 0 0 0 0.329412 0 0 0 0 0.486275 0 0 0 0.3 0"/>
<feBlend mode="normal" in2="BackgroundImageFix" result="effect1_dropShadow_475_3812"/>
<feBlend mode="normal" in="SourceGraphic" in2="effect1_dropShadow_475_3812" result="shape"/>
</filter>
<filter id="filter1_d_475_3812" x="278.48" y="255.974" width="121.538" height="121.538" filterUnits="userSpaceOnUse" color-interpolation-filters="sRGB">
<feFlood flood-opacity="0" result="BackgroundImageFix"/>
<feColorMatrix in="SourceAlpha" type="matrix" values="0 0 0 0 0 0 0 0 0 0 0 0 0 0 0 0 0 0 127 0" result="hardAlpha"/>
<feOffset dy="6.1298"/>
<feGaussianBlur stdDeviation="7.00548"/>
<feComposite in2="hardAlpha" operator="out"/>
<feColorMatrix type="matrix" values="0 0 0 0 1 0 0 0 0 0.54902 0 0 0 0 0.258824 0 0 0 0.3 0"/>
<feBlend mode="normal" in2="BackgroundImageFix" result="effect1_dropShadow_475_3812"/>
<feBlend mode="normal" in="SourceGraphic" in2="effect1_dropShadow_475_3812" result="shape"/>
</filter>
<filter id="filter2_d_475_3812" x="45.363" y="137.833" width="165.149" height="165.15" filterUnits="userSpaceOnUse" color-interpolation-filters="sRGB">
<feFlood flood-opacity="0" result="BackgroundImageFix"/>
<feColorMatrix in="SourceAlpha" type="matrix" values="0 0 0 0 0 0 0 0 0 0 0 0 0 0 0 0 0 0 127 0" result="hardAlpha"/>
<feOffset dy="7.77453"/>
<feGaussianBlur stdDeviation="8.88517"/>
<feComposite in2="hardAlpha" operator="out"/>
<feColorMatrix type="matrix" values="0 0 0 0 0.482353 0 0 0 0 0.796078 0 0 0 0 0.439216 0 0 0 0.6 0"/>
<feBlend mode="normal" in2="BackgroundImageFix" result="effect1_dropShadow_475_3812"/>
<feBlend mode="normal" in="SourceGraphic" in2="effect1_dropShadow_475_3812" result="shape"/>
</filter>
<clipPath id="clip0_475_3812">
<rect width="9.14059" height="9.14059" fill="white" transform="translate(311.765 174.55) rotate(-30.856)"/>
</clipPath>
<clipPath id="clip1_475_3812">
<rect width="46.8611" height="46.8611" fill="white" transform="translate(306.095 94.415) rotate(-16.856)"/>
</clipPath>
<clipPath id="clip2_475_3812">
<rect width="10.5082" height="10.5082" fill="white" transform="translate(267.041 351.42) rotate(16.2846)"/>
</clipPath>
<clipPath id="clip3_475_3812">
<rect width="51.384" height="51.384" fill="white" transform="translate(314.663 283.984) rotate(2.28455)"/>
</clipPath>
<clipPath id="clip4_475_3812">
<rect width="13.3278" height="13.3278" fill="white" transform="translate(50.3264 283.177) rotate(4.22638)"/>
</clipPath>
<clipPath id="clip5_475_3812">
<rect width="56.509" height="56.509" fill="white" transform="translate(95.5992 189.33) rotate(-9.77362)"/>
</clipPath>
</defs>
</svg>
