<svg width="437" height="414" viewBox="0 0 437 414" fill="none" xmlns="http://www.w3.org/2000/svg">
<g opacity="0.55">
<circle cx="402.467" cy="120.658" r="1.71386" fill="#A1C4DC"/>
<path d="M394.212 38.3663L394.458 39.1445C394.534 39.3811 394.663 39.5962 394.835 39.7725C395.006 39.9487 395.216 40.0813 395.446 40.1595L396.204 40.4124L396.218 40.4167C396.277 40.4379 396.327 40.4771 396.363 40.529C396.399 40.581 396.418 40.643 396.418 40.7067C396.418 40.7703 396.399 40.8324 396.363 40.8843C396.327 40.9362 396.277 40.9754 396.218 40.9966L395.462 41.2494C395.231 41.3276 395.022 41.4601 394.85 41.6363C394.678 41.8126 394.549 42.0277 394.473 42.2645L394.227 43.042C394.206 43.102 394.168 43.154 394.118 43.1908C394.067 43.2275 394.007 43.2473 393.945 43.2473C393.883 43.2473 393.823 43.2275 393.772 43.1908C393.721 43.154 393.683 43.102 393.663 43.042L393.417 42.2645C393.341 42.0269 393.212 41.8109 393.04 41.6339C392.869 41.4568 392.659 41.3237 392.428 41.2451L391.67 40.9922C391.612 40.9711 391.561 40.9319 391.526 40.8799C391.49 40.828 391.471 40.7659 391.471 40.7023C391.471 40.6387 391.49 40.5766 391.526 40.5247C391.561 40.4727 391.612 40.4335 391.67 40.4124L392.428 40.1595C392.656 40.0793 392.862 39.9458 393.031 39.7697C393.2 39.5935 393.326 39.3795 393.401 39.1445L393.647 38.367C393.668 38.3067 393.706 38.2545 393.756 38.2175C393.807 38.1805 393.867 38.1606 393.93 38.1606C393.992 38.1606 394.052 38.1805 394.103 38.2175C394.153 38.2545 394.192 38.306 394.212 38.3663ZM397.679 44.1297L397.138 43.9495C396.973 43.8932 396.824 43.7983 396.701 43.6724C396.579 43.5464 396.486 43.3927 396.431 43.2236L396.256 42.6685C396.241 42.6256 396.214 42.5884 396.178 42.5621C396.142 42.5358 396.099 42.5216 396.054 42.5216C396.01 42.5216 395.967 42.5358 395.931 42.5621C395.895 42.5884 395.868 42.6256 395.853 42.6685L395.676 43.2236C395.623 43.3914 395.532 43.5442 395.412 43.6701C395.291 43.796 395.144 43.8916 394.982 43.9495L394.441 44.1297C394.399 44.1451 394.364 44.1732 394.338 44.2103C394.313 44.2473 394.299 44.2915 394.299 44.3368C394.299 44.3821 394.313 44.4263 394.338 44.4633C394.364 44.5004 394.399 44.5285 394.441 44.5439L394.982 44.7248C395.146 44.7813 395.296 44.8765 395.419 45.0029C395.541 45.1293 395.634 45.2834 395.688 45.4529L395.864 46.008C395.878 46.0509 395.906 46.0881 395.942 46.1144C395.978 46.1407 396.021 46.1548 396.065 46.1548C396.109 46.1548 396.152 46.1407 396.189 46.1144C396.225 46.0881 396.252 46.0509 396.267 46.008L396.443 45.4529C396.497 45.2838 396.59 45.1303 396.712 45.0043C396.835 44.8783 396.984 44.7833 397.149 44.727L397.689 44.5468C397.731 44.5314 397.767 44.5033 397.792 44.4662C397.817 44.4292 397.831 44.385 397.831 44.3397C397.831 44.2944 397.817 44.2502 397.792 44.2132C397.767 44.1761 397.731 44.148 397.689 44.1326L397.679 44.1297ZM391.118 39.6146C391.296 39.6146 391.471 39.6291 391.641 39.6582L391.436 39.7265C391.294 39.7781 391.165 39.8618 391.058 39.9713C390.952 40.0808 390.87 40.2134 390.82 40.3593C390.387 40.4134 389.975 40.5845 389.626 40.8553C389.278 41.126 389.006 41.4867 388.837 41.9008C388.668 42.3149 388.609 42.7675 388.665 43.2127C388.722 43.6579 388.892 44.0798 389.158 44.4355C389.425 44.7913 389.778 45.0681 390.182 45.238C390.586 45.4079 391.027 45.4647 391.46 45.4027C391.892 45.3407 392.301 45.1621 392.645 44.8851C392.988 44.608 393.254 44.2423 393.416 43.8253C393.499 43.8785 393.587 43.9168 393.679 43.9401C393.622 44.0636 393.594 44.2024 393.594 44.3404C393.594 44.4981 393.63 44.6514 393.704 44.7887C393.671 44.8351 393.637 44.8806 393.603 44.9253L396.315 47.7141C396.382 47.7823 396.419 47.8748 396.419 47.9712C396.419 48.0676 396.381 48.16 396.315 48.2281C396.282 48.2619 396.243 48.2886 396.2 48.3069C396.157 48.3251 396.111 48.3345 396.065 48.3344C395.971 48.3344 395.881 48.296 395.815 48.2278L393.104 45.4391C392.707 45.765 392.24 45.9885 391.742 46.0907C391.243 46.193 390.729 46.1711 390.24 46.0269C389.752 45.8826 389.305 45.6202 388.935 45.2617C388.566 44.9031 388.285 44.4588 388.117 43.966C387.949 43.4731 387.898 42.946 387.969 42.4289C388.04 41.9117 388.23 41.4195 388.524 40.9934C388.818 40.5673 389.207 40.2198 389.658 39.9799C390.109 39.74 390.61 39.6147 391.118 39.6146Z" fill="#A1C4DC"/>
<g opacity="0.76" clip-path="url(#clip0_475_3920)">
<path d="M288.879 139.334L289.078 139.945C289.139 140.131 289.244 140.301 289.382 140.439C289.521 140.578 289.69 140.682 289.876 140.743L290.489 140.942L290.501 140.946C290.548 140.962 290.589 140.993 290.618 141.034C290.647 141.075 290.662 141.124 290.662 141.174C290.662 141.224 290.647 141.272 290.618 141.313C290.589 141.354 290.548 141.385 290.501 141.402L289.889 141.6C289.703 141.662 289.533 141.766 289.394 141.905C289.256 142.043 289.151 142.212 289.09 142.398L288.891 143.01C288.874 143.057 288.843 143.098 288.802 143.127C288.762 143.156 288.713 143.171 288.663 143.171C288.613 143.171 288.564 143.156 288.523 143.127C288.482 143.098 288.451 143.057 288.435 143.01L288.236 142.398C288.175 142.212 288.071 142.042 287.932 141.903C287.793 141.763 287.623 141.659 287.437 141.597L286.824 141.398C286.777 141.382 286.736 141.351 286.707 141.31C286.679 141.269 286.663 141.22 286.663 141.17C286.663 141.12 286.679 141.071 286.707 141.031C286.736 140.99 286.777 140.959 286.824 140.942L287.437 140.743C287.621 140.68 287.788 140.575 287.924 140.437C288.061 140.298 288.163 140.13 288.223 139.945L288.422 139.334C288.439 139.287 288.47 139.246 288.511 139.217C288.551 139.187 288.6 139.172 288.651 139.172C288.701 139.172 288.75 139.187 288.791 139.217C288.831 139.246 288.862 139.286 288.879 139.334ZM291.681 143.865L291.244 143.723C291.111 143.679 290.99 143.604 290.891 143.505C290.792 143.406 290.717 143.286 290.673 143.153L290.531 142.716C290.519 142.682 290.497 142.653 290.468 142.632C290.439 142.612 290.404 142.601 290.368 142.601C290.332 142.601 290.297 142.612 290.268 142.632C290.239 142.653 290.217 142.682 290.205 142.716L290.062 143.153C290.019 143.285 289.946 143.405 289.848 143.504C289.751 143.603 289.632 143.678 289.501 143.723L289.064 143.865C289.03 143.877 289.001 143.899 288.981 143.928C288.961 143.957 288.95 143.992 288.95 144.028C288.95 144.063 288.961 144.098 288.981 144.127C289.001 144.156 289.03 144.179 289.064 144.191L289.501 144.333C289.634 144.377 289.755 144.452 289.854 144.552C289.953 144.651 290.028 144.772 290.072 144.905L290.214 145.342C290.226 145.375 290.248 145.405 290.277 145.425C290.306 145.446 290.341 145.457 290.377 145.457C290.412 145.457 290.447 145.446 290.476 145.425C290.506 145.405 290.528 145.375 290.539 145.342L290.682 144.905C290.726 144.772 290.801 144.652 290.9 144.553C290.999 144.454 291.12 144.379 291.252 144.335L291.689 144.193C291.723 144.181 291.752 144.159 291.772 144.13C291.793 144.1 291.804 144.066 291.804 144.03C291.804 143.994 291.793 143.96 291.772 143.931C291.752 143.901 291.723 143.879 291.689 143.867L291.681 143.865ZM290.071 145.963C290.029 145.945 289.989 145.923 289.952 145.897C289.826 145.806 289.735 145.685 289.677 145.542L289.529 145.084L289.52 145.062V145.744C289.497 145.767 289.469 145.794 289.435 145.826C289.289 145.96 289.132 146.081 288.965 146.188C288.554 146.453 287.965 146.714 287.235 146.714C286.505 146.714 285.915 146.453 285.504 146.188C285.305 146.06 285.119 145.911 284.95 145.744V144.14L286.434 145.146C286.671 145.306 286.949 145.391 287.235 145.391C287.52 145.391 287.799 145.306 288.036 145.146L288.744 144.666C288.655 144.614 288.577 144.544 288.517 144.46C288.462 144.384 288.423 144.299 288.4 144.208L287.715 144.672C287.573 144.768 287.406 144.82 287.235 144.82C287.063 144.82 286.896 144.768 286.754 144.672L284.037 142.833L286.143 141.456C286.109 141.364 286.092 141.267 286.092 141.17C286.092 141.005 286.139 140.85 286.229 140.717L283.365 142.589C283.321 142.617 283.286 142.658 283.264 142.705C283.241 142.752 283.232 142.805 283.238 142.857L283.236 142.886V145.171C283.236 145.247 283.266 145.319 283.319 145.373C283.373 145.426 283.445 145.457 283.521 145.457C283.597 145.457 283.67 145.426 283.723 145.373C283.777 145.319 283.807 145.247 283.807 145.171V143.367L284.378 143.754V145.856C284.378 145.924 284.402 145.99 284.447 146.042L284.448 146.044L284.451 146.047L284.463 146.06L284.502 146.102C284.536 146.138 284.584 146.187 284.647 146.245C284.772 146.361 284.957 146.515 285.195 146.668C285.669 146.974 286.365 147.285 287.235 147.285C288.105 147.285 288.8 146.974 289.275 146.668C289.512 146.515 289.697 146.361 289.823 146.245C289.886 146.186 289.948 146.124 290.007 146.06L290.018 146.047L290.021 146.044L290.022 146.042L290.023 146.042C290.043 146.018 290.059 145.991 290.07 145.963" fill="#A1C4DC"/>
</g>
<path opacity="0.45" d="M270.117 42.43C270.147 42.3452 270.201 42.2719 270.273 42.2202C270.345 42.1684 270.431 42.1406 270.519 42.1406C270.606 42.1406 270.692 42.1684 270.764 42.2202C270.836 42.2719 270.89 42.3452 270.92 42.43L271.329 43.5773C271.649 44.4767 272.156 45.2935 272.815 45.9707C273.474 46.648 274.268 47.1694 275.143 47.4988L276.258 47.9187C276.341 47.9494 276.412 48.0056 276.462 48.0794C276.513 48.1533 276.54 48.2413 276.54 48.3315C276.54 48.4217 276.513 48.5098 276.462 48.5836C276.412 48.6575 276.341 48.7136 276.258 48.7444L275.143 49.1643C274.268 49.4936 273.474 50.0151 272.815 50.6924C272.156 51.3696 271.649 52.1864 271.329 53.0858L270.92 54.2322C270.89 54.317 270.836 54.3903 270.764 54.442C270.692 54.4938 270.606 54.5216 270.519 54.5216C270.431 54.5216 270.345 54.4938 270.273 54.442C270.201 54.3903 270.147 54.317 270.117 54.2322L269.708 53.0858C269.388 52.1864 268.881 51.3696 268.222 50.6924C267.563 50.0151 266.769 49.4936 265.894 49.1643L264.778 48.7444C264.696 48.7136 264.624 48.6575 264.574 48.5836C264.524 48.5098 264.497 48.4217 264.497 48.3315C264.497 48.2413 264.524 48.1533 264.574 48.0794C264.624 48.0056 264.696 47.9494 264.778 47.9187L265.894 47.4988C266.769 47.1694 267.563 46.648 268.222 45.9707C268.881 45.2935 269.388 44.4767 269.708 43.5773L270.117 42.43Z" fill="#A1C4DC"/>
</g>
<g filter="url(#filter0_d_475_3920)">
<rect x="303.667" y="42.125" width="90" height="90" rx="45" transform="rotate(14 303.667 42.125)" fill="#19547C" fill-opacity="0.07" shape-rendering="crispEdges"/>
<g clip-path="url(#clip1_475_3920)">
<path d="M316.567 89.242C316.896 87.9246 318.23 87.1227 319.548 87.4512L330.541 90.1921C331.858 90.5206 332.66 91.8551 332.331 93.1724L327.839 111.19L312.075 107.259L316.567 89.242Z" fill="#19547C"/>
<path d="M339.782 94.1823C343.714 95.1626 347.696 92.7697 348.676 88.8379C349.657 84.9057 347.264 80.9233 343.332 79.943C339.4 78.9627 335.418 81.3556 334.437 85.2877C333.457 89.2196 335.85 93.2019 339.782 94.1823Z" fill="#19547C"/>
<path d="M340.685 114.393C342.856 105.687 337.557 96.8682 328.851 94.6975C320.145 92.5269 311.327 97.8256 309.157 106.532" fill="#19547C"/>
<path d="M361.152 84.3872L352.91 117.443" stroke="#19547C" stroke-width="1.80851" stroke-miterlimit="10"/>
<path d="M346.788 115.915C348.959 107.209 343.66 98.3907 334.954 96.2201C326.248 94.0494 317.43 99.3481 315.259 108.054" fill="#A1C4DC"/>
</g>
</g>
<g opacity="0.55">
<circle cx="374.359" cy="365.065" r="1.61898" transform="rotate(25.3873 374.359 365.065)" fill="#4FAD42"/>
<path d="M405.559 293.484L405.447 294.292C405.415 294.539 405.439 294.789 405.519 295.021C405.598 295.254 405.73 295.464 405.905 295.633L406.481 296.186L406.492 296.197C406.536 296.241 406.565 296.298 406.575 296.36C406.585 296.422 406.576 296.487 406.548 296.544C406.521 296.602 406.477 296.65 406.423 296.681C406.368 296.713 406.306 296.726 406.244 296.72L405.451 296.624C405.21 296.596 404.964 296.626 404.733 296.712C404.502 296.797 404.293 296.936 404.123 297.118L403.567 297.714C403.523 297.76 403.466 297.79 403.405 297.802C403.344 297.814 403.281 297.806 403.225 297.779C403.169 297.752 403.123 297.709 403.093 297.654C403.063 297.599 403.051 297.536 403.058 297.473L403.169 296.665C403.202 296.418 403.179 296.167 403.099 295.934C403.02 295.7 402.888 295.49 402.713 295.32L402.137 294.767C402.093 294.723 402.064 294.665 402.054 294.603C402.044 294.541 402.053 294.477 402.081 294.419C402.108 294.362 402.152 294.314 402.206 294.282C402.261 294.251 402.324 294.237 402.385 294.243L403.178 294.339C403.418 294.364 403.662 294.332 403.89 294.245C404.118 294.159 404.324 294.02 404.493 293.839L405.048 293.242C405.092 293.197 405.149 293.166 405.211 293.154C405.272 293.142 405.336 293.15 405.392 293.177C405.448 293.204 405.494 293.248 405.524 293.303C405.554 293.358 405.566 293.421 405.559 293.484ZM406.22 300.177L405.808 299.782C405.684 299.661 405.59 299.511 405.533 299.345C405.476 299.178 405.458 299 405.481 298.824L405.561 298.247C405.566 298.202 405.557 298.157 405.536 298.117C405.515 298.078 405.482 298.047 405.442 298.028C405.402 298.009 405.357 298.003 405.313 298.012C405.269 298.02 405.228 298.042 405.197 298.074L404.799 298.5C404.679 298.629 404.531 298.728 404.369 298.79C404.206 298.852 404.032 298.875 403.86 298.858L403.295 298.789C403.251 298.785 403.206 298.795 403.167 298.818C403.129 298.84 403.097 298.875 403.078 298.915C403.059 298.956 403.052 299.002 403.059 299.046C403.066 299.091 403.086 299.131 403.117 299.163L403.528 299.558C403.653 299.68 403.747 299.83 403.804 299.997C403.86 300.164 403.878 300.343 403.854 300.519L403.775 301.096C403.769 301.141 403.778 301.186 403.799 301.225C403.821 301.265 403.854 301.296 403.894 301.315C403.934 301.334 403.979 301.34 404.023 301.331C404.066 301.323 404.107 301.301 404.139 301.269L404.536 300.842C404.658 300.713 404.807 300.614 404.972 300.553C405.136 300.492 405.312 300.47 405.485 300.489L406.05 300.558C406.094 300.562 406.139 300.552 406.178 300.53C406.216 300.507 406.248 300.473 406.267 300.432C406.286 300.391 406.293 300.345 406.286 300.301C406.279 300.257 406.259 300.216 406.228 300.184L406.22 300.177ZM402.228 293.285C402.389 293.362 402.541 293.449 402.682 293.549L402.467 293.523C402.317 293.508 402.165 293.529 402.021 293.582C401.878 293.635 401.748 293.72 401.64 293.83C401.225 293.693 400.78 293.671 400.349 293.767C399.918 293.862 399.517 294.071 399.187 294.373C398.857 294.674 398.61 295.058 398.47 295.484C398.33 295.911 398.303 296.365 398.391 296.8C398.479 297.236 398.679 297.638 398.972 297.964C399.264 298.291 399.638 298.531 400.055 298.661C400.473 298.79 400.919 298.804 401.348 298.701C401.777 298.598 402.174 298.382 402.499 298.075C402.551 298.158 402.614 298.23 402.688 298.291C402.584 298.378 402.498 298.492 402.439 298.616C402.372 298.759 402.339 298.913 402.346 299.068C402.297 299.096 402.247 299.123 402.196 299.148L403.451 302.831C403.482 302.921 403.476 303.02 403.434 303.107C403.393 303.194 403.32 303.262 403.23 303.295C403.186 303.311 403.14 303.319 403.093 303.317C403.046 303.315 403.001 303.304 402.959 303.284C402.874 303.244 402.81 303.17 402.779 303.08L401.525 299.399C401.027 299.523 400.509 299.524 400.015 299.403C399.521 299.282 399.066 299.042 398.686 298.702C398.307 298.362 398.015 297.933 397.835 297.451C397.655 296.969 397.592 296.447 397.652 295.93C397.711 295.413 397.891 294.915 398.177 294.478C398.463 294.041 398.846 293.678 399.294 293.419C399.742 293.16 400.242 293.012 400.753 292.989C401.263 292.966 401.769 293.067 402.228 293.285Z" fill="#4FAD42"/>
<g opacity="0.76" clip-path="url(#clip2_475_3920)">
<path d="M267.326 335.346L267.248 335.949C267.225 336.133 267.246 336.319 267.308 336.494C267.37 336.668 267.472 336.826 267.606 336.954L268.049 337.371L268.057 337.379C268.091 337.412 268.113 337.455 268.121 337.502C268.13 337.548 268.123 337.596 268.103 337.639C268.083 337.682 268.05 337.717 268.008 337.74C267.967 337.763 267.92 337.773 267.873 337.768L267.27 337.69C267.086 337.667 266.9 337.687 266.725 337.749C266.55 337.811 266.393 337.913 266.265 338.047L265.848 338.489C265.814 338.522 265.771 338.544 265.725 338.553C265.678 338.561 265.63 338.554 265.588 338.534C265.545 338.514 265.51 338.481 265.486 338.439C265.463 338.398 265.454 338.351 265.458 338.304L265.536 337.702C265.56 337.517 265.54 337.33 265.478 337.155C265.415 336.98 265.313 336.822 265.179 336.694L264.737 336.276C264.703 336.243 264.681 336.2 264.673 336.154C264.665 336.107 264.671 336.059 264.691 336.016C264.712 335.974 264.745 335.938 264.786 335.915C264.827 335.892 264.874 335.882 264.921 335.887L265.525 335.966C265.707 335.986 265.892 335.964 266.065 335.901C266.237 335.838 266.393 335.736 266.519 335.603L266.936 335.162C266.97 335.128 267.013 335.106 267.059 335.097C267.106 335.089 267.154 335.096 267.197 335.116C267.24 335.136 267.275 335.169 267.298 335.211C267.321 335.252 267.331 335.299 267.326 335.346ZM267.882 340.348L267.567 340.05C267.471 339.959 267.398 339.846 267.354 339.722C267.309 339.597 267.294 339.463 267.31 339.332L267.366 338.902C267.37 338.869 267.363 338.835 267.346 338.805C267.33 338.776 267.305 338.752 267.274 338.738C267.244 338.723 267.209 338.719 267.176 338.724C267.143 338.73 267.112 338.746 267.088 338.77L266.79 339.085C266.699 339.18 266.588 339.253 266.465 339.298C266.342 339.343 266.21 339.359 266.079 339.345L265.649 339.288C265.615 339.285 265.582 339.292 265.553 339.309C265.523 339.326 265.5 339.351 265.485 339.381C265.471 339.412 265.466 339.446 265.472 339.479C265.478 339.512 265.493 339.542 265.517 339.566L265.832 339.865C265.928 339.957 266.001 340.07 266.045 340.194C266.09 340.319 266.104 340.453 266.088 340.585L266.032 341.015C266.029 341.048 266.036 341.082 266.052 341.111C266.069 341.141 266.094 341.165 266.124 341.179C266.155 341.193 266.189 341.198 266.222 341.192C266.256 341.186 266.286 341.17 266.31 341.146L266.608 340.832C266.7 340.736 266.813 340.663 266.937 340.619C267.062 340.574 267.195 340.56 267.327 340.576L267.757 340.632C267.79 340.635 267.824 340.628 267.853 340.611C267.883 340.595 267.906 340.569 267.92 340.539C267.935 340.509 267.939 340.475 267.934 340.441C267.928 340.408 267.912 340.378 267.889 340.354L267.882 340.348ZM265.659 341.487C265.63 341.455 265.605 341.419 265.584 341.382C265.513 341.253 265.484 341.113 265.493 340.968L265.552 340.517L265.553 340.495L265.277 341.077C265.248 341.087 265.213 341.099 265.172 341.112C264.993 341.168 264.809 341.208 264.624 341.231C264.165 341.291 263.558 341.275 262.934 340.979C262.311 340.684 261.913 340.222 261.67 339.83C261.552 339.639 261.454 339.437 261.377 339.226L262.027 337.857L262.886 339.317C263.023 339.549 263.226 339.735 263.47 339.85C263.713 339.966 263.986 340.006 264.253 339.965L265.052 339.842C264.996 339.762 264.959 339.671 264.941 339.575C264.925 339.488 264.926 339.399 264.944 339.312L264.171 339.431C264.011 339.456 263.847 339.432 263.701 339.362C263.555 339.293 263.433 339.181 263.351 339.042L261.777 336.372L264.132 336.05C264.14 335.958 264.164 335.868 264.204 335.785C264.271 335.644 264.374 335.531 264.505 335.454L261.303 335.891C261.253 335.898 261.207 335.918 261.169 335.95C261.131 335.981 261.102 336.022 261.085 336.069L261.072 336.092L260.146 338.043C260.115 338.107 260.112 338.181 260.136 338.249C260.16 338.316 260.209 338.371 260.274 338.402C260.339 338.433 260.413 338.436 260.48 338.412C260.548 338.388 260.603 338.339 260.634 338.274L261.364 336.734L261.695 337.296L260.844 339.09C260.816 339.148 260.81 339.214 260.827 339.276L260.828 339.279L260.829 339.283L260.833 339.298L260.849 339.35C260.864 339.394 260.885 339.455 260.915 339.531C260.976 339.68 261.071 339.886 261.212 340.114C261.493 340.567 261.961 341.114 262.703 341.466C263.445 341.818 264.165 341.835 264.694 341.766C264.959 341.731 265.178 341.675 265.332 341.627C265.411 341.602 265.489 341.574 265.565 341.544L265.579 341.537L265.584 341.536L265.585 341.535L265.586 341.534C265.613 341.522 265.637 341.506 265.658 341.486" fill="#4FAD42"/>
</g>
<path opacity="0.45" d="M291.706 243.951C291.769 243.888 291.85 243.845 291.937 243.829C292.024 243.813 292.114 243.824 292.193 243.862C292.272 243.9 292.338 243.962 292.38 244.039C292.423 244.117 292.441 244.206 292.432 244.296L292.309 245.507C292.213 246.457 292.321 247.413 292.625 248.307C292.93 249.201 293.424 250.013 294.074 250.685L294.901 251.543C294.962 251.606 295.003 251.687 295.016 251.776C295.03 251.864 295.017 251.955 294.978 252.037C294.94 252.118 294.877 252.186 294.8 252.231C294.723 252.276 294.635 252.296 294.547 252.289L293.359 252.19C292.428 252.113 291.487 252.243 290.601 252.573C289.716 252.902 288.907 253.422 288.232 254.098L287.372 254.958C287.308 255.022 287.227 255.065 287.14 255.081C287.053 255.097 286.964 255.085 286.885 255.047C286.805 255.01 286.74 254.948 286.697 254.87C286.655 254.793 286.637 254.703 286.646 254.614L286.768 253.403C286.865 252.453 286.757 251.498 286.452 250.603C286.147 249.709 285.653 248.897 285.004 248.225L284.175 247.367C284.114 247.304 284.074 247.223 284.06 247.134C284.046 247.046 284.06 246.955 284.098 246.873C284.137 246.792 284.199 246.724 284.276 246.679C284.353 246.634 284.442 246.613 284.529 246.621L285.718 246.72C286.649 246.798 287.591 246.667 288.476 246.338C289.362 246.008 290.17 245.488 290.845 244.813L291.706 243.951Z" fill="#4FAD42"/>
</g>
<g filter="url(#filter1_d_475_3920)">
<rect x="297.026" y="265.421" width="90" height="90" rx="45" transform="rotate(11.3873 297.026 265.421)" fill="#E9FFE6"/>
<g clip-path="url(#clip3_475_3920)">
<path d="M329.598 327.57C329.906 327.632 330.207 327.432 330.269 327.123L332.264 317.217C334.289 307.164 327.781 297.373 317.727 295.348C317.225 295.247 316.737 295.572 316.635 296.074L314.781 305.28C312.718 315.526 319.351 325.506 329.598 327.57Z" fill="#0B3F26"/>
<path d="M330.715 327.795C330.407 327.733 330.207 327.432 330.269 327.123L332.308 317C334.309 307.067 344.124 300.665 354.057 302.665C354.597 302.774 354.954 303.301 354.845 303.841L353.005 312.978C350.941 323.225 340.962 329.858 330.715 327.795Z" fill="#7BCB70"/>
<path d="M327.494 338.022C327.802 338.084 328.103 337.884 328.165 337.576L330.16 327.67C332.185 317.616 325.677 307.825 315.623 305.8C315.121 305.699 314.633 306.024 314.531 306.526L312.677 315.732C310.614 325.979 317.247 335.958 327.494 338.022Z" fill="#7BCB70"/>
<path d="M328.611 338.247C328.303 338.185 328.103 337.884 328.165 337.576L330.204 327.452C332.205 317.519 342.02 311.117 351.953 313.117C352.493 313.226 352.85 313.753 352.741 314.293L350.901 323.43C348.837 333.677 338.858 340.311 328.611 338.247Z" fill="#4FAD42"/>
</g>
</g>
<g opacity="0.55">
<circle cx="221.381" cy="317.868" r="2.80609" transform="rotate(31.301 221.381 317.868)" fill="#FF8C42"/>
<path d="M256.573 180.876L256.308 181.999C256.229 182.341 256.231 182.698 256.315 183.039C256.398 183.381 256.56 183.698 256.788 183.966L257.541 184.841L257.557 184.858C257.613 184.927 257.647 185.013 257.654 185.102C257.66 185.192 257.638 185.281 257.592 185.358C257.545 185.434 257.476 185.495 257.393 185.53C257.311 185.566 257.22 185.575 257.132 185.556L256.009 185.291C255.666 185.212 255.31 185.214 254.968 185.297C254.626 185.38 254.308 185.542 254.04 185.769L253.166 186.521C253.097 186.578 253.011 186.612 252.922 186.618C252.832 186.624 252.743 186.603 252.666 186.556C252.59 186.509 252.529 186.44 252.494 186.358C252.458 186.275 252.449 186.184 252.467 186.096L252.732 184.974C252.812 184.631 252.811 184.273 252.728 183.931C252.645 183.588 252.483 183.269 252.254 183.001L251.501 182.125C251.444 182.056 251.41 181.971 251.404 181.881C251.398 181.792 251.419 181.702 251.466 181.626C251.513 181.549 251.582 181.489 251.664 181.453C251.747 181.417 251.838 181.408 251.926 181.427L253.05 181.693C253.39 181.767 253.744 181.762 254.082 181.677C254.42 181.592 254.734 181.43 254.999 181.203L255.873 180.451C255.943 180.394 256.028 180.36 256.118 180.353C256.208 180.347 256.297 180.368 256.374 180.415C256.451 180.462 256.512 180.531 256.547 180.614C256.583 180.697 256.592 180.788 256.573 180.876ZM256.645 190.432L256.107 189.807C255.945 189.616 255.829 189.389 255.769 189.144C255.71 188.9 255.708 188.645 255.764 188.4L255.953 187.599C255.967 187.537 255.96 187.471 255.935 187.412C255.909 187.353 255.866 187.304 255.811 187.271C255.757 187.237 255.693 187.222 255.629 187.226C255.565 187.231 255.504 187.255 255.454 187.296L254.829 187.832C254.639 187.993 254.415 188.109 254.173 188.17C253.932 188.231 253.68 188.236 253.436 188.183L252.634 187.993C252.572 187.98 252.507 187.987 252.448 188.013C252.39 188.038 252.341 188.081 252.307 188.136C252.274 188.19 252.259 188.254 252.263 188.318C252.267 188.381 252.291 188.442 252.331 188.492L252.868 189.117C253.031 189.309 253.146 189.537 253.206 189.782C253.265 190.026 253.267 190.282 253.21 190.527L253.021 191.328C253.007 191.391 253.014 191.456 253.039 191.515C253.065 191.574 253.108 191.623 253.163 191.657C253.217 191.69 253.281 191.705 253.345 191.701C253.409 191.696 253.47 191.672 253.52 191.631L254.144 191.095C254.336 190.933 254.563 190.817 254.807 190.758C255.051 190.698 255.306 190.696 255.551 190.752L256.353 190.942C256.415 190.955 256.48 190.948 256.539 190.922C256.597 190.897 256.646 190.854 256.68 190.799C256.713 190.745 256.728 190.681 256.724 190.617C256.72 190.554 256.696 190.493 256.656 190.443L256.645 190.432ZM251.826 180.049C252.047 180.184 252.252 180.332 252.442 180.496L252.138 180.424C251.924 180.379 251.703 180.382 251.491 180.434C251.278 180.486 251.08 180.584 250.911 180.722C250.335 180.461 249.699 180.357 249.069 180.421C248.439 180.485 247.837 180.714 247.325 181.086C246.812 181.458 246.407 181.958 246.151 182.537C245.895 183.116 245.796 183.753 245.866 184.382C245.935 185.012 246.17 185.611 246.546 186.121C246.923 186.63 247.427 187.03 248.008 187.281C248.59 187.532 249.227 187.625 249.856 187.55C250.484 187.475 251.082 187.235 251.588 186.854C251.651 186.981 251.732 187.093 251.829 187.191C251.669 187.297 251.532 187.443 251.431 187.609C251.315 187.799 251.248 188.011 251.238 188.232C251.164 188.263 251.089 188.293 251.013 188.32L252.33 193.724C252.362 193.856 252.341 193.995 252.27 194.112C252.199 194.228 252.085 194.311 251.953 194.343C251.888 194.359 251.82 194.362 251.753 194.351C251.687 194.341 251.623 194.318 251.565 194.283C251.449 194.212 251.366 194.098 251.334 193.966L250.018 188.563C249.288 188.657 248.546 188.575 247.853 188.323C247.161 188.071 246.54 187.657 246.041 187.115C245.541 186.573 245.179 185.92 244.984 185.21C244.79 184.5 244.768 183.753 244.921 183.033C245.074 182.312 245.397 181.639 245.863 181.069C246.33 180.499 246.926 180.049 247.602 179.757C248.278 179.465 249.015 179.339 249.749 179.39C250.484 179.441 251.196 179.667 251.826 180.049Z" fill="#FF8C42"/>
<g opacity="0.76" clip-path="url(#clip4_475_3920)">
<path d="M42.1615 247.522L41.9191 248.547C41.8471 248.859 41.8492 249.185 41.9254 249.497C42.0015 249.808 42.1495 250.098 42.3576 250.342L43.0452 251.142L43.0591 251.157C43.111 251.22 43.1419 251.298 43.1476 251.38C43.1534 251.461 43.1336 251.543 43.091 251.613C43.0485 251.683 42.9852 251.738 42.9101 251.77C42.8349 251.803 42.7515 251.811 42.6713 251.794L41.6462 251.552C41.3334 251.48 41.008 251.481 40.6959 251.557C40.3839 251.633 40.0939 251.781 39.8493 251.989L39.0512 252.675C38.9878 252.727 38.9099 252.758 38.8281 252.763C38.7464 252.769 38.665 252.749 38.595 252.707C38.525 252.664 38.4699 252.601 38.4374 252.526C38.4049 252.45 38.3965 252.367 38.4134 252.287L38.6552 251.263C38.7284 250.949 38.7271 250.623 38.6513 250.31C38.5755 249.997 38.4274 249.707 38.2189 249.461L37.5313 248.662C37.4794 248.599 37.4484 248.521 37.4427 248.439C37.437 248.358 37.4568 248.276 37.4993 248.206C37.5419 248.136 37.6051 248.081 37.6803 248.049C37.7555 248.016 37.8389 248.008 37.919 248.025L38.9449 248.267C39.2559 248.336 39.5785 248.331 39.8872 248.253C40.196 248.175 40.4825 248.027 40.7243 247.82L41.5224 247.134C41.5858 247.082 41.6639 247.051 41.7458 247.045C41.8278 247.039 41.9095 247.059 41.9797 247.101C42.0499 247.144 42.1051 247.207 42.1376 247.283C42.17 247.358 42.1787 247.441 42.1615 247.522ZM42.2271 256.245L41.7362 255.675C41.5878 255.5 41.4821 255.292 41.4277 255.069C41.3732 254.846 41.3714 254.614 41.4224 254.39L41.5955 253.659C41.6077 253.602 41.6017 253.542 41.5785 253.488C41.5553 253.435 41.516 253.389 41.4659 253.359C41.4159 253.329 41.3577 253.315 41.2993 253.319C41.2409 253.323 41.1852 253.345 41.1399 253.382L40.5689 253.871C40.3959 254.019 40.1913 254.125 39.9708 254.18C39.7504 254.236 39.52 254.24 39.2978 254.192L38.5658 254.018C38.5087 254.007 38.4494 254.013 38.396 254.036C38.3426 254.06 38.2977 254.099 38.2674 254.149C38.2371 254.199 38.2229 254.257 38.2268 254.315C38.2306 254.373 38.2523 254.429 38.2889 254.474L38.7793 255.045C38.9278 255.22 39.0334 255.428 39.0876 255.651C39.1418 255.875 39.1432 256.107 39.0916 256.331L38.9185 257.063C38.9063 257.12 38.9123 257.179 38.9355 257.233C38.9587 257.287 38.998 257.332 39.0481 257.363C39.0981 257.393 39.1563 257.407 39.2147 257.403C39.2731 257.399 39.3288 257.377 39.374 257.34L39.9443 256.85C40.1194 256.702 40.3265 256.596 40.5493 256.542C40.7722 256.488 41.0046 256.486 41.2282 256.537L41.9601 256.711C42.0173 256.722 42.0766 256.716 42.13 256.692C42.1834 256.669 42.2283 256.63 42.2586 256.58C42.2888 256.53 42.303 256.472 42.2992 256.414C42.2954 256.356 42.2737 256.3 42.2371 256.255L42.2271 256.245ZM38.19 257.811C38.1472 257.749 38.1101 257.684 38.0793 257.616C37.9812 257.382 37.9559 257.135 37.9975 256.887L38.1794 256.119L38.1851 256.081L37.6053 257.035C37.5536 257.048 37.491 257.062 37.4176 257.077C37.0992 257.141 36.7758 257.177 36.4512 257.185C35.6503 257.206 34.6055 257.07 33.5833 256.448C32.5627 255.827 31.9587 254.961 31.6095 254.241C31.4397 253.891 31.3065 253.525 31.2124 253.148L32.5764 250.904L33.7975 253.573C33.9921 253.998 34.3095 254.355 34.7088 254.598C35.1081 254.841 35.571 254.958 36.0377 254.936L37.437 254.867C37.3563 254.718 37.3076 254.554 37.2938 254.386C37.2824 254.233 37.3 254.079 37.3456 253.933L35.9922 254C35.7121 254.014 35.4344 253.943 35.1948 253.798C34.9551 253.652 34.7647 253.438 34.648 253.183L32.4116 248.298L36.5295 248.164C36.5591 248.007 36.6172 247.856 36.701 247.72C36.8415 247.489 37.0395 247.312 37.2782 247.203L31.6793 247.386C31.5935 247.388 31.5102 247.415 31.4384 247.462C31.3667 247.509 31.3094 247.575 31.2726 247.653L31.2451 247.691L29.3013 250.888C29.2369 250.994 29.2172 251.121 29.2466 251.241C29.2759 251.362 29.352 251.466 29.458 251.53C29.5639 251.595 29.6912 251.614 29.8117 251.585C29.9322 251.556 30.0361 251.48 30.1005 251.374L31.6352 248.85L32.1054 249.877L30.3171 252.818C30.2592 252.913 30.2372 253.026 30.2551 253.136L30.2555 253.141L30.2566 253.148L30.2619 253.175L30.2803 253.267C30.2981 253.346 30.3235 253.456 30.3618 253.591C30.439 253.86 30.5664 254.232 30.7695 254.648C31.1723 255.48 31.8814 256.507 33.0978 257.246C34.315 257.987 35.5521 258.143 36.4767 258.119C36.9394 258.107 37.3283 258.049 37.6027 257.993C37.7425 257.965 37.8811 257.931 38.0183 257.891L38.0442 257.883L38.0519 257.881L38.055 257.88L38.0563 257.879C38.1042 257.863 38.1493 257.84 38.1897 257.809" fill="#FF8C42"/>
</g>
<path opacity="0.45" d="M99.869 92.3008C99.9682 92.2212 100.09 92.174 100.217 92.1658C100.343 92.1575 100.47 92.1885 100.579 92.2546C100.687 92.3207 100.773 92.4187 100.824 92.5352C100.875 92.6517 100.889 92.7811 100.864 92.9058L100.529 94.5959C100.267 95.921 100.297 97.2872 100.617 98.5995C100.937 99.9118 101.539 101.139 102.382 102.194L103.455 103.54C103.535 103.639 103.582 103.761 103.59 103.888C103.599 104.015 103.568 104.141 103.502 104.25C103.435 104.358 103.337 104.444 103.221 104.495C103.104 104.546 102.975 104.56 102.85 104.535L101.161 104.201C99.8363 103.939 98.47 103.969 97.1577 104.289C95.8454 104.609 94.6187 105.211 93.5629 106.053L92.217 107.127C92.1178 107.207 91.9964 107.254 91.8695 107.262C91.7426 107.271 91.6161 107.239 91.5074 107.173C91.3988 107.107 91.313 107.009 91.262 106.893C91.2109 106.776 91.1969 106.647 91.222 106.522L91.5559 104.833C91.818 103.508 91.7881 102.142 91.4683 100.83C91.1484 99.5173 90.5462 98.2905 89.7038 97.2347L88.629 95.8882C88.5493 95.789 88.5022 95.6677 88.4939 95.5407C88.4857 95.4138 88.5167 95.2874 88.5828 95.1787C88.6489 95.07 88.7468 94.9843 88.8633 94.9332C88.9798 94.8821 89.1092 94.8681 89.234 94.8932L90.9241 95.2278C92.2491 95.4899 93.6154 95.46 94.9276 95.1401C96.2399 94.8202 97.4667 94.2181 98.5225 93.3756L99.869 92.3008Z" fill="#FF8C42"/>
</g>
<g filter="url(#filter2_d_475_3920)">
<rect x="105.861" y="132.273" width="125.962" height="125.962" rx="60.8512" transform="rotate(17.301 105.861 132.273)" fill="#FFC097" fill-opacity="0.07" shape-rendering="crispEdges"/>
<g clip-path="url(#clip5_475_3920)">
<path d="M136.455 245.858L181.982 221.957L158.081 176.43L112.553 200.331L136.455 245.858Z" fill="#537A5A"/>
<path d="M164.069 243.646L179.361 194.553L130.267 179.261L114.976 228.354L164.069 243.646Z" fill="#FF8C42"/>
<path d="M155.415 227.214L162.907 203.163L138.856 195.672L131.364 219.723L155.415 227.214Z" fill="#0B3F26"/>
</g>
</g>
<defs>
<filter id="filter0_d_475_3920" x="269.706" y="35.2696" width="133.475" height="133.475" filterUnits="userSpaceOnUse" color-interpolation-filters="sRGB">
<feFlood flood-opacity="0" result="BackgroundImageFix"/>
<feColorMatrix in="SourceAlpha" type="matrix" values="0 0 0 0 0 0 0 0 0 0 0 0 0 0 0 0 0 0 127 0" result="hardAlpha"/>
<feOffset dy="5.33201"/>
<feGaussianBlur stdDeviation="6.09372"/>
<feComposite in2="hardAlpha" operator="out"/>
<feColorMatrix type="matrix" values="0 0 0 0 0.0980392 0 0 0 0 0.329412 0 0 0 0 0.486275 0 0 0 0.3 0"/>
<feBlend mode="normal" in2="BackgroundImageFix" result="effect1_dropShadow_475_3920"/>
<feBlend mode="normal" in="SourceGraphic" in2="effect1_dropShadow_475_3920" result="shape"/>
</filter>
<filter id="filter1_d_475_3920" x="267.743" y="258.945" width="129.023" height="129.024" filterUnits="userSpaceOnUse" color-interpolation-filters="sRGB">
<feFlood flood-opacity="0" result="BackgroundImageFix"/>
<feColorMatrix in="SourceAlpha" type="matrix" values="0 0 0 0 0 0 0 0 0 0 0 0 0 0 0 0 0 0 127 0" result="hardAlpha"/>
<feOffset dy="5.03683"/>
<feGaussianBlur stdDeviation="5.75638"/>
<feComposite in2="hardAlpha" operator="out"/>
<feColorMatrix type="matrix" values="0 0 0 0 0.482353 0 0 0 0 0.796078 0 0 0 0 0.439216 0 0 0 0.6 0"/>
<feBlend mode="normal" in2="BackgroundImageFix" result="effect1_dropShadow_475_3920"/>
<feBlend mode="normal" in="SourceGraphic" in2="effect1_dropShadow_475_3920" result="shape"/>
</filter>
<filter id="filter2_d_475_3920" x="48.4467" y="121.049" width="197.632" height="197.632" filterUnits="userSpaceOnUse" color-interpolation-filters="sRGB">
<feFlood flood-opacity="0" result="BackgroundImageFix"/>
<feColorMatrix in="SourceAlpha" type="matrix" values="0 0 0 0 0 0 0 0 0 0 0 0 0 0 0 0 0 0 127 0" result="hardAlpha"/>
<feOffset dy="8.73004"/>
<feGaussianBlur stdDeviation="9.97719"/>
<feComposite in2="hardAlpha" operator="out"/>
<feColorMatrix type="matrix" values="0 0 0 0 1 0 0 0 0 0.54902 0 0 0 0 0.258824 0 0 0 0.3 0"/>
<feBlend mode="normal" in2="BackgroundImageFix" result="effect1_dropShadow_475_3920"/>
<feBlend mode="normal" in="SourceGraphic" in2="effect1_dropShadow_475_3920" result="shape"/>
</filter>
<clipPath id="clip0_475_3920">
<rect width="9.14059" height="9.14059" fill="white" transform="translate(282.665 139.172)"/>
</clipPath>
<clipPath id="clip1_475_3920">
<rect width="46.8611" height="46.8611" fill="white" transform="translate(318.896 67.4712) rotate(14)"/>
</clipPath>
<clipPath id="clip2_475_3920">
<rect width="8.63457" height="8.63457" fill="white" transform="translate(262.089 332.692) rotate(25.3873)"/>
</clipPath>
<clipPath id="clip3_475_3920">
<rect width="40.5755" height="40.5755" fill="white" transform="translate(316 295) rotate(11.3873)"/>
</clipPath>
<clipPath id="clip4_475_3920">
<rect width="14.9658" height="14.9658" fill="white" transform="translate(33.6055 242.009) rotate(31.301)"/>
</clipPath>
<clipPath id="clip5_475_3920">
<rect width="73.181" height="73.181" fill="white" transform="translate(123.062 165.037) rotate(17.301)"/>
</clipPath>
</defs>
</svg>
