<svg width="24" height="24" viewBox="0 0 24 24" fill="none" xmlns="http://www.w3.org/2000/svg">
<path id="Vector" d="M18.3 0H5.7C4.18827 0 2.73845 0.649226 1.66949 1.80486C0.600534 2.96049 0 4.52785 0 6.16216V17.8378C0 18.6471 0.147435 19.4484 0.433887 20.196C0.720339 20.9436 1.1402 21.6229 1.66949 22.1951C2.73845 23.3508 4.18827 24 5.7 24H18.3C19.8108 23.9966 21.2587 23.3462 22.327 22.1914C23.3953 21.0365 23.9968 19.4711 24 17.8378V6.16216C23.9968 4.52891 23.3953 2.96353 22.327 1.80864C21.2587 0.653754 19.8108 0.00342762 18.3 0ZM13.92 10.7935C13.3296 11.1575 12.6617 11.349 11.982 11.349C11.3023 11.349 10.6344 11.1575 10.044 10.7935L1.824 5.69513C1.93029 4.66417 2.38441 3.71176 3.0995 3.02006C3.81459 2.32837 4.74046 1.94595 5.7 1.94595H18.3C19.2588 1.94879 20.1832 2.33219 20.8978 3.02335C21.6123 3.71451 22.0672 4.66529 22.176 5.69513L13.92 10.7935Z" fill="#051F20"/>
</svg>
