<svg width="23" height="23" viewBox="0 0 23 23" fill="none" xmlns="http://www.w3.org/2000/svg">
<g id="mingcute:map-pin-line">
<g id="Group">
<path id="Vector" fill-rule="evenodd" clip-rule="evenodd" d="M11.8008 4.16663C11.4396 4.16663 11.082 4.23776 10.7484 4.37596C10.4148 4.51416 10.1116 4.71672 9.85624 4.97209C9.60088 5.22745 9.39831 5.5306 9.26011 5.86425C9.12191 6.19789 9.05078 6.55549 9.05078 6.91663C9.05078 7.27776 9.12191 7.63536 9.26011 7.96901C9.39831 8.30265 9.60088 8.60581 9.85624 8.86117C10.1116 9.11653 10.4148 9.3191 10.7484 9.4573C11.082 9.5955 11.4396 9.66663 11.8008 9.66663C12.5301 9.66663 13.2296 9.3769 13.7453 8.86117C14.2611 8.34545 14.5508 7.64597 14.5508 6.91663C14.5508 6.18728 14.2611 5.48781 13.7453 4.97209C13.2296 4.45636 12.5301 4.16663 11.8008 4.16663ZM7.21745 6.91663C7.21762 6.04943 7.46382 5.20008 7.92744 4.46722C8.39106 3.73437 9.05307 3.14807 9.8366 2.77644C10.6201 2.4048 11.493 2.26308 12.3539 2.36772C13.2147 2.47237 14.0282 2.8191 14.6999 3.36763C15.3716 3.91616 15.8738 4.64398 16.1484 5.46657C16.4229 6.28916 16.4584 7.17276 16.2509 8.01474C16.0433 8.85672 15.6011 9.62253 14.9756 10.2232C14.3502 10.8239 13.5671 11.2349 12.7174 11.4083V16.0833C12.7174 16.3264 12.6209 16.5596 12.449 16.7315C12.2771 16.9034 12.0439 17 11.8008 17C11.5577 17 11.3245 16.9034 11.1526 16.7315C10.9807 16.5596 10.8841 16.3264 10.8841 16.0833V11.4083C9.84886 11.197 8.91842 10.6345 8.25025 9.81596C7.58208 8.99745 7.21723 7.97323 7.21745 6.91663ZM9.49903 15.2583C9.51727 15.3774 9.51186 15.4988 9.48311 15.6158C9.45437 15.7328 9.40286 15.8429 9.33152 15.94C9.26018 16.037 9.17041 16.1191 9.06734 16.1814C8.96428 16.2438 8.84994 16.2852 8.73086 16.3033C7.55936 16.4811 6.62895 16.7515 6.01753 17.0504C4.8992 17.5976 6.20636 17.9909 6.88836 18.2035C8.10478 18.584 9.84186 18.8333 11.8008 18.8333C13.7597 18.8333 15.4968 18.584 16.7132 18.2035C17.3998 17.989 18.7024 17.5985 17.584 17.0504C16.9726 16.7515 16.0422 16.482 14.8707 16.3033C14.7503 16.2868 14.6344 16.2465 14.5297 16.1848C14.4251 16.1231 14.3337 16.0411 14.261 15.9438C14.1882 15.8465 14.1356 15.7356 14.1061 15.6177C14.0766 15.4999 14.0708 15.3773 14.0891 15.2572C14.1074 15.137 14.1494 15.0217 14.2126 14.918C14.2759 14.8142 14.3591 14.7241 14.4575 14.6528C14.5559 14.5815 14.6675 14.5305 14.7858 14.5027C14.9041 14.475 15.0268 14.471 15.1466 14.491C16.4189 14.6835 17.5501 14.9925 18.3907 15.404C19.201 15.801 20.0508 16.4692 20.0508 17.4583C20.0508 18.2017 19.5704 18.7416 19.1029 19.0872C17.1321 20.5429 14.1254 20.6666 11.8008 20.6666C9.70895 20.6666 7.77936 20.4026 6.34203 19.9535C5.1962 19.596 3.55078 18.8901 3.55078 17.4583C3.55078 16.4683 4.40053 15.801 5.21086 15.405C6.05145 14.9925 7.18353 14.6845 8.45403 14.491C8.57309 14.4728 8.69458 14.4782 8.81155 14.507C8.92852 14.5357 9.03868 14.5872 9.13573 14.6586C9.23278 14.7299 9.31482 14.8197 9.37715 14.9227C9.43949 15.0258 9.48091 15.1392 9.49903 15.2583Z" fill="#0A612B"/>
</g>
</g>
</svg>
