<svg width="70" height="70" viewBox="0 0 70 70" fill="none" xmlns="http://www.w3.org/2000/svg">
<path d="M61.25 35C61.25 49.4975 49.4975 61.25 35 61.25C20.5025 61.25 8.75 49.4975 8.75 35C8.75 20.5025 20.5025 8.75 35 8.75M49.5833 35C49.5833 43.0542 43.0542 49.5833 35 49.5833C26.9458 49.5833 20.4167 43.0542 20.4167 35C20.4167 26.9458 26.9458 20.4167 35 20.4167M43.0438 27.2756L54.5908 28.4883L60.8502 19.7252L53.339 17.2214L50.8352 9.71021L42.0721 15.9696L43.0438 27.2756ZM43.0438 27.2756L35.0001 34.9997" stroke="url(#paint0_linear_539_3387)" stroke-width="2" stroke-linecap="round" stroke-linejoin="round"/>
<defs>
<linearGradient id="paint0_linear_539_3387" x1="35" y1="8.75" x2="35" y2="61.25" gradientUnits="userSpaceOnUse">
<stop offset="0.322115" stop-color="#19547C"/>
<stop offset="1" stop-color="#EDF2F5"/>
</linearGradient>
</defs>
</svg>
