<svg width="70" height="70" viewBox="0 0 70 70" fill="none" xmlns="http://www.w3.org/2000/svg">
<path d="M32.8738 48.8892C39.3026 48.8892 44.5142 43.6776 44.5142 37.2488C44.5142 30.82 39.3026 25.6084 32.8738 25.6084C26.445 25.6084 21.2334 30.82 21.2334 37.2488C21.2334 43.6776 26.445 48.8892 32.8738 48.8892Z" stroke="url(#paint0_linear_539_3346)" stroke-width="2" stroke-linecap="round" stroke-linejoin="round"/>
<path d="M59.4592 49.0878C57.5477 53.3816 54.6245 57.1485 50.9399 60.0664C47.2552 62.9843 42.9187 64.9664 38.3011 65.8431C33.6835 66.7198 28.9222 66.4651 24.4245 65.1007C19.9268 63.7364 15.8265 61.303 12.4742 58.0086C9.12185 54.7143 6.6173 50.657 5.17472 46.1838C3.73213 41.7105 3.39443 36.9544 4.19049 32.3223C4.98655 27.6901 6.89268 23.3196 9.74588 19.5846C12.5991 15.8497 16.3145 12.8613 20.5743 10.8751M44.2445 10.4624C51.0254 13.3416 56.4625 18.6848 59.4592 25.4147" stroke="url(#paint1_linear_539_3346)" stroke-width="2" stroke-linecap="round" stroke-linejoin="round"/>
<path d="M32.5848 13.3468C35.2636 13.3468 37.4352 11.1752 37.4352 8.49641C37.4352 5.8176 35.2636 3.646 32.5848 3.646C29.906 3.646 27.7344 5.8176 27.7344 8.49641C27.7344 11.1752 29.906 13.3468 32.5848 13.3468Z" stroke="url(#paint2_linear_539_3346)" stroke-width="2" stroke-linecap="round" stroke-linejoin="round"/>
<path d="M61.3797 42.0998C64.0585 42.0998 66.2301 39.9282 66.2301 37.2493C66.2301 34.5705 64.0585 32.3989 61.3797 32.3989C58.7009 32.3989 56.5293 34.5705 56.5293 37.2493C56.5293 39.9282 58.7009 42.0998 61.3797 42.0998Z" stroke="url(#paint3_linear_539_3346)" stroke-width="2" stroke-linecap="round" stroke-linejoin="round"/>
<defs>
<linearGradient id="paint0_linear_539_3346" x1="32.8738" y1="25.6084" x2="32.8738" y2="48.8892" gradientUnits="userSpaceOnUse">
<stop offset="0.432692" stop-color="#19547C"/>
<stop offset="1" stop-color="#E6EBEE"/>
</linearGradient>
<linearGradient id="paint1_linear_539_3346" x1="31.6146" y1="10.4624" x2="31.6146" y2="66.3539" gradientUnits="userSpaceOnUse">
<stop offset="0.432692" stop-color="#19547C"/>
<stop offset="1" stop-color="#E6EBEE"/>
</linearGradient>
<linearGradient id="paint2_linear_539_3346" x1="32.5848" y1="3.646" x2="32.5848" y2="13.3468" gradientUnits="userSpaceOnUse">
<stop offset="0.432692" stop-color="#19547C"/>
<stop offset="1" stop-color="#E6EBEE"/>
</linearGradient>
<linearGradient id="paint3_linear_539_3346" x1="61.3797" y1="32.3989" x2="61.3797" y2="42.0998" gradientUnits="userSpaceOnUse">
<stop offset="0.432692" stop-color="#19547C"/>
<stop offset="1" stop-color="#E6EBEE"/>
</linearGradient>
</defs>
</svg>
