<svg width="22" height="22" viewBox="0 0 22 22" fill="none" xmlns="http://www.w3.org/2000/svg">
<g id="oui:users">
<path id="Union" fill-rule="evenodd" clip-rule="evenodd" d="M8.10719 5.03208C8.01918 5.53215 7.7745 5.99808 7.40286 6.37328C8.03781 6.68348 8.56531 7.15014 8.92571 7.72049C8.49714 7.93761 8.11429 8.22013 7.79286 8.55236C7.43857 7.89445 6.72429 7.23131 5.28571 7.23131C2.42857 7.23131 2.42857 9.84725 2.42857 9.84725V12.4632H6.95857L6.97714 12.5129C6.57999 12.8817 6.25007 13.3066 6 13.7712H2.42857C2.04969 13.7712 1.68633 13.6334 1.41842 13.3881C1.15051 13.1428 1 12.8101 1 12.4632V9.81848C1.02363 9.17125 1.19697 8.53598 1.50857 7.95462C1.77 7.47198 2.18857 6.9501 2.84143 6.55116C2.94619 6.48751 3.05571 6.42822 3.17 6.37328C2.79836 5.99808 2.55368 5.53215 2.46567 5.03208C2.37766 4.53202 2.45011 4.01931 2.67423 3.55621C2.89834 3.09312 3.26448 2.69955 3.72818 2.4233C4.19188 2.14705 4.73321 2 5.28643 2C5.83965 2 6.38098 2.14705 6.84468 2.4233C7.30838 2.69955 7.67452 3.09312 7.89863 3.55621C8.12274 4.01931 8.19519 4.53202 8.10719 5.03208ZM6.29587 5.54024C6.02796 5.78553 5.6646 5.92334 5.28571 5.92334C4.90683 5.92334 4.54347 5.78553 4.27556 5.54024C4.00765 5.29495 3.85714 4.96226 3.85714 4.61537C3.85714 4.26847 4.00765 3.93578 4.27556 3.69049C4.54347 3.4452 4.90683 3.3074 5.28571 3.3074C5.6646 3.3074 6.02796 3.4452 6.29587 3.69049C6.56378 3.93578 6.71429 4.26847 6.71429 4.61537C6.71429 4.96226 6.56378 5.29495 6.29587 5.54024ZM16 13.7712H19.5714C19.9503 13.7712 20.3137 13.6334 20.5816 13.3881C20.8495 13.1428 21 12.8101 21 12.4632V9.774C20.9717 9.1416 20.7984 8.52171 20.4914 7.95462C20.23 7.47198 19.8114 6.9501 19.1586 6.55116C19.0538 6.48751 18.9443 6.42822 18.83 6.37328C19.2016 5.99808 19.4463 5.53215 19.5343 5.03208C19.6223 4.53202 19.5499 4.01931 19.3258 3.55621C19.1017 3.09312 18.7355 2.69955 18.2718 2.4233C17.8081 2.14705 17.2668 2 16.7136 2C16.1603 2 15.619 2.14705 15.1553 2.4233C14.6916 2.69955 14.3255 3.09312 14.1014 3.55621C13.8773 4.01931 13.8048 4.53202 13.8928 5.03208C13.9808 5.53215 14.2255 5.99808 14.5971 6.37328C13.9622 6.68348 13.4347 7.15014 13.0743 7.72049C13.5008 7.93676 13.884 8.21809 14.2071 8.55236C14.5614 7.89445 15.2757 7.23131 16.7143 7.23131C19.5714 7.23131 19.5714 9.84725 19.5714 9.84725V12.4632H15.0414L15.0229 12.5129C15.42 12.8817 15.7499 13.3066 16 13.7712ZM17.7244 5.54024C17.4565 5.78553 17.0932 5.92334 16.7143 5.92334C16.3354 5.92334 15.972 5.78553 15.7041 5.54024C15.4362 5.29495 15.2857 4.96226 15.2857 4.61537C15.2857 4.26847 15.4362 3.93578 15.7041 3.69049C15.972 3.4452 16.3354 3.3074 16.7143 3.3074C17.0932 3.3074 17.4565 3.4452 17.7244 3.69049C17.9923 3.93578 18.1429 4.26847 18.1429 4.61537C18.1429 4.96226 17.9923 5.29495 17.7244 5.54024ZM13.1177 12.9129C13.5777 12.4486 13.8577 11.8312 13.8577 11.155C13.8577 10.7303 13.7447 10.3119 13.5286 9.93607C13.3124 9.56024 12.9995 9.23827 12.617 8.99796C12.2344 8.75765 11.7938 8.60625 11.333 8.55683C10.8722 8.50741 10.4052 8.56146 9.97239 8.71431C9.53955 8.86717 9.15387 9.11422 8.84868 9.43413C8.5435 9.75403 8.32798 10.1372 8.22077 10.5504C8.11355 10.9637 8.11785 11.3946 8.23331 11.806C8.34876 12.2174 8.57189 12.5969 8.88342 12.9116C8.16413 13.2687 7.58399 13.8218 7.22341 14.4943C6.93991 15.0221 6.77015 15.5949 6.72342 16.1815C6.71839 16.2403 6.71553 16.2992 6.71484 16.3581V19.0028C6.71484 19.3497 6.86535 19.6824 7.13326 19.9277C7.40117 20.173 7.76453 20.3108 8.14341 20.3108H13.8577C14.2366 20.3108 14.5999 20.173 14.8679 19.9277C15.1358 19.6824 15.2863 19.3497 15.2863 19.0028V16.3568C15.2649 15.7103 15.0919 15.0755 14.7791 14.4956C14.4182 13.8229 13.8375 13.2698 13.1177 12.9129ZM8.14341 19.0028V16.3869C8.14341 16.3869 8.14341 13.771 11.0006 13.771C13.8577 13.771 13.8577 16.3869 13.8577 16.3869V19.0028H8.14341ZM12.0107 12.0799C12.2786 11.8346 12.4291 11.5019 12.4291 11.155C12.4291 10.8081 12.2786 10.4754 12.0107 10.2301C11.7428 9.98485 11.3794 9.84705 11.0006 9.84705C10.6217 9.84705 10.2583 9.98485 9.99041 10.2301C9.7225 10.4754 9.57199 10.8081 9.57199 11.155C9.57199 11.5019 9.7225 11.8346 9.99041 12.0799C10.2583 12.3252 10.6217 12.463 11.0006 12.463C11.3794 12.463 11.7428 12.3252 12.0107 12.0799Z" fill="#0A612B"/>
</g>
</svg>
