<svg width="130" height="28" viewBox="0 0 130 28" fill="none" xmlns="http://www.w3.org/2000/svg">
<path d="M24.0414 20.3148C24.5414 20.6148 25.0414 20.5148 25.3414 20.4148C25.6414 20.3148 26.2414 19.8148 26.6414 19.2158C26.8414 19.0158 28.3414 17.2158 26.5414 15.3158L20.4414 9.21583C20.9414 9.21583 21.3414 7.91583 20.6414 7.11583L14.7414 1.21583C13.8414 0.415827 13.3414 0.0158273 12.6414 0.0158273H11.7414C11.2414 -0.0851727 11.0414 0.314827 11.0414 0.714827V5.51483C11.0414 6.01483 11.0414 6.41483 11.4414 6.71483H0.741421C0.441421 6.71483 0.141421 6.81483 0.0414214 7.11483C-0.0585786 7.51483 0.0414214 7.71483 0.141421 7.91483L7.44142 18.1148H12.7414L16.5414 15.3148L16.8414 15.7148C16.8414 15.7148 2.84142 26.0148 2.94142 26.0148C2.64142 26.2148 2.54142 26.7148 2.64142 26.9138C2.74142 27.1148 2.94142 27.5148 3.24142 27.5148H10.9414C11.6414 27.5148 12.3414 27.0148 12.3414 26.2148V24.0148C12.3414 23.2148 12.3414 23.2148 13.3414 23.2148C13.3414 23.2148 14.0414 23.2148 14.9414 23.2148C14.4414 23.5148 13.6414 23.9138 13.6414 23.9138C13.6414 23.9138 13.5414 24.1138 13.5414 24.2148C13.4414 24.4138 13.2414 25.2148 13.2414 25.2148C13.2414 25.2148 13.1414 25.4138 13.1414 25.5148C13.1414 25.6148 13.1414 25.8148 13.1414 25.8148H26.8414V24.8148H14.4414C14.4414 24.8148 14.6414 24.5148 14.6414 24.4148C14.7414 24.4148 16.5414 23.4148 17.1414 23.1148C17.5414 23.1148 17.8414 23.1148 17.8414 23.1148C19.3414 23.1148 20.2414 22.7158 21.0414 21.5148C21.0414 21.5148 22.5414 18.7148 22.6414 18.6148C22.8414 18.4148 23.1414 18.0148 23.9414 18.1148C24.4414 18.2158 24.9414 18.6148 25.0414 19.1148C25.1414 19.6148 24.9414 19.8148 24.8414 19.8148C24.8414 20.0148 24.3414 20.2148 24.0414 20.3148Z" fill="#FBFDFF"/>
<path d="M12.9415 0.914845C13.6415 1.11484 17.5415 5.21484 17.5415 5.21484C19.3415 7.01484 20.4415 7.81484 19.7415 8.41484C18.8415 7.61484 17.3415 6.61484 15.1415 6.61484H13.0415C12.4415 6.61484 12.1415 6.31484 12.1415 5.71484V0.714844C12.1415 0.714844 12.5415 0.814845 12.9415 0.914845ZM1.14148 7.71484L7.94148 17.2148H12.3415L16.6415 14.0148L18.1415 15.9138L3.74148 26.6148H10.2415C10.9415 26.6148 11.3415 26.4148 11.3415 25.7158V23.6148C11.3415 22.5148 11.9415 22.4148 13.0415 22.4148H15.1415H17.7415C18.4415 22.4148 19.4415 22.2158 19.8415 21.8148C20.2415 21.4148 21.2415 19.4148 21.6415 18.7148C21.8415 18.3148 22.2415 17.5148 23.7415 17.5148C24.8415 17.5148 25.6415 18.5148 25.7415 19.0148C26.2415 18.5148 26.9415 17.3148 25.8415 16.1148L18.9415 9.41484C17.5415 8.11484 15.4415 7.91484 14.5415 7.91484C14.6415 7.71484 1.14148 7.71484 1.14148 7.71484Z" fill="#74BE45"/>
<path d="M25.6415 17.715C25.8624 17.715 26.0415 17.536 26.0415 17.315C26.0415 17.0941 25.8624 16.915 25.6415 16.915C25.4205 16.915 25.2415 17.0941 25.2415 17.315C25.2415 17.536 25.4205 17.715 25.6415 17.715Z" fill="#FBFDFF"/>
<path d="M29.8414 10.5147H34.2414H38.2414C40.8414 10.5147 40.2414 12.4147 39.8414 12.9147C38.6414 14.2147 37.5414 14.6147 36.6414 15.2147V11.3147H32.2414V23.3147H36.6414V19.4147C37.0414 19.2157 39.7414 17.8147 40.8414 17.1147C41.2414 16.9147 43.1414 15.7147 44.2414 13.8147C45.0414 12.3147 44.8414 10.4147 44.2414 9.21475C43.6414 8.01475 41.9414 6.61475 39.6414 6.61475H32.2414C31.3414 6.61475 30.7414 7.01475 30.5414 7.91475C30.4414 8.01475 29.8414 10.5147 29.8414 10.5147Z" fill="#FBFDFF"/>
<path d="M101.241 11.4147C101.14 9.81475 100.741 8.91475 99.5415 8.01475C98.6415 7.31475 97.0415 6.71475 95.2415 6.71475H85.6415H79.4415C77.9415 6.71475 76.0415 7.01475 75.1415 8.51475C74.3415 10.0147 74.4415 11.8147 75.6415 13.2147C75.6415 13.2147 80.0415 18.1147 80.0415 18.2147C80.5415 18.9137 80.2415 19.5147 79.5415 19.5147H72.7415V6.71475H68.3415V12.5147L63.5415 6.61475H42.6415C44.4415 7.31475 45.4415 8.91475 45.5415 10.4147H45.9415H46.4415V23.3147H56.9415L57.9415 19.5147H50.8415V16.9147H55.8415L56.7415 13.1147H50.8415V10.6147H59.3415V23.3147H63.7415V13.1147L68.4415 18.4147V23.3147H80.5415C82.2415 23.3147 84.2415 23.0147 85.1415 21.5147C86.0415 20.1147 85.6415 18.4137 84.5415 16.8147L80.1415 11.8147C79.7415 11.2147 79.6415 10.5147 80.7415 10.5147H93.4415C96.1405 10.5147 96.2415 11.9147 96.3405 12.5147C96.6405 14.9147 96.2405 16.7147 95.9415 17.5147C95.3415 19.3147 94.3415 19.8147 93.7415 19.8147C93.1405 19.8147 92.1405 19.4147 91.5415 17.5147C91.2415 16.5147 90.6415 13.2147 91.4415 11.3147H86.1415C85.9415 15.9147 86.8415 18.1147 87.6415 19.5147C89.1415 22.2147 91.1415 23.7147 93.7415 23.7147C96.7415 23.7147 98.3415 22.2147 99.9415 19.5147C100.641 18.1147 101.541 15.4147 101.241 11.4147Z" fill="#FBFDFF"/>
<path d="M99.1415 6.71484C100.942 7.51484 101.841 8.71484 102.141 10.5148H103.541V22.7148C103.541 24.6138 103.941 25.5148 104.241 26.2148L108.441 23.6138C108.041 22.7148 107.941 21.7148 107.941 21.1138V16.9138H113.041L114.141 13.1138H107.941V10.4138H118.541V23.3148H122.941V10.5148H128.64L128.04 7.81484C127.84 7.01484 127.14 6.71484 126.24 6.71484H118.94H99.1415Z" fill="#FBFDFF"/>
<path d="M122.741 24.9146H107.541V25.9146H122.741V24.9146Z" fill="#FBFDFF"/>
<path d="M26.8414 24.9146H102.741V25.9146L26.8414 26.0146V24.9146Z" fill="#FBFDFF"/>
<path d="M129.941 23.7149C129.941 25.0149 128.84 26.1139 127.541 26.1139C126.242 26.1139 125.141 25.0139 125.141 23.7149C125.141 22.4139 126.242 21.3149 127.541 21.3149C128.84 21.3149 129.941 22.4149 129.941 23.7149ZM125.641 23.7149C125.641 24.7149 126.442 25.5149 127.442 25.5149C128.442 25.5149 129.242 24.7149 129.242 23.7149C129.242 22.7149 128.442 21.9139 127.442 21.9139C126.442 21.9139 125.641 22.7149 125.641 23.7149ZM127.041 23.6149V23.0149H127.641C127.942 23.0149 127.942 23.2149 127.942 23.3149C127.942 23.5149 127.841 23.6149 127.542 23.6149H127.041ZM126.641 24.8149H127.041V24.0149H127.541C127.841 24.0149 127.841 24.1149 127.841 24.4139C127.841 24.6139 127.841 24.7149 127.942 24.8139H128.442V24.7139C128.341 24.7139 128.341 24.6129 128.341 24.3139C128.341 23.9139 128.241 23.8139 128.041 23.8139C128.241 23.7139 128.341 23.5139 128.341 23.3139C128.341 23.1139 128.241 22.7139 127.641 22.7139H126.541V24.8139L126.641 24.8149Z" fill="#FBFDFF"/>
</svg>
