<svg width="23" height="23" viewBox="0 0 23 23" fill="none" xmlns="http://www.w3.org/2000/svg">
<g id="qlementine-icons:layout-pages-wrap-16">
<g id="Union">
<mask id="path-1-outside-1_161_1153" maskUnits="userSpaceOnUse" x="1" y="0.5" width="20" height="22" fill="black">
<rect fill="white" x="1" y="0.5" width="20" height="22"/>
<path fill-rule="evenodd" clip-rule="evenodd" d="M2.20376 2.52506C2 2.92509 2 3.45012 2 4.50019V7.25036C2 8.29918 2 8.82421 2.20376 9.22548C2.38359 9.57862 2.67068 9.86571 3.02381 10.0455C3.42384 10.2493 3.94887 10.2493 4.99894 10.2493H6.49903C7.54785 10.2493 8.07288 10.2493 8.47415 10.0455C8.82729 9.86571 9.11438 9.57862 9.29421 9.22548C9.49797 8.82546 9.49797 8.30043 9.49797 7.25036V4.50019C9.49797 3.45137 9.49797 2.92634 9.29421 2.52506C9.11419 2.17129 8.82668 1.88502 8.47415 1.70501C8.07413 1.50125 7.5491 1.50125 6.49903 1.50125H4.99894C3.95012 1.50125 3.42509 1.50125 3.02381 1.70501C2.67004 1.88502 2.38377 2.17254 2.20376 2.52506ZM6.50028 2.75008H5.00019C4.4539 2.75008 4.12013 2.75008 3.87012 2.77008C3.79264 2.77334 3.71564 2.7838 3.6401 2.80133L3.6001 2.81258L3.59135 2.81633C3.47388 2.87653 3.37849 2.97236 3.31883 3.0901L3.31383 3.1001C3.29211 3.18875 3.27789 3.27908 3.27133 3.37012C3.25008 3.62013 3.25008 3.9539 3.25008 4.50019V7.25036C3.24403 7.6276 3.25112 8.00493 3.27133 8.38168C3.27459 8.45916 3.28505 8.53616 3.30258 8.61169L3.31383 8.6517C3.37327 8.77346 3.47067 8.87261 3.59135 8.93422L3.6001 8.93922C3.68875 8.96094 3.77908 8.97516 3.87012 8.98172C4.12013 9.00297 4.45389 9.00297 5.00015 9.00297H5.00019H6.50028C7.04657 9.00297 7.38034 9.00172 7.63035 8.98172C7.70783 8.97846 7.78483 8.96799 7.86037 8.95047L7.90037 8.93922L7.90912 8.93546C8.02724 8.87516 8.12312 8.77759 8.18289 8.6592L8.18664 8.6517C8.20836 8.56305 8.22258 8.47272 8.22914 8.38168C8.25039 8.13167 8.25039 7.79789 8.25039 7.25161V4.50144C8.25039 3.95515 8.24914 3.62138 8.22914 3.37137C8.21914 3.25386 8.20789 3.18386 8.19789 3.14135L8.18664 3.10135C8.12742 2.97912 8.03 2.87951 7.90912 2.81758L7.90037 2.81383C7.81172 2.79211 7.72139 2.77789 7.63035 2.77133C7.38034 2.75008 7.04657 2.75008 6.50028 2.75008ZM2.20376 13.7758C2 14.1758 2 14.7008 2 15.7509V18.5011C2 19.5499 2 20.0749 2.20376 20.4762C2.38359 20.8293 2.67068 21.1164 3.02381 21.2962C3.42384 21.5 3.94886 21.5 4.99891 21.5H4.99894H6.49903H6.49906C7.54786 21.5 8.07288 21.5 8.47415 21.2962C8.82729 21.1164 9.11438 20.8293 9.29421 20.4762C9.49797 20.0762 9.49797 19.5511 9.49797 18.5011V15.7509C9.49797 14.7021 9.49797 14.177 9.29421 13.7758C9.11419 13.422 8.82668 13.1357 8.47415 12.9557C8.07413 12.752 7.5491 12.752 6.49905 12.752H6.49903H4.99894H4.99892C3.95012 12.752 3.42509 12.752 3.02381 12.9557C2.67004 13.1357 2.38377 13.4232 2.20376 13.7758ZM6.50028 14.0008H5.00019C4.4539 14.0008 4.12013 14.002 3.87012 14.022C3.75261 14.032 3.68261 14.0433 3.6401 14.0533L3.6001 14.0645L3.59385 14.067L3.59135 14.0695C3.47407 14.1294 3.3787 14.2248 3.31883 14.3421L3.31383 14.3508C3.29211 14.4395 3.27789 14.5298 3.27133 14.6208C3.25008 14.8708 3.25008 15.2059 3.25008 15.7509V18.5011C3.25008 19.0473 3.25133 19.3811 3.27133 19.6311C3.27459 19.7086 3.28505 19.7856 3.30258 19.8611L3.31383 19.9012L3.31758 19.9087L3.31883 19.9112C3.3787 20.0284 3.47407 20.1238 3.59135 20.1837L3.6001 20.1874C3.68875 20.2091 3.77908 20.2234 3.87012 20.2299C4.12013 20.2512 4.4539 20.2512 5.00019 20.2512H6.50028C7.04657 20.2512 7.38034 20.2499 7.63035 20.2299C7.74786 20.2199 7.81786 20.2087 7.86037 20.1987L7.90037 20.1874L7.90662 20.1837H7.90912C8.02705 20.1237 8.12291 20.0278 8.18289 19.9099L8.18664 19.9012C8.20836 19.8125 8.22258 19.7222 8.22914 19.6311C8.25039 19.3811 8.25039 19.0473 8.25039 18.5011V15.7509C8.25039 15.2046 8.24914 14.8708 8.22914 14.6208C8.21914 14.5033 8.20789 14.4333 8.19789 14.3908L8.18664 14.3508L8.18164 14.3421C8.12198 14.2243 8.02659 14.1285 7.90912 14.0683H7.90787L7.90037 14.0645C7.81172 14.0428 7.72139 14.0286 7.63035 14.022C7.38034 14.0008 7.04657 14.0008 6.50028 14.0008ZM11.9969 4.49894C11.9969 3.45012 11.9969 2.92509 12.2006 2.52381C12.3805 2.17068 12.6676 1.88359 13.0207 1.70376C13.4207 1.5 13.9457 1.5 14.9958 1.5H16.4959C17.5447 1.5 18.0698 1.5 18.471 1.70376C18.8242 1.88359 19.1113 2.17068 19.2911 2.52381C19.4961 2.92384 19.4961 3.44887 19.4961 4.49894V7.24911C19.4961 8.29792 19.4961 8.82296 19.2911 9.22423C19.1111 9.578 18.8236 9.86427 18.471 10.0443C18.071 10.248 17.546 10.248 16.4959 10.248H14.9958C13.947 10.248 13.422 10.248 13.0207 10.0443C12.6669 9.86427 12.3806 9.57676 12.2006 9.22423C11.9969 8.82421 11.9969 8.29918 11.9969 7.24911V4.49894ZM15.0008 2.75008H16.5009C17.0472 2.75008 17.381 2.75008 17.631 2.77008C17.7085 2.77334 17.7855 2.7838 17.861 2.80133L17.901 2.81258L17.911 2.81633C18.0285 2.87653 18.1239 2.97236 18.1835 3.0901L18.1873 3.1001C18.209 3.18875 18.2232 3.27908 18.2298 3.37012C18.251 3.62013 18.251 3.9539 18.251 4.50019V7.25161C18.251 7.79789 18.2498 8.13167 18.2298 8.38168C18.2265 8.45916 18.216 8.53616 18.1985 8.61169L18.1873 8.6517L18.1835 8.66045C18.1241 8.77865 18.0287 8.87495 17.911 8.93546H17.9085L17.901 8.93922C17.8123 8.96094 17.722 8.97516 17.631 8.98172C17.381 9.00297 17.046 9.00297 16.5009 9.00297H16.5009H15.0008C14.4545 9.00297 14.1208 9.00172 13.8707 8.98172C13.7532 8.97172 13.6832 8.96047 13.6407 8.95047L13.6007 8.93922L13.592 8.93546C13.4739 8.87516 13.378 8.77759 13.3182 8.6592L13.3145 8.6517C13.2927 8.56305 13.2785 8.47272 13.272 8.38168C13.2507 8.13167 13.2507 7.79789 13.2507 7.25161V4.50144C13.2507 3.95515 13.252 3.62138 13.272 3.37137C13.2752 3.29389 13.2857 3.21689 13.3032 3.14135L13.3145 3.10135L13.3195 3.0926C13.3789 2.97439 13.4743 2.8781 13.592 2.81758L13.6007 2.81383C13.6894 2.79211 13.7797 2.77789 13.8707 2.77133C14.1208 2.75008 14.4558 2.75008 15.0008 2.75008ZM20.5687 11.6837C20.6859 11.8009 20.7518 11.9599 20.7518 12.1257L20.748 12.1207V14.3958C20.748 15.0696 20.748 15.6159 20.7105 16.0584C20.673 16.5147 20.5942 16.9147 20.4055 17.2847C20.1061 17.8711 19.6293 18.348 19.0429 18.6473C18.6716 18.8361 18.2716 18.9136 17.8166 18.9511C17.3791 18.9886 16.8316 18.9886 16.1541 18.9886H16.154H14.1413L15.5789 20.4262C15.6928 20.5441 15.7558 20.702 15.7544 20.8658C15.7529 21.0297 15.6872 21.1865 15.5713 21.3024C15.4554 21.4183 15.2987 21.484 15.1348 21.4854C14.9709 21.4868 14.813 21.4238 14.6951 21.31L12.195 18.8098C12.0786 18.6938 12.0126 18.5366 12.0112 18.3723V18.3636C12.0126 18.1992 12.0786 18.042 12.195 17.926L14.6951 15.4259C14.8125 15.3087 14.9716 15.2429 15.1375 15.243C15.3033 15.2431 15.4624 15.3091 15.5796 15.4265C15.6968 15.5439 15.7625 15.703 15.7624 15.8688C15.7623 16.0347 15.6963 16.1937 15.5789 16.3109L14.1413 17.7485H16.129C16.8353 17.7485 17.3315 17.7473 17.7166 17.716C18.0941 17.6848 18.3116 17.6273 18.4766 17.5435C18.8297 17.3637 19.1168 17.0766 19.2967 16.7235C19.3817 16.5584 19.4392 16.3422 19.4692 15.9634C19.5017 15.5809 19.5017 15.0858 19.5017 14.3758V12.1257C19.5017 11.9599 19.5675 11.8009 19.6847 11.6837C19.802 11.5665 19.9609 11.5006 20.1267 11.5006C20.2925 11.5006 20.4515 11.5665 20.5687 11.6837Z"/>
</mask>
<path fill-rule="evenodd" clip-rule="evenodd" d="M2.20376 2.52506C2 2.92509 2 3.45012 2 4.50019V7.25036C2 8.29918 2 8.82421 2.20376 9.22548C2.38359 9.57862 2.67068 9.86571 3.02381 10.0455C3.42384 10.2493 3.94887 10.2493 4.99894 10.2493H6.49903C7.54785 10.2493 8.07288 10.2493 8.47415 10.0455C8.82729 9.86571 9.11438 9.57862 9.29421 9.22548C9.49797 8.82546 9.49797 8.30043 9.49797 7.25036V4.50019C9.49797 3.45137 9.49797 2.92634 9.29421 2.52506C9.11419 2.17129 8.82668 1.88502 8.47415 1.70501C8.07413 1.50125 7.5491 1.50125 6.49903 1.50125H4.99894C3.95012 1.50125 3.42509 1.50125 3.02381 1.70501C2.67004 1.88502 2.38377 2.17254 2.20376 2.52506ZM6.50028 2.75008H5.00019C4.4539 2.75008 4.12013 2.75008 3.87012 2.77008C3.79264 2.77334 3.71564 2.7838 3.6401 2.80133L3.6001 2.81258L3.59135 2.81633C3.47388 2.87653 3.37849 2.97236 3.31883 3.0901L3.31383 3.1001C3.29211 3.18875 3.27789 3.27908 3.27133 3.37012C3.25008 3.62013 3.25008 3.9539 3.25008 4.50019V7.25036C3.24403 7.6276 3.25112 8.00493 3.27133 8.38168C3.27459 8.45916 3.28505 8.53616 3.30258 8.61169L3.31383 8.6517C3.37327 8.77346 3.47067 8.87261 3.59135 8.93422L3.6001 8.93922C3.68875 8.96094 3.77908 8.97516 3.87012 8.98172C4.12013 9.00297 4.45389 9.00297 5.00015 9.00297H5.00019H6.50028C7.04657 9.00297 7.38034 9.00172 7.63035 8.98172C7.70783 8.97846 7.78483 8.96799 7.86037 8.95047L7.90037 8.93922L7.90912 8.93546C8.02724 8.87516 8.12312 8.77759 8.18289 8.6592L8.18664 8.6517C8.20836 8.56305 8.22258 8.47272 8.22914 8.38168C8.25039 8.13167 8.25039 7.79789 8.25039 7.25161V4.50144C8.25039 3.95515 8.24914 3.62138 8.22914 3.37137C8.21914 3.25386 8.20789 3.18386 8.19789 3.14135L8.18664 3.10135C8.12742 2.97912 8.03 2.87951 7.90912 2.81758L7.90037 2.81383C7.81172 2.79211 7.72139 2.77789 7.63035 2.77133C7.38034 2.75008 7.04657 2.75008 6.50028 2.75008ZM2.20376 13.7758C2 14.1758 2 14.7008 2 15.7509V18.5011C2 19.5499 2 20.0749 2.20376 20.4762C2.38359 20.8293 2.67068 21.1164 3.02381 21.2962C3.42384 21.5 3.94886 21.5 4.99891 21.5H4.99894H6.49903H6.49906C7.54786 21.5 8.07288 21.5 8.47415 21.2962C8.82729 21.1164 9.11438 20.8293 9.29421 20.4762C9.49797 20.0762 9.49797 19.5511 9.49797 18.5011V15.7509C9.49797 14.7021 9.49797 14.177 9.29421 13.7758C9.11419 13.422 8.82668 13.1357 8.47415 12.9557C8.07413 12.752 7.5491 12.752 6.49905 12.752H6.49903H4.99894H4.99892C3.95012 12.752 3.42509 12.752 3.02381 12.9557C2.67004 13.1357 2.38377 13.4232 2.20376 13.7758ZM6.50028 14.0008H5.00019C4.4539 14.0008 4.12013 14.002 3.87012 14.022C3.75261 14.032 3.68261 14.0433 3.6401 14.0533L3.6001 14.0645L3.59385 14.067L3.59135 14.0695C3.47407 14.1294 3.3787 14.2248 3.31883 14.3421L3.31383 14.3508C3.29211 14.4395 3.27789 14.5298 3.27133 14.6208C3.25008 14.8708 3.25008 15.2059 3.25008 15.7509V18.5011C3.25008 19.0473 3.25133 19.3811 3.27133 19.6311C3.27459 19.7086 3.28505 19.7856 3.30258 19.8611L3.31383 19.9012L3.31758 19.9087L3.31883 19.9112C3.3787 20.0284 3.47407 20.1238 3.59135 20.1837L3.6001 20.1874C3.68875 20.2091 3.77908 20.2234 3.87012 20.2299C4.12013 20.2512 4.4539 20.2512 5.00019 20.2512H6.50028C7.04657 20.2512 7.38034 20.2499 7.63035 20.2299C7.74786 20.2199 7.81786 20.2087 7.86037 20.1987L7.90037 20.1874L7.90662 20.1837H7.90912C8.02705 20.1237 8.12291 20.0278 8.18289 19.9099L8.18664 19.9012C8.20836 19.8125 8.22258 19.7222 8.22914 19.6311C8.25039 19.3811 8.25039 19.0473 8.25039 18.5011V15.7509C8.25039 15.2046 8.24914 14.8708 8.22914 14.6208C8.21914 14.5033 8.20789 14.4333 8.19789 14.3908L8.18664 14.3508L8.18164 14.3421C8.12198 14.2243 8.02659 14.1285 7.90912 14.0683H7.90787L7.90037 14.0645C7.81172 14.0428 7.72139 14.0286 7.63035 14.022C7.38034 14.0008 7.04657 14.0008 6.50028 14.0008ZM11.9969 4.49894C11.9969 3.45012 11.9969 2.92509 12.2006 2.52381C12.3805 2.17068 12.6676 1.88359 13.0207 1.70376C13.4207 1.5 13.9457 1.5 14.9958 1.5H16.4959C17.5447 1.5 18.0698 1.5 18.471 1.70376C18.8242 1.88359 19.1113 2.17068 19.2911 2.52381C19.4961 2.92384 19.4961 3.44887 19.4961 4.49894V7.24911C19.4961 8.29792 19.4961 8.82296 19.2911 9.22423C19.1111 9.578 18.8236 9.86427 18.471 10.0443C18.071 10.248 17.546 10.248 16.4959 10.248H14.9958C13.947 10.248 13.422 10.248 13.0207 10.0443C12.6669 9.86427 12.3806 9.57676 12.2006 9.22423C11.9969 8.82421 11.9969 8.29918 11.9969 7.24911V4.49894ZM15.0008 2.75008H16.5009C17.0472 2.75008 17.381 2.75008 17.631 2.77008C17.7085 2.77334 17.7855 2.7838 17.861 2.80133L17.901 2.81258L17.911 2.81633C18.0285 2.87653 18.1239 2.97236 18.1835 3.0901L18.1873 3.1001C18.209 3.18875 18.2232 3.27908 18.2298 3.37012C18.251 3.62013 18.251 3.9539 18.251 4.50019V7.25161C18.251 7.79789 18.2498 8.13167 18.2298 8.38168C18.2265 8.45916 18.216 8.53616 18.1985 8.61169L18.1873 8.6517L18.1835 8.66045C18.1241 8.77865 18.0287 8.87495 17.911 8.93546H17.9085L17.901 8.93922C17.8123 8.96094 17.722 8.97516 17.631 8.98172C17.381 9.00297 17.046 9.00297 16.5009 9.00297H16.5009H15.0008C14.4545 9.00297 14.1208 9.00172 13.8707 8.98172C13.7532 8.97172 13.6832 8.96047 13.6407 8.95047L13.6007 8.93922L13.592 8.93546C13.4739 8.87516 13.378 8.77759 13.3182 8.6592L13.3145 8.6517C13.2927 8.56305 13.2785 8.47272 13.272 8.38168C13.2507 8.13167 13.2507 7.79789 13.2507 7.25161V4.50144C13.2507 3.95515 13.252 3.62138 13.272 3.37137C13.2752 3.29389 13.2857 3.21689 13.3032 3.14135L13.3145 3.10135L13.3195 3.0926C13.3789 2.97439 13.4743 2.8781 13.592 2.81758L13.6007 2.81383C13.6894 2.79211 13.7797 2.77789 13.8707 2.77133C14.1208 2.75008 14.4558 2.75008 15.0008 2.75008ZM20.5687 11.6837C20.6859 11.8009 20.7518 11.9599 20.7518 12.1257L20.748 12.1207V14.3958C20.748 15.0696 20.748 15.6159 20.7105 16.0584C20.673 16.5147 20.5942 16.9147 20.4055 17.2847C20.1061 17.8711 19.6293 18.348 19.0429 18.6473C18.6716 18.8361 18.2716 18.9136 17.8166 18.9511C17.3791 18.9886 16.8316 18.9886 16.1541 18.9886H16.154H14.1413L15.5789 20.4262C15.6928 20.5441 15.7558 20.702 15.7544 20.8658C15.7529 21.0297 15.6872 21.1865 15.5713 21.3024C15.4554 21.4183 15.2987 21.484 15.1348 21.4854C14.9709 21.4868 14.813 21.4238 14.6951 21.31L12.195 18.8098C12.0786 18.6938 12.0126 18.5366 12.0112 18.3723V18.3636C12.0126 18.1992 12.0786 18.042 12.195 17.926L14.6951 15.4259C14.8125 15.3087 14.9716 15.2429 15.1375 15.243C15.3033 15.2431 15.4624 15.3091 15.5796 15.4265C15.6968 15.5439 15.7625 15.703 15.7624 15.8688C15.7623 16.0347 15.6963 16.1937 15.5789 16.3109L14.1413 17.7485H16.129C16.8353 17.7485 17.3315 17.7473 17.7166 17.716C18.0941 17.6848 18.3116 17.6273 18.4766 17.5435C18.8297 17.3637 19.1168 17.0766 19.2967 16.7235C19.3817 16.5584 19.4392 16.3422 19.4692 15.9634C19.5017 15.5809 19.5017 15.0858 19.5017 14.3758V12.1257C19.5017 11.9599 19.5675 11.8009 19.6847 11.6837C19.802 11.5665 19.9609 11.5006 20.1267 11.5006C20.2925 11.5006 20.4515 11.5665 20.5687 11.6837Z" fill="#0A612B"/>
<path d="M2.20376 2.52506L2.04182 2.44237L2.04174 2.44253L2.20376 2.52506ZM2.20376 9.22548L2.04164 9.30781L2.04173 9.30799L2.20376 9.22548ZM3.02381 10.0455L3.10634 9.88351L3.10632 9.8835L3.02381 10.0455ZM8.47415 10.0455L8.55648 10.2077L8.55666 10.2076L8.47415 10.0455ZM9.29421 9.22548L9.13218 9.14295L9.13217 9.14297L9.29421 9.22548ZM9.29421 2.52506L9.45633 2.44274L9.45626 2.4426L9.29421 2.52506ZM8.47415 1.70501L8.55685 1.54307L8.55668 1.54299L8.47415 1.70501ZM3.02381 1.70501L2.94149 1.54289L2.94135 1.54296L3.02381 1.70501ZM3.87012 2.77008L3.87777 2.95188L3.88462 2.95133L3.87012 2.77008ZM3.6401 2.80133L3.59896 2.62402L3.59087 2.62629L3.6401 2.80133ZM3.6001 2.81258L3.55087 2.63754L3.53941 2.64077L3.52847 2.64545L3.6001 2.81258ZM3.59135 2.81633L3.51955 2.64881L3.50843 2.65451L3.59135 2.81633ZM3.31883 3.0901L3.15663 3.00792L3.1562 3.00878L3.31883 3.0901ZM3.31383 3.1001L3.1512 3.01878L3.14208 3.03702L3.13723 3.05682L3.31383 3.1001ZM3.27133 3.37012L3.45252 3.38552L3.45269 3.38318L3.27133 3.37012ZM3.25008 7.25036L3.43191 7.25328V7.25036H3.25008ZM3.27133 8.38168L3.45301 8.37403L3.4529 8.37194L3.27133 8.38168ZM3.30258 8.61169L3.12527 8.65284L3.12754 8.66092L3.30258 8.61169ZM3.31383 8.6517L3.13879 8.70093L3.14324 8.71672L3.15043 8.73146L3.31383 8.6517ZM3.59135 8.93422L3.68167 8.77617L3.67402 8.77226L3.59135 8.93422ZM3.6001 8.93922L3.50988 9.09709L3.53204 9.10975L3.55682 9.11582L3.6001 8.93922ZM3.87012 8.98172L3.88552 8.80053L3.88318 8.80036L3.87012 8.98172ZM7.63035 8.98172L7.6227 8.79992L7.61585 8.80047L7.63035 8.98172ZM7.86037 8.95047L7.90151 9.12778L7.9096 9.1255L7.86037 8.95047ZM7.90037 8.93922L7.9496 9.11425L7.96106 9.11103L7.972 9.10634L7.90037 8.93922ZM7.90912 8.93546L7.98091 9.10297L7.9918 9.09741L7.90912 8.93546ZM8.18289 8.6592L8.34521 8.74114L8.34552 8.74051L8.18289 8.6592ZM8.18664 8.6517L8.34927 8.73301L8.35839 8.71478L8.36324 8.69498L8.18664 8.6517ZM8.22914 8.38168L8.04795 8.36628L8.04778 8.36861L8.22914 8.38168ZM8.22914 3.37137L8.41039 3.35687L8.41031 3.35595L8.22914 3.37137ZM8.19789 3.14135L8.37505 3.09967L8.37293 3.09212L8.19789 3.14135ZM8.18664 3.10135L8.36167 3.05212L8.35731 3.03659L8.35027 3.02207L8.18664 3.10135ZM7.90912 2.81758L7.99222 2.65537L7.98074 2.65045L7.90912 2.81758ZM7.90037 2.81383L7.97199 2.6467L7.95821 2.6408L7.94365 2.63723L7.90037 2.81383ZM7.63035 2.77133L7.61495 2.95252L7.61728 2.95269L7.63035 2.77133ZM2.20376 13.7758L2.04182 13.6931L2.04174 13.6932L2.20376 13.7758ZM2.20376 20.4762L2.04164 20.5585L2.04173 20.5587L2.20376 20.4762ZM3.02381 21.2962L3.10634 21.1342L3.10632 21.1342L3.02381 21.2962ZM8.47415 21.2962L8.55648 21.4584L8.55667 21.4583L8.47415 21.2962ZM9.29421 20.4762L9.13218 20.3937L9.13217 20.3937L9.29421 20.4762ZM9.29421 13.7758L9.45633 13.6934L9.45626 13.6933L9.29421 13.7758ZM8.47415 12.9557L8.55685 12.7938L8.55668 12.7937L8.47415 12.9557ZM3.02381 12.9557L2.94149 12.7936L2.94135 12.7937L3.02381 12.9557ZM3.87012 14.022L3.85562 13.8408L3.8547 13.8409L3.87012 14.022ZM3.6401 14.0533L3.59842 13.8761L3.59087 13.8782L3.6401 14.0533ZM3.6001 14.0645L3.55087 13.8895L3.54154 13.8921L3.53254 13.8957L3.6001 14.0645ZM3.59385 14.067L3.52629 13.8982L3.49165 13.9121L3.46527 13.9385L3.59385 14.067ZM3.59135 14.0695L3.67402 14.2315L3.69961 14.2184L3.71993 14.1981L3.59135 14.0695ZM3.31883 14.3421L3.47688 14.4324L3.48078 14.4247L3.31883 14.3421ZM3.31383 14.3508L3.15596 14.2606L3.1433 14.2827L3.13723 14.3075L3.31383 14.3508ZM3.27133 14.6208L3.45252 14.6362L3.45269 14.6339L3.27133 14.6208ZM3.27133 19.6311L3.45313 19.6235L3.45258 19.6166L3.27133 19.6311ZM3.30258 19.8611L3.12527 19.9023L3.12754 19.9104L3.30258 19.8611ZM3.31383 19.9012L3.13879 19.9504L3.14347 19.967L3.1512 19.9825L3.31383 19.9012ZM3.31758 19.9087L3.15495 19.99L3.15495 19.99L3.31758 19.9087ZM3.31883 19.9112L3.1562 19.9925L3.15688 19.9938L3.31883 19.9112ZM3.59135 20.1837L3.50849 20.346L3.5197 20.3508L3.59135 20.1837ZM3.6001 20.1874L3.52845 20.3545L3.54224 20.3605L3.55682 20.364L3.6001 20.1874ZM3.87012 20.2299L3.88552 20.0487L3.88318 20.0486L3.87012 20.2299ZM7.63035 20.2299L7.64485 20.4112L7.64577 20.4111L7.63035 20.2299ZM7.86037 20.1987L7.90205 20.3758L7.90959 20.3737L7.86037 20.1987ZM7.90037 20.1874L7.94959 20.3625L7.97305 20.3559L7.99395 20.3433L7.90037 20.1874ZM7.90662 20.1837V20.0018H7.85624L7.81304 20.0278L7.90662 20.1837ZM7.90912 20.1837V20.3655H7.9527L7.99155 20.3457L7.90912 20.1837ZM8.18289 19.9099L8.34531 19.9925L8.35001 19.9815L8.18289 19.9099ZM8.18664 19.9012L8.35376 19.9728L8.35967 19.959L8.36324 19.9444L8.18664 19.9012ZM8.22914 19.6311L8.04795 19.6157L8.04778 19.6181L8.22914 19.6311ZM8.22914 14.6208L8.41039 14.6063L8.41031 14.6054L8.22914 14.6208ZM8.19789 14.3908L8.37505 14.3491L8.37293 14.3416L8.19789 14.3908ZM8.18664 14.3508L8.36167 14.3016L8.35561 14.28L8.34451 14.2606L8.18664 14.3508ZM8.18164 14.3421L8.01923 14.4243L8.02377 14.4323L8.18164 14.3421ZM7.90912 14.0683L7.99204 13.9065L7.95299 13.8865H7.90912V14.0683ZM7.90787 14.0683L7.82654 14.2309L7.86494 14.2501H7.90787V14.0683ZM7.90037 14.0645L7.98169 13.9019L7.96345 13.8928L7.94365 13.8879L7.90037 14.0645ZM7.63035 14.022L7.61495 14.2032L7.61729 14.2034L7.63035 14.022ZM12.2006 2.52381L12.0386 2.4413L12.0385 2.44149L12.2006 2.52381ZM13.0207 1.70376L13.1032 1.86579L13.1032 1.86578L13.0207 1.70376ZM18.471 1.70376L18.5535 1.54173L18.5534 1.54164L18.471 1.70376ZM19.2911 2.52381L19.129 2.60633L19.1293 2.60674L19.2911 2.52381ZM19.2911 9.22423L19.1292 9.14151L19.129 9.14177L19.2911 9.22423ZM18.471 10.0443L18.5536 10.2063L18.5537 10.2062L18.471 10.0443ZM13.0207 10.0443L12.9382 10.2063L12.9384 10.2064L13.0207 10.0443ZM12.2006 9.22423L12.0386 9.30676L12.0387 9.30693L12.2006 9.22423ZM17.631 2.77008L17.6165 2.95146L17.6233 2.95175L17.631 2.77008ZM17.861 2.80133L17.9103 2.62611L17.9021 2.62421L17.861 2.80133ZM17.901 2.81258L17.9648 2.64233L17.9576 2.63963L17.9502 2.63754L17.901 2.81258ZM17.911 2.81633L17.9939 2.65451L17.9846 2.64975L17.9748 2.64608L17.911 2.81633ZM18.1835 3.0901L18.3538 3.02626L18.3502 3.01687L18.3457 3.00792L18.1835 3.0901ZM18.1873 3.1001L18.3639 3.05682L18.3613 3.04635L18.3575 3.03626L18.1873 3.1001ZM18.2298 3.37012L18.0484 3.38319L18.0486 3.38552L18.2298 3.37012ZM18.2298 8.38168L18.0484 8.36717L18.0481 8.37404L18.2298 8.38168ZM18.1985 8.61169L18.3737 8.66097L18.3756 8.6528L18.1985 8.61169ZM18.1873 8.6517L18.3544 8.72332L18.3591 8.71238L18.3623 8.70092L18.1873 8.6517ZM18.1835 8.66045L18.3463 8.74229L18.3506 8.73207L18.1835 8.66045ZM17.911 8.93546V9.11729H17.955L17.9942 9.09716L17.911 8.93546ZM17.9085 8.93546V8.75364H17.8656L17.8272 8.77284L17.9085 8.93546ZM17.901 8.93922L17.9443 9.11582L17.9641 9.11096L17.9823 9.10184L17.901 8.93922ZM17.631 8.98172L17.6179 8.80034L17.6156 8.80054L17.631 8.98172ZM13.8707 8.98172L13.8553 9.1629L13.8562 9.16297L13.8707 8.98172ZM13.6407 8.95047L13.5915 9.12567L13.5991 9.12746L13.6407 8.95047ZM13.6007 8.93922L13.5291 9.10634L13.54 9.11103L13.5515 9.11425L13.6007 8.93922ZM13.592 8.93546L13.5091 9.09778L13.5203 9.10259L13.592 8.93546ZM13.3182 8.6592L13.1556 8.74052L13.1559 8.74114L13.3182 8.6592ZM13.3145 8.6517L13.1379 8.69498L13.1427 8.71478L13.1518 8.73302L13.3145 8.6517ZM13.272 8.38168L13.4533 8.36861L13.4531 8.36628L13.272 8.38168ZM13.272 3.37137L13.4533 3.38588L13.4536 3.37901L13.272 3.37137ZM13.3032 3.14135L13.128 3.09207L13.1261 3.10025L13.3032 3.14135ZM13.3145 3.10135L13.1566 3.01113L13.1455 3.03057L13.1394 3.05212L13.3145 3.10135ZM13.3195 3.0926L13.4775 3.18295L13.4819 3.17429L13.3195 3.0926ZM13.592 2.81758L13.5202 2.65004L13.5088 2.65589L13.592 2.81758ZM13.6007 2.81383L13.5574 2.63723L13.5429 2.6408L13.5291 2.6467L13.6007 2.81383ZM13.8707 2.77133L13.8838 2.9527L13.8861 2.95251L13.8707 2.77133ZM20.7518 12.1257L20.6063 12.2348L20.9336 12.6712V12.1257H20.7518ZM20.748 12.1207L20.8935 12.0116L20.5662 11.5751V12.1207H20.748ZM20.7105 16.0584L20.5293 16.0431L20.5293 16.0435L20.7105 16.0584ZM20.4055 17.2847L20.5674 17.3674L20.5675 17.3674L20.4055 17.2847ZM19.0429 18.6473L19.1253 18.8094L19.1256 18.8093L19.0429 18.6473ZM17.8166 18.9511L17.8016 18.7699L17.801 18.7699L17.8166 18.9511ZM14.1413 18.9886V18.8068H13.7024L14.0128 19.1172L14.1413 18.9886ZM15.5789 20.4262L15.7097 20.2998L15.7075 20.2976L15.5789 20.4262ZM15.5713 21.3024L15.6999 21.4309V21.4309L15.5713 21.3024ZM15.1348 21.4854L15.1332 21.3036H15.1332L15.1348 21.4854ZM14.6951 21.31L14.5665 21.4386L14.5688 21.4408L14.6951 21.31ZM12.195 18.8098L12.3235 18.6813L12.3233 18.6811L12.195 18.8098ZM12.0112 18.3723H11.8294L11.8294 18.3738L12.0112 18.3723ZM12.0112 18.3636L11.8294 18.3621V18.3636H12.0112ZM12.195 17.926L12.3233 18.0548L12.3235 18.0546L12.195 17.926ZM14.6951 15.4259L14.5666 15.2972L14.5666 15.2973L14.6951 15.4259ZM15.5789 16.3109L15.4504 16.1823L15.4504 16.1824L15.5789 16.3109ZM14.1413 17.7485L14.0128 17.6199L13.7024 17.9303H14.1413V17.7485ZM17.7166 17.716L17.7313 17.8972L17.7316 17.8972L17.7166 17.716ZM18.4766 17.5435L18.5589 17.7056L18.5591 17.7055L18.4766 17.5435ZM19.2967 16.7235L19.135 16.6402L19.1346 16.6409L19.2967 16.7235ZM19.4692 15.9634L19.288 15.948L19.2879 15.949L19.4692 15.9634ZM2.18183 4.50019C2.18183 3.97216 2.18197 3.58705 2.2067 3.28363C2.23126 2.98229 2.27916 2.77766 2.36578 2.60759L2.04174 2.44253C1.9246 2.6725 1.87062 2.93039 1.84424 3.25409C1.81803 3.57571 1.81817 3.97815 1.81817 4.50019H2.18183ZM2.18183 7.25036V4.50019H1.81817V7.25036H2.18183ZM2.36589 9.14316C2.27916 8.97236 2.23126 8.76729 2.2067 8.46598C2.18197 8.16256 2.18183 7.77776 2.18183 7.25036H1.81817C1.81817 7.77178 1.81803 8.1739 1.84424 8.49552C1.87063 8.81925 1.92461 9.07733 2.04164 9.30781L2.36589 9.14316ZM3.10632 9.8835C2.78743 9.72111 2.52818 9.46187 2.36579 9.14297L2.04173 9.30799C2.239 9.69538 2.55392 10.0103 2.9413 10.2076L3.10632 9.8835ZM4.99894 10.0675C4.47091 10.0675 4.0858 10.0673 3.78238 10.0426C3.48104 10.018 3.27641 9.97014 3.10634 9.88351L2.94128 10.2076C3.17125 10.3247 3.42914 10.3787 3.75284 10.4051C4.07446 10.4313 4.4769 10.4311 4.99894 10.4311V10.0675ZM6.49903 10.0675H4.99894V10.4311H6.49903V10.0675ZM8.39183 9.88341C8.22103 9.97014 8.01596 10.018 7.71465 10.0426C7.41123 10.0673 7.02643 10.0675 6.49903 10.0675V10.4311C7.02045 10.4311 7.42257 10.4313 7.74419 10.4051C8.06792 10.3787 8.32601 10.3247 8.55648 10.2077L8.39183 9.88341ZM9.13217 9.14297C8.96979 9.46187 8.71054 9.72111 8.39164 9.8835L8.55666 10.2076C8.94405 10.0103 9.25897 9.69538 9.45624 9.30799L9.13217 9.14297ZM9.31614 7.25036C9.31614 7.77839 9.316 8.1635 9.29127 8.46692C9.26671 8.76825 9.21881 8.97289 9.13218 9.14295L9.45623 9.30801C9.57336 9.07805 9.62735 8.82016 9.65373 8.49646C9.67994 8.17484 9.6798 7.7724 9.6798 7.25036H9.31614ZM9.31614 4.50019V7.25036H9.6798V4.50019H9.31614ZM9.13208 2.60739C9.21881 2.77819 9.26671 2.98326 9.29127 3.28457C9.316 3.58799 9.31614 3.97279 9.31614 4.50019H9.6798C9.6798 3.97877 9.67994 3.57665 9.65373 3.25503C9.62734 2.9313 9.57336 2.67321 9.45633 2.44274L9.13208 2.60739ZM8.39146 1.86695C8.7101 2.02966 8.96969 2.28825 9.13215 2.60752L9.45626 2.4426C9.2587 2.05434 8.94326 1.74039 8.55685 1.54307L8.39146 1.86695ZM6.49903 1.68308C7.02706 1.68308 7.41217 1.68322 7.71559 1.70795C8.01692 1.73251 8.22156 1.78041 8.39162 1.86703L8.55668 1.54299C8.32672 1.42586 8.06883 1.37187 7.74513 1.34549C7.42351 1.31928 7.02107 1.31942 6.49903 1.31942V1.68308ZM4.99894 1.68308H6.49903V1.31942H4.99894V1.68308ZM3.10614 1.86714C3.27694 1.78041 3.48201 1.73251 3.78332 1.70795C4.08674 1.68322 4.47154 1.68308 4.99894 1.68308V1.31942C4.47752 1.31942 4.0754 1.31928 3.75378 1.34549C3.43005 1.37188 3.17196 1.42586 2.94149 1.54289L3.10614 1.86714ZM2.3657 2.60776C2.52841 2.28912 2.787 2.02953 3.10627 1.86707L2.94135 1.54296C2.55309 1.74052 2.23914 2.05596 2.04182 2.44237L2.3657 2.60776ZM5.00019 2.93191H6.50028V2.56825H5.00019V2.93191ZM3.88462 2.95133C4.12555 2.93206 4.45028 2.93191 5.00019 2.93191V2.56825C4.45753 2.56825 4.11472 2.5681 3.85562 2.58883L3.88462 2.95133ZM3.68121 2.97845C3.74575 2.96348 3.81156 2.95453 3.87776 2.95175L3.86247 2.58841C3.77373 2.59215 3.68552 2.60413 3.599 2.62421L3.68121 2.97845ZM3.64933 2.98762L3.68933 2.97637L3.59087 2.62629L3.55087 2.63754L3.64933 2.98762ZM3.66298 2.98346L3.67173 2.97971L3.52847 2.64545L3.51972 2.64921L3.66298 2.98346ZM3.48103 3.17228C3.52333 3.08879 3.59098 3.02084 3.67427 2.97815L3.50843 2.65451C3.35679 2.73221 3.23364 2.85593 3.15663 3.00792L3.48103 3.17228ZM3.47647 3.18142L3.48147 3.17142L3.1562 3.00878L3.1512 3.01878L3.47647 3.18142ZM3.45269 3.38318C3.45851 3.30233 3.47114 3.22211 3.49044 3.14338L3.13723 3.05682C3.11307 3.15539 3.09726 3.25582 3.08997 3.35705L3.45269 3.38318ZM3.43191 4.50019C3.43191 3.95006 3.43207 3.62589 3.45251 3.38552L3.09015 3.35472C3.06808 3.61438 3.06825 3.95775 3.06825 4.50019H3.43191ZM3.43191 7.25036V4.50019H3.06825V7.25036H3.43191ZM3.4529 8.37194C3.43291 7.99941 3.4259 7.62629 3.43188 7.25328L3.06827 7.24744C3.06215 7.6289 3.06932 8.01046 3.08976 8.39142L3.4529 8.37194ZM3.4797 8.57059C3.46473 8.50604 3.45578 8.44024 3.453 8.37403L3.08966 8.38933C3.0934 8.47807 3.10538 8.56628 3.12546 8.6528L3.4797 8.57059ZM3.48887 8.60247L3.47762 8.56247L3.12754 8.66092L3.13879 8.70093L3.48887 8.60247ZM3.67402 8.77226C3.58844 8.72858 3.51938 8.65828 3.47723 8.57193L3.15043 8.73146C3.22716 8.88865 3.35289 9.01664 3.50868 9.09617L3.67402 8.77226ZM3.69032 8.78135L3.68157 8.77634L3.50113 9.09209L3.50988 9.09709L3.69032 8.78135ZM3.88318 8.80036C3.80233 8.79453 3.72211 8.78191 3.64338 8.76261L3.55682 9.11582C3.65539 9.13998 3.75582 9.15578 3.85705 9.16308L3.88318 8.80036ZM5.00015 8.82114C4.45004 8.82114 4.12588 8.82097 3.88552 8.80054L3.85472 9.16289C4.11437 9.18497 4.45774 9.1848 5.00015 9.1848V8.82114ZM5.00019 8.82114H5.00015V9.1848H5.00019V8.82114ZM6.50028 8.82114H5.00019V9.1848H6.50028V8.82114ZM7.61585 8.80047C7.37477 8.81975 7.04951 8.82114 6.50028 8.82114V9.1848C7.04362 9.1848 7.3859 9.18368 7.64485 9.16297L7.61585 8.80047ZM7.81926 8.77334C7.75471 8.78832 7.68891 8.79726 7.62271 8.80005L7.638 9.16339C7.72674 9.15965 7.81495 9.14767 7.90147 9.12759L7.81926 8.77334ZM7.85114 8.76418L7.81114 8.77543L7.9096 9.1255L7.9496 9.11425L7.85114 8.76418ZM7.83749 8.76834L7.82874 8.77209L7.972 9.10634L7.98075 9.10259L7.83749 8.76834ZM8.02057 8.57726C7.9778 8.66198 7.90944 8.73114 7.82644 8.77352L7.9918 9.09741C8.14504 9.01917 8.26844 8.89321 8.34521 8.74114L8.02057 8.57726ZM8.024 8.57038L8.02025 8.57788L8.34552 8.74051L8.34927 8.73301L8.024 8.57038ZM8.04778 8.36861C8.04195 8.44947 8.02933 8.52969 8.01003 8.60842L8.36324 8.69498C8.3874 8.59641 8.4032 8.49597 8.4105 8.39475L8.04778 8.36861ZM8.06856 7.25161C8.06856 7.80174 8.06839 8.12591 8.04796 8.36628L8.41032 8.39708C8.43239 8.13742 8.43222 7.79405 8.43222 7.25161H8.06856ZM8.06856 4.50144V7.25161H8.43222V4.50144H8.06856ZM8.04789 3.38587C8.06717 3.62695 8.06856 3.95221 8.06856 4.50144H8.43222C8.43222 3.9581 8.43111 3.61582 8.41039 3.35687L8.04789 3.38587ZM8.02089 3.183C8.02801 3.21327 8.03832 3.27343 8.04796 3.38679L8.41031 3.35595C8.39996 3.23428 8.38776 3.15444 8.37488 3.09971L8.02089 3.183ZM8.0116 3.15058L8.02285 3.19058L8.37293 3.09212L8.36167 3.05212L8.0116 3.15058ZM7.82622 2.97941C7.91193 3.02332 7.98101 3.09396 8.023 3.18063L8.35027 3.02207C8.27383 2.86428 8.14807 2.73569 7.99202 2.65575L7.82622 2.97941ZM7.82875 2.98096L7.8375 2.98471L7.98074 2.65045L7.97199 2.6467L7.82875 2.98096ZM7.61728 2.95269C7.69814 2.95851 7.77836 2.97114 7.85709 2.99044L7.94365 2.63723C7.84508 2.61307 7.74464 2.59726 7.64342 2.58997L7.61728 2.95269ZM6.50028 2.93191C7.05041 2.93191 7.37458 2.93207 7.61495 2.95251L7.64575 2.59015C7.38609 2.56808 7.04272 2.56825 6.50028 2.56825V2.93191ZM2.18183 15.7509C2.18183 15.2229 2.18197 14.8378 2.2067 14.5343C2.23126 14.233 2.27916 14.0284 2.36578 13.8583L2.04174 13.6932C1.9246 13.9232 1.87062 14.1811 1.84424 14.5048C1.81803 14.8264 1.81817 15.2289 1.81817 15.7509H2.18183ZM2.18183 18.5011V15.7509H1.81817V18.5011H2.18183ZM2.36589 20.3939C2.27916 20.2231 2.23126 20.018 2.2067 19.7167C2.18197 19.4133 2.18183 19.0285 2.18183 18.5011H1.81817C1.81817 19.0225 1.81803 19.4246 1.84424 19.7462C1.87063 20.07 1.92461 20.328 2.04164 20.5585L2.36589 20.3939ZM3.10632 21.1342C2.78743 20.9718 2.52818 20.7126 2.36579 20.3937L2.04173 20.5587C2.239 20.9461 2.55392 21.261 2.9413 21.4583L3.10632 21.1342ZM4.99891 21.3182C4.47089 21.3182 4.08579 21.318 3.78237 21.2933C3.48104 21.2687 3.27641 21.2208 3.10634 21.1342L2.94128 21.4583C3.17124 21.5754 3.42913 21.6294 3.75283 21.6558C4.07445 21.682 4.47688 21.6818 4.99891 21.6818V21.3182ZM4.99894 21.3182H4.99891V21.6818H4.99894V21.3182ZM6.49903 21.3182H4.99894V21.6818H6.49903V21.3182ZM6.49906 21.3182H6.49903V21.6818H6.49906V21.3182ZM8.39183 21.1341C8.22103 21.2208 8.01597 21.2687 7.71466 21.2933C7.41124 21.318 7.02645 21.3182 6.49906 21.3182V21.6818C7.02047 21.6818 7.42259 21.682 7.7442 21.6558C8.06792 21.6294 8.32601 21.5754 8.55648 21.4584L8.39183 21.1341ZM9.13217 20.3937C8.96978 20.7126 8.71054 20.9718 8.39164 21.1342L8.55667 21.4583C8.94405 21.261 9.25897 20.9461 9.45624 20.5587L9.13217 20.3937ZM9.31614 18.5011C9.31614 19.0291 9.316 19.4142 9.29127 19.7176C9.26671 20.019 9.21881 20.2236 9.13218 20.3937L9.45623 20.5587C9.57336 20.3288 9.62735 20.0709 9.65373 19.7472C9.67994 19.4255 9.6798 19.0231 9.6798 18.5011H9.31614ZM9.31614 15.7509V18.5011H9.6798V15.7509H9.31614ZM9.13208 13.8581C9.21881 14.0289 9.26671 14.234 9.29127 14.5353C9.316 14.8387 9.31614 15.2235 9.31614 15.7509H9.6798C9.6798 15.2295 9.67994 14.8273 9.65373 14.5057C9.62734 14.182 9.57336 13.9239 9.45633 13.6934L9.13208 13.8581ZM8.39146 13.1177C8.7101 13.2804 8.96969 13.5389 9.13215 13.8582L9.45626 13.6933C9.2587 13.305 8.94326 12.9911 8.55685 12.7938L8.39146 13.1177ZM6.49905 12.9338C7.02707 12.9338 7.41217 12.9339 7.71559 12.9587C8.01693 12.9832 8.22156 13.0311 8.39162 13.1177L8.55668 12.7937C8.32672 12.6766 8.06883 12.6226 7.74513 12.5962C7.42351 12.57 7.02108 12.5701 6.49905 12.5701V12.9338ZM6.49903 12.9338H6.49905V12.5701H6.49903V12.9338ZM4.99894 12.9338H6.49903V12.5701H4.99894V12.9338ZM4.99892 12.9338H4.99894V12.5701H4.99892V12.9338ZM3.10614 13.1178C3.27694 13.0311 3.48201 12.9832 3.78331 12.9587C4.08673 12.9339 4.47153 12.9338 4.99892 12.9338V12.5701C4.47751 12.5701 4.07539 12.57 3.75377 12.5962C3.43005 12.6226 3.17196 12.6766 2.94149 12.7936L3.10614 13.1178ZM2.3657 13.8585C2.52841 13.5398 2.787 13.2802 3.10627 13.1178L2.94135 12.7937C2.55309 12.9912 2.23914 13.3067 2.04182 13.6931L2.3657 13.8585ZM5.00019 14.1826H6.50028V13.819H5.00019V14.1826ZM3.88462 14.2033C4.1257 14.184 4.45096 14.1826 5.00019 14.1826V13.819C4.45685 13.819 4.11457 13.8201 3.85562 13.8408L3.88462 14.2033ZM3.68175 14.2303C3.71202 14.2232 3.77219 14.2129 3.88554 14.2032L3.8547 13.8409C3.73303 13.8512 3.65319 13.8634 3.59846 13.8763L3.68175 14.2303ZM3.64933 14.2396L3.68933 14.2283L3.59087 13.8782L3.55087 13.8895L3.64933 14.2396ZM3.66141 14.2358L3.66766 14.2333L3.53254 13.8957L3.52629 13.8982L3.66141 14.2358ZM3.71993 14.1981L3.72243 14.1956L3.46527 13.9385L3.46277 13.941L3.71993 14.1981ZM3.48078 14.4247C3.52323 14.3416 3.59086 14.2739 3.67402 14.2315L3.50868 13.9076C3.35729 13.9849 3.23417 14.108 3.15688 14.2594L3.48078 14.4247ZM3.4717 14.441L3.4767 14.4323L3.16096 14.2518L3.15596 14.2606L3.4717 14.441ZM3.45269 14.6339C3.45851 14.553 3.47114 14.4728 3.49044 14.3941L3.13723 14.3075C3.11307 14.4061 3.09726 14.5065 3.08997 14.6078L3.45269 14.6339ZM3.43191 15.7509C3.43191 15.202 3.43207 14.8766 3.45251 14.6362L3.09015 14.6054C3.06808 14.8651 3.06825 15.2097 3.06825 15.7509H3.43191ZM3.43191 18.5011V15.7509H3.06825V18.5011H3.43191ZM3.45258 19.6166C3.43329 19.3756 3.43191 19.0503 3.43191 18.5011H3.06825C3.06825 19.0444 3.06936 19.3867 3.09008 19.6456L3.45258 19.6166ZM3.4797 19.82C3.46473 19.7555 3.45578 19.6897 3.453 19.6235L3.08966 19.6388C3.0934 19.7275 3.10538 19.8157 3.12546 19.9023L3.4797 19.82ZM3.48887 19.8519L3.47762 19.8119L3.12754 19.9104L3.13879 19.9504L3.48887 19.8519ZM3.48021 19.8273L3.47646 19.8198L3.1512 19.9825L3.15495 19.99L3.48021 19.8273ZM3.48146 19.8298L3.48021 19.8273L3.15495 19.99L3.1562 19.9925L3.48146 19.8298ZM3.67402 20.0217C3.59086 19.9793 3.52323 19.9116 3.48078 19.8285L3.15688 19.9938C3.23417 20.1452 3.35729 20.2683 3.50868 20.3456L3.67402 20.0217ZM3.67175 20.0203L3.663 20.0166L3.5197 20.3508L3.52845 20.3545L3.67175 20.0203ZM3.88318 20.0486C3.80233 20.0427 3.72211 20.0301 3.64338 20.0108L3.55682 20.364C3.65539 20.3882 3.75582 20.404 3.85705 20.4113L3.88318 20.0486ZM5.00019 20.0693C4.45006 20.0693 4.12589 20.0692 3.88552 20.0487L3.85472 20.4111C4.11438 20.4332 4.45775 20.433 5.00019 20.433V20.0693ZM6.50028 20.0693H5.00019V20.433H6.50028V20.0693ZM7.61585 20.0487C7.37477 20.068 7.04951 20.0693 6.50028 20.0693V20.433C7.04362 20.433 7.3859 20.4319 7.64485 20.4112L7.61585 20.0487ZM7.81872 20.0217C7.78845 20.0288 7.72828 20.0391 7.61493 20.0487L7.64577 20.4111C7.76744 20.4007 7.84728 20.3885 7.90201 20.3757L7.81872 20.0217ZM7.85114 20.0124L7.81114 20.0236L7.90959 20.3737L7.94959 20.3625L7.85114 20.0124ZM7.81304 20.0278L7.80679 20.0315L7.99395 20.3433L8.0002 20.3396L7.81304 20.0278ZM7.90912 20.0018H7.90662V20.3655H7.90912V20.0018ZM8.02081 19.8275C7.97828 19.9111 7.91031 19.9791 7.82669 20.0216L7.99155 20.3457C8.14379 20.2683 8.26753 20.1446 8.34496 19.9923L8.02081 19.8275ZM8.01951 19.8295L8.01576 19.8383L8.35001 19.9815L8.35376 19.9728L8.01951 19.8295ZM8.04778 19.6181C8.04195 19.6989 8.02933 19.7791 8.01003 19.8579L8.36324 19.9444C8.3874 19.8459 8.4032 19.7454 8.4105 19.6442L8.04778 19.6181ZM8.06856 18.5011C8.06856 19.0512 8.06839 19.3754 8.04796 19.6157L8.41032 19.6465C8.43239 19.3869 8.43222 19.0435 8.43222 18.5011H8.06856ZM8.06856 15.7509V18.5011H8.43222V15.7509H8.06856ZM8.04789 14.6353C8.06717 14.8764 8.06856 15.2017 8.06856 15.7509H8.43222C8.43222 15.2076 8.43111 14.8653 8.41039 14.6063L8.04789 14.6353ZM8.02089 14.4325C8.02801 14.4627 8.03832 14.5229 8.04796 14.6362L8.41031 14.6054C8.39996 14.4837 8.38776 14.4039 8.37488 14.3492L8.02089 14.4325ZM8.0116 14.4L8.02285 14.44L8.37293 14.3416L8.36167 14.3016L8.0116 14.4ZM8.02377 14.4323L8.02877 14.441L8.34451 14.2606L8.33951 14.2518L8.02377 14.4323ZM7.8262 14.2301C7.90949 14.2728 7.97714 14.3407 8.01944 14.4242L8.34383 14.2599C8.26683 14.1079 8.14368 13.9842 7.99204 13.9065L7.8262 14.2301ZM7.90787 14.2501H7.90912V13.8865H7.90787V14.2501ZM7.81904 14.2272L7.82654 14.2309L7.98919 13.9057L7.98169 13.9019L7.81904 14.2272ZM7.61729 14.2034C7.69814 14.2092 7.77836 14.2218 7.85709 14.2411L7.94365 13.8879C7.84508 13.8638 7.74464 13.848 7.64342 13.8407L7.61729 14.2034ZM6.50028 14.1826C7.05041 14.1826 7.37458 14.1828 7.61495 14.2032L7.64575 13.8409C7.38609 13.8188 7.04272 13.819 6.50028 13.819V14.1826ZM12.0385 2.44149C11.9215 2.67196 11.8675 2.93005 11.8411 3.25378C11.8149 3.5754 11.815 3.97752 11.815 4.49894H12.1787C12.1787 3.97154 12.1788 3.58674 12.2036 3.28332C12.2281 2.98201 12.276 2.77694 12.3628 2.60614L12.0385 2.44149ZM12.9382 1.54173C12.5508 1.739 12.2359 2.05392 12.0386 2.4413L12.3627 2.60632C12.5251 2.28743 12.7843 2.02818 13.1032 1.86579L12.9382 1.54173ZM14.9958 1.31817C14.4738 1.31817 14.0713 1.31803 13.7497 1.34424C13.426 1.37062 13.1681 1.4246 12.9382 1.54174L13.1032 1.86578C13.2733 1.77916 13.4779 1.73126 13.7793 1.7067C14.0827 1.68197 14.4678 1.68183 14.9958 1.68183V1.31817ZM16.4959 1.31817H14.9958V1.68183H16.4959V1.31817ZM18.5534 1.54164C18.3229 1.42461 18.0648 1.37063 17.7411 1.34424C17.4194 1.31803 17.0173 1.31817 16.4959 1.31817V1.68183C17.0233 1.68183 17.4081 1.68197 17.7115 1.7067C18.0128 1.73126 18.2179 1.77916 18.3887 1.86589L18.5534 1.54164ZM19.4531 2.4413C19.2558 2.05392 18.9409 1.739 18.5535 1.54173L18.3885 1.86579C18.7074 2.02818 18.9667 2.28743 19.129 2.60633L19.4531 2.4413ZM19.6779 4.49894C19.6779 3.97692 19.6781 3.57442 19.6517 3.25275C19.6251 2.92896 19.5708 2.67094 19.4529 2.44088L19.1293 2.60674C19.2164 2.77671 19.2645 2.98122 19.2892 3.28247C19.3141 3.58584 19.3143 3.97089 19.3143 4.49894H19.6779ZM19.6779 7.24911V4.49894H19.3143V7.24911H19.6779ZM19.453 9.30696C19.5708 9.07639 19.6251 8.81818 19.6517 8.49436C19.6781 8.17269 19.6779 7.77051 19.6779 7.24911H19.3143C19.3143 7.77653 19.3141 8.16127 19.2892 8.46464C19.2645 8.76586 19.2164 8.9708 19.1292 9.14151L19.453 9.30696ZM18.5537 10.2062C18.9401 10.0089 19.2556 9.69496 19.4531 9.30669L19.129 9.14177C18.9666 9.46105 18.707 9.71964 18.3883 9.88235L18.5537 10.2062ZM16.4959 10.4299C17.0179 10.4299 17.4204 10.43 17.742 10.4038C18.0657 10.3774 18.3236 10.3234 18.5536 10.2063L18.3885 9.88226C18.2184 9.96889 18.0138 10.0168 17.7125 10.0413C17.409 10.0661 17.0239 10.0662 16.4959 10.0662V10.4299ZM14.9958 10.4299H16.4959V10.0662H14.9958V10.4299ZM12.9384 10.2064C13.1688 10.3234 13.4269 10.3774 13.7507 10.4038C14.0723 10.43 14.4744 10.4299 14.9958 10.4299V10.0662C14.4684 10.0662 14.0836 10.0661 13.7802 10.0413C13.4789 10.0168 13.2738 9.96889 13.103 9.88216L12.9384 10.2064ZM12.0387 9.30693C12.236 9.69334 12.55 10.0088 12.9382 10.2063L13.1031 9.88223C12.7839 9.71977 12.5253 9.46018 12.3626 9.14154L12.0387 9.30693ZM11.815 7.24911C11.815 7.77115 11.8149 8.17359 11.8411 8.49521C11.8675 8.81891 11.9215 9.0768 12.0386 9.30676L12.3627 9.1417C12.276 8.97164 12.2281 8.767 12.2036 8.46567C12.1788 8.16225 12.1787 7.77714 12.1787 7.24911H11.815ZM11.815 4.49894V7.24911H12.1787V4.49894H11.815ZM16.5009 2.56825H15.0008V2.93191H16.5009V2.56825ZM17.6455 2.58883C17.3864 2.5681 17.0436 2.56825 16.5009 2.56825V2.93191C17.0508 2.93191 17.3755 2.93206 17.6165 2.95133L17.6455 2.58883ZM17.9021 2.62421C17.8156 2.60413 17.7274 2.59215 17.6386 2.58841L17.6233 2.95175C17.6895 2.95453 17.7553 2.96348 17.8199 2.97845L17.9021 2.62421ZM17.9502 2.63754L17.9102 2.62629L17.8118 2.97637L17.8518 2.98762L17.9502 2.63754ZM17.9748 2.64608L17.9648 2.64233L17.8371 2.98283L17.8471 2.98658L17.9748 2.64608ZM18.3457 3.00792C18.2687 2.85593 18.1456 2.73221 17.9939 2.65451L17.8281 2.97815C17.9114 3.02084 17.979 3.08879 18.0213 3.17228L18.3457 3.00792ZM18.3575 3.03626L18.3538 3.02626L18.0133 3.15394L18.017 3.16394L18.3575 3.03626ZM18.4111 3.35705C18.4038 3.25582 18.388 3.15539 18.3639 3.05682L18.0107 3.14338C18.03 3.22211 18.0426 3.30233 18.0484 3.38318L18.4111 3.35705ZM18.4328 4.50019C18.4328 3.95775 18.433 3.61438 18.4109 3.35472L18.0486 3.38552C18.069 3.62589 18.0692 3.95006 18.0692 4.50019H18.4328ZM18.4328 7.25161V4.50019H18.0692V7.25161H18.4328ZM18.411 8.39618C18.4317 8.13723 18.4328 7.79495 18.4328 7.25161H18.0692C18.0692 7.80084 18.0678 8.1261 18.0485 8.36718L18.411 8.39618ZM18.3756 8.6528C18.3957 8.56628 18.4077 8.47807 18.4114 8.38932L18.0481 8.37404C18.0453 8.44024 18.0364 8.50604 18.0214 8.57059L18.3756 8.6528ZM18.3623 8.70092L18.3736 8.66092L18.0235 8.56247L18.0122 8.60247L18.3623 8.70092ZM18.3506 8.73207L18.3544 8.72332L18.0201 8.58008L18.0164 8.58883L18.3506 8.73207ZM17.9942 9.09716C18.146 9.01904 18.2692 8.89473 18.346 8.74214L18.0211 8.57876C17.9789 8.66258 17.9113 8.73086 17.8278 8.77377L17.9942 9.09716ZM17.9085 9.11729H17.911V8.75364H17.9085V9.11729ZM17.9823 9.10184L17.9898 9.09809L17.8272 8.77284L17.8197 8.77659L17.9823 9.10184ZM17.644 9.16308C17.7453 9.15578 17.8457 9.13998 17.9443 9.11582L17.8577 8.76261C17.779 8.78191 17.6988 8.79453 17.6179 8.80036L17.644 9.16308ZM16.5009 9.1848C17.0421 9.1848 17.3867 9.18497 17.6464 9.16289L17.6156 8.80054C17.3752 8.82097 17.0498 8.82114 16.5009 8.82114V9.1848ZM16.5009 9.1848H16.5009V8.82114H16.5009V9.1848ZM15.0008 9.1848H16.5009V8.82114H15.0008V9.1848ZM13.8562 9.16297C14.1152 9.18368 14.4575 9.1848 15.0008 9.1848V8.82114C14.4516 8.82114 14.1263 8.81975 13.8852 8.80047L13.8562 9.16297ZM13.5991 9.12746C13.6538 9.14034 13.7337 9.15254 13.8553 9.16289L13.8862 8.80054C13.7728 8.7909 13.7126 8.78059 13.6824 8.77347L13.5991 9.12746ZM13.5515 9.11425L13.5915 9.1255L13.69 8.77543L13.65 8.76418L13.5515 9.11425ZM13.5203 9.10259L13.5291 9.10634L13.6724 8.77209L13.6636 8.76834L13.5203 9.10259ZM13.1559 8.74114C13.2327 8.89321 13.3561 9.01917 13.5093 9.09741L13.6747 8.77352C13.5917 8.73114 13.5233 8.66198 13.4805 8.57726L13.1559 8.74114ZM13.1518 8.73302L13.1556 8.74052L13.4808 8.57787L13.4771 8.57037L13.1518 8.73302ZM13.0906 8.39475C13.0979 8.49597 13.1137 8.5964 13.1379 8.69498L13.4911 8.60842C13.4718 8.52969 13.4591 8.44947 13.4533 8.36861L13.0906 8.39475ZM13.0689 7.25161C13.0689 7.79405 13.0687 8.13742 13.0908 8.39708L13.4531 8.36628C13.4327 8.12591 13.4325 7.80174 13.4325 7.25161H13.0689ZM13.0689 4.50144V7.25161H13.4325V4.50144H13.0689ZM13.0907 3.35687C13.07 3.61582 13.0689 3.9581 13.0689 4.50144H13.4325C13.4325 3.95221 13.4339 3.62695 13.4532 3.38587L13.0907 3.35687ZM13.1261 3.10025C13.106 3.18677 13.094 3.27498 13.0903 3.36372L13.4536 3.37901C13.4564 3.31281 13.4654 3.247 13.4803 3.18245L13.1261 3.10025ZM13.1394 3.05212L13.1282 3.09212L13.4782 3.19058L13.4895 3.15058L13.1394 3.05212ZM13.1616 3.00238L13.1566 3.01113L13.4723 3.19157L13.4773 3.18282L13.1616 3.00238ZM13.5088 2.65589C13.3569 2.73401 13.2337 2.85832 13.157 3.01091L13.4819 3.17429C13.5241 3.09047 13.5917 3.02219 13.6751 2.97928L13.5088 2.65589ZM13.5291 2.6467L13.5203 2.65045L13.6636 2.98471L13.6723 2.98096L13.5291 2.6467ZM13.8577 2.58997C13.7564 2.59726 13.656 2.61307 13.5574 2.63723L13.644 2.99044C13.7227 2.97114 13.803 2.95851 13.8838 2.95269L13.8577 2.58997ZM15.0008 2.56825C14.4596 2.56825 14.115 2.56808 13.8553 2.59015L13.8861 2.95251C14.1265 2.93207 14.4519 2.93191 15.0008 2.93191V2.56825ZM20.9336 12.1257C20.9336 11.9117 20.8486 11.7064 20.6973 11.5551L20.4401 11.8123C20.5232 11.8954 20.5699 12.0081 20.5699 12.1257H20.9336ZM20.6025 12.2298L20.6063 12.2348L20.8972 12.0166L20.8935 12.0116L20.6025 12.2298ZM20.9298 14.3958V12.1207H20.5662V14.3958H20.9298ZM20.8917 16.0738C20.93 15.6218 20.9298 15.0668 20.9298 14.3958H20.5662C20.5662 15.0724 20.566 15.6099 20.5293 16.0431L20.8917 16.0738ZM20.5675 17.3674C20.7715 16.9674 20.8533 16.5408 20.8917 16.0733L20.5293 16.0435C20.4927 16.4886 20.417 16.862 20.2435 17.2021L20.5675 17.3674ZM19.1256 18.8093C19.7461 18.4925 20.2507 17.9879 20.5674 17.3674L20.2435 17.2021C19.9616 17.7543 19.5125 18.2035 18.9602 18.4854L19.1256 18.8093ZM17.8315 19.1323C18.2974 19.0939 18.724 19.0134 19.1253 18.8094L18.9605 18.4852C18.6192 18.6588 18.2458 18.7333 17.8016 18.7699L17.8315 19.1323ZM16.1541 19.1704C16.8286 19.1704 17.3851 19.1706 17.8321 19.1323L17.801 18.7699C17.3731 18.8066 16.8345 18.8068 16.1541 18.8068V19.1704ZM16.154 19.1704H16.1541V18.8068H16.154V19.1704ZM14.1413 19.1704H16.154V18.8068H14.1413V19.1704ZM15.7075 20.2976L14.2699 18.86L14.0128 19.1172L15.4504 20.5548L15.7075 20.2976ZM15.9362 20.8674C15.938 20.6559 15.8567 20.452 15.7097 20.2999L15.4481 20.5525C15.5289 20.6361 15.5735 20.748 15.5725 20.8643L15.9362 20.8674ZM15.6999 21.4309C15.8495 21.2813 15.9343 21.079 15.9362 20.8674L15.5725 20.8643C15.5715 20.9805 15.5249 21.0916 15.4427 21.1738L15.6999 21.4309ZM15.1364 21.6672C15.3479 21.6654 15.5503 21.5805 15.6999 21.4309L15.4427 21.1738C15.3606 21.256 15.2494 21.3026 15.1332 21.3036L15.1364 21.6672ZM14.5688 21.4408C14.721 21.5878 14.9248 21.6691 15.1364 21.6672L15.1332 21.3036C15.017 21.3046 14.905 21.2599 14.8214 21.1792L14.5688 21.4408ZM12.0664 18.9384L14.5666 21.4386L14.8237 21.1814L12.3235 18.6813L12.0664 18.9384ZM11.8294 18.3738C11.8311 18.5859 11.9164 18.7888 12.0666 18.9386L12.3233 18.6811C12.2408 18.5988 12.194 18.4873 12.193 18.3708L11.8294 18.3738ZM11.8294 18.3636V18.3723H12.193V18.3636H11.8294ZM12.0666 17.7972C11.9164 17.947 11.8311 18.1499 11.8294 18.3621L12.193 18.3651C12.194 18.2485 12.2408 18.1371 12.3233 18.0548L12.0666 17.7972ZM14.5666 15.2973L12.0664 17.7975L12.3235 18.0546L14.8237 15.5544L14.5666 15.2973ZM15.1376 15.0612C14.9235 15.061 14.7181 15.1459 14.5666 15.2972L14.8236 15.5545C14.9068 15.4714 15.0197 15.4248 15.1373 15.4248L15.1376 15.0612ZM15.7082 15.298C15.5569 15.1465 15.3517 15.0613 15.1376 15.0612L15.1373 15.4248C15.255 15.4249 15.3678 15.4717 15.4509 15.555L15.7082 15.298ZM15.9442 15.869C15.9444 15.6549 15.8595 15.4495 15.7082 15.298L15.4509 15.555C15.534 15.6382 15.5807 15.7511 15.5806 15.8687L15.9442 15.869ZM15.7074 16.4396C15.8589 16.2883 15.9441 16.0831 15.9442 15.869L15.5806 15.8687C15.5805 15.9864 15.5337 16.0991 15.4504 16.1823L15.7074 16.4396ZM14.2699 17.8771L15.7075 16.4395L15.4504 16.1824L14.0128 17.6199L14.2699 17.8771ZM16.129 17.5667H14.1413V17.9303H16.129V17.5667ZM17.7019 17.5348C17.3258 17.5653 16.838 17.5667 16.129 17.5667V17.9303C16.8325 17.9303 17.3372 17.9292 17.7313 17.8972L17.7019 17.5348ZM18.3943 17.3814C18.2591 17.45 18.068 17.5045 17.7016 17.5348L17.7316 17.8972C18.1202 17.8651 18.3641 17.8045 18.5589 17.7056L18.3943 17.3814ZM19.1346 16.6409C18.9722 16.9598 18.713 17.2191 18.3941 17.3815L18.5591 17.7055C18.9465 17.5083 19.2614 17.1933 19.4587 16.806L19.1346 16.6409ZM19.2879 15.949C19.2588 16.3164 19.2044 16.5056 19.135 16.6402L19.4583 16.8067C19.559 16.6113 19.6195 16.3679 19.6504 15.9778L19.2879 15.949ZM19.3198 14.3758C19.3198 15.0893 19.3197 15.575 19.288 15.948L19.6504 15.9788C19.6837 15.5867 19.6835 15.0824 19.6835 14.3758H19.3198ZM19.3198 12.1257V14.3758H19.6835V12.1257H19.3198ZM19.5562 11.5551C19.4049 11.7064 19.3198 11.9117 19.3198 12.1257H19.6835C19.6835 12.0081 19.7302 11.8954 19.8133 11.8123L19.5562 11.5551ZM20.1267 11.3188C19.9127 11.3188 19.7075 11.4038 19.5562 11.5551L19.8133 11.8123C19.8964 11.7291 20.0092 11.6825 20.1267 11.6825V11.3188ZM20.6973 11.5551C20.5459 11.4038 20.3407 11.3188 20.1267 11.3188V11.6825C20.2443 11.6825 20.357 11.7291 20.4401 11.8123L20.6973 11.5551Z" fill="#0A612B" mask="url(#path-1-outside-1_161_1153)"/>
</g>
</g>
</svg>
