<svg width="20" height="20" viewBox="0 0 20 20" fill="none" xmlns="http://www.w3.org/2000/svg">
<g id="simple-icons:mailtrap">
<path id="Vector" d="M4.475 14.6719L2.77833 15.6786C2.73725 15.7018 2.70308 15.7356 2.6793 15.7763C2.65553 15.8171 2.643 15.8635 2.643 15.9107C2.643 15.9579 2.65553 16.0042 2.6793 16.045C2.70308 16.0858 2.73725 16.1195 2.77833 16.1428L9.37 19.8361C9.56235 19.9434 9.77893 19.9997 9.99917 19.9997C10.2194 19.9997 10.436 19.9434 10.6283 19.8361L17.3067 16.0936C17.5092 15.9736 17.4758 15.7303 17.3067 15.6478L15.5125 14.6786C15.3608 14.5786 15.0233 14.6119 14.9042 14.6928L10.6283 17.0886C10.436 17.1959 10.2194 17.2522 9.99917 17.2522C9.77893 17.2522 9.56235 17.1959 9.37 17.0886L5.05667 14.6719C4.89583 14.5728 4.64083 14.5786 4.475 14.6719ZM9.37 0.163592C9.56235 0.0563143 9.77893 0 9.99917 0C10.2194 0 10.436 0.0563143 10.6283 0.163592L15.9367 3.13693C16.1483 3.24443 16.1675 3.53193 15.9367 3.66193L14.7283 4.33693C14.5044 4.46164 14.2522 4.52689 13.9959 4.52646C13.7396 4.52602 13.4877 4.45991 13.2642 4.33443L10.6283 2.85776C10.436 2.75048 10.2194 2.69417 9.99917 2.69417C9.77893 2.69417 9.56235 2.75048 9.37 2.85776L6.73083 4.33609C6.50726 4.46145 6.25529 4.52741 5.99897 4.52771C5.74265 4.528 5.49053 4.4626 5.26667 4.33776L4.01667 3.64109C3.82 3.55776 3.77917 3.30693 4.01667 3.16276L9.37 0.163592ZM18.3067 4.63943C18.6958 4.85776 18.9358 5.26109 18.9358 5.69776V14.3019C18.9358 14.7269 18.6692 14.8069 18.385 14.6586L16.4183 13.5978V7.81276L10.6283 11.0569C10.436 11.1642 10.2194 11.2205 9.99917 11.2205C9.77893 11.2205 9.56235 11.1642 9.37 11.0569L3.57917 7.81276V13.5961L1.79333 14.6578C1.58 14.7936 1.0625 14.8361 1.0625 14.3028V5.69776C1.0625 5.26109 1.3025 4.85776 1.69167 4.63943C2.31833 4.31192 2.96583 4.63943 2.96583 4.63943L9.99917 8.58943L17.0217 4.63943C17.0217 4.63943 17.6458 4.26443 18.3067 4.63943Z" fill="#FBFFFB"/>
</g>
</svg>
