<svg width="38" height="38" viewBox="0 0 38 38" fill="none" xmlns="http://www.w3.org/2000/svg">
<g id="solar:danger-bold">
<path id="Vector" fill-rule="evenodd" clip-rule="evenodd" d="M12.5336 6.703C15.6898 4.9015 17.2671 4 19 4C20.7329 4 22.3102 4.9 25.4664 6.703L26.5336 7.312C29.6898 9.115 31.2671 10.0165 32.1336 11.5C33 12.985 33 14.785 33 18.391V19.609C33 23.2135 33 25.0165 32.1336 26.5C31.2671 27.9835 29.6898 28.885 26.5336 30.6865L25.4664 31.297C22.3102 33.0985 20.7329 34 19 34C17.2671 34 15.6898 33.1 12.5336 31.297L11.4664 30.6865C8.31022 28.8865 6.73289 27.9835 5.86644 26.5C5 25.015 5 23.215 5 19.609V18.391C5 14.785 5 12.9835 5.86644 11.5C6.73289 10.0165 8.31022 9.115 11.4664 7.312L12.5336 6.703ZM20.5556 25C20.5556 25.3978 20.3917 25.7794 20.0999 26.0607C19.8082 26.342 19.4126 26.5 19 26.5C18.5874 26.5 18.1918 26.342 17.9001 26.0607C17.6083 25.7794 17.4444 25.3978 17.4444 25C17.4444 24.6022 17.6083 24.2206 17.9001 23.9393C18.1918 23.658 18.5874 23.5 19 23.5C19.4126 23.5 19.8082 23.658 20.0999 23.9393C20.3917 24.2206 20.5556 24.6022 20.5556 25ZM19 10.375C19.3094 10.375 19.6062 10.4935 19.825 10.7045C20.0437 10.9155 20.1667 11.2016 20.1667 11.5V20.5C20.1667 20.7984 20.0437 21.0845 19.825 21.2955C19.6062 21.5065 19.3094 21.625 19 21.625C18.6906 21.625 18.3938 21.5065 18.175 21.2955C17.9563 21.0845 17.8333 20.7984 17.8333 20.5V11.5C17.8333 11.2016 17.9563 10.9155 18.175 10.7045C18.3938 10.4935 18.6906 10.375 19 10.375Z" fill="black"/>
</g>
</svg>
