<svg width="38" height="38" viewBox="0 0 38 38" fill="none" xmlns="http://www.w3.org/2000/svg">
<g filter="url(#filter0_d_636_2120)">
<circle cx="19" cy="17" r="15" fill="#F6F9F6"/>
</g>
<path d="M31.2973 17.1486C31.2973 23.8582 25.8582 29.2973 19.1486 29.2973C12.4391 29.2973 7 23.8582 7 17.1486C7 10.4391 12.4391 5 19.1486 5C25.8582 5 31.2973 10.4391 31.2973 17.1486Z" fill="#EFEFEF"/>
<path d="M24.4973 16.91C24.7207 17.039 24.7207 17.3614 24.4973 17.4904L16.5027 22.1061C16.2793 22.2351 16 22.0739 16 21.8159V12.5845C16 12.3265 16.2793 12.1653 16.5027 12.2943L24.4973 16.91Z" fill="#60883C"/>
<defs>
<filter id="filter0_d_636_2120" x="0" y="0" width="38" height="38" filterUnits="userSpaceOnUse" color-interpolation-filters="sRGB">
<feFlood flood-opacity="0" result="BackgroundImageFix"/>
<feColorMatrix in="SourceAlpha" type="matrix" values="0 0 0 0 0 0 0 0 0 0 0 0 0 0 0 0 0 0 127 0" result="hardAlpha"/>
<feOffset dy="2"/>
<feGaussianBlur stdDeviation="2"/>
<feComposite in2="hardAlpha" operator="out"/>
<feColorMatrix type="matrix" values="0 0 0 0 0.0196078 0 0 0 0 0.121569 0 0 0 0 0.12549 0 0 0 0.1 0"/>
<feBlend mode="normal" in2="BackgroundImageFix" result="effect1_dropShadow_636_2120"/>
<feBlend mode="normal" in="SourceGraphic" in2="effect1_dropShadow_636_2120" result="shape"/>
</filter>
</defs>
</svg>
